<?xml version="1.0" encoding="UTF-8"?>
<!DOCTYPE svg PUBLIC "-//W3C//DTD SVG 1.1//EN" "http://www.w3.org/Graphics/SVG/1.1/DTD/svg11.dtd">
<svg xmlns="http://www.w3.org/2000/svg" version="1.1" width="157px" height="152px" style="shape-rendering:geometricPrecision; text-rendering:geometricPrecision; image-rendering:optimizeQuality; fill-rule:evenodd; clip-rule:evenodd" xmlns:xlink="http://www.w3.org/1999/xlink">
<g><path style="opacity:1" fill="#f4f4f1" d="M -0.5,-0.5 C 51.8333,-0.5 104.167,-0.5 156.5,-0.5C 156.5,50.1667 156.5,100.833 156.5,151.5C 104.167,151.5 51.8333,151.5 -0.5,151.5C -0.5,100.833 -0.5,50.1667 -0.5,-0.5 Z"/></g>
<g><path style="opacity:1" fill="#767674" d="M 79.5,47.5 C 79.1667,47.5 78.8333,47.5 78.5,47.5C 77.5,47.5 76.5,47.5 75.5,47.5C 75.5,36.5 75.5,25.5 75.5,14.5C 76.8333,14.5 78.1667,14.5 79.5,14.5C 79.5,25.5 79.5,36.5 79.5,47.5 Z"/></g>
<g><path style="opacity:1" fill="#313131" d="M 76.5,15.5 C 77.8279,20.2876 78.4946,25.4543 78.5,31C 78.1667,36.1667 77.8333,41.3333 77.5,46.5C 76.5014,36.1881 76.1681,25.8548 76.5,15.5 Z"/></g>
<g><path style="opacity:1" fill="#525250" d="M 78.5,47.5 C 78.8333,47.5 79.1667,47.5 79.5,47.5C 80.1667,47.5 80.8333,47.5 81.5,47.5C 81.5,52.1667 81.5,56.8333 81.5,61.5C 80.6753,57.3528 80.1753,53.0195 80,48.5C 79.8247,53.0195 79.3247,57.3528 78.5,61.5C 78.5,56.8333 78.5,52.1667 78.5,47.5 Z"/></g>
<g><path style="opacity:1" fill="#5c5c5a" d="M 103.5,50.5 C 103.5,49.5 103.5,48.5 103.5,47.5C 104.756,47.0962 105.923,46.4295 107,45.5C 107.5,45.8333 108,46.1667 108.5,46.5C 107.147,47.5237 106.48,48.857 106.5,50.5C 105.5,50.5 104.5,50.5 103.5,50.5 Z"/></g>
<g><path style="opacity:1" fill="#babab8" d="M 75.5,47.5 C 76.5,47.5 77.5,47.5 78.5,47.5C 78.5,52.1667 78.5,56.8333 78.5,61.5C 77.5,61.5 76.5,61.5 75.5,61.5C 78.1667,56.8333 78.1667,52.1667 75.5,47.5 Z"/></g>
<g><path style="opacity:1" fill="#1a1b19" d="M 100.5,50.5 C 103.167,51.1667 103.167,51.8333 100.5,52.5C 100.5,51.8333 100.5,51.1667 100.5,50.5 Z"/></g>
<g><path style="opacity:1" fill="#686866" d="M 53.5,47.5 C 54.9778,47.238 56.3112,47.5713 57.5,48.5C 59.4813,51.7932 62.148,54.1265 65.5,55.5C 66.1667,57.5 66.8333,59.5 67.5,61.5C 66.5,61.5 65.5,61.5 64.5,61.5C 64.5,60.5 64.5,59.5 64.5,58.5C 61.5,58.1667 59.8333,56.5 59.5,53.5C 58.5,53.5 57.5,53.5 56.5,53.5C 56.5,52.5 56.5,51.5 56.5,50.5C 55.5,50.5 54.5,50.5 53.5,50.5C 53.5,49.5 53.5,48.5 53.5,47.5 Z"/></g>
<g><path style="opacity:1" fill="#313130" d="M 100.5,53.5 C 100.5,54.1667 100.5,54.8333 100.5,55.5C 97.8333,54.8333 97.8333,54.1667 100.5,53.5 Z"/></g>
<g><path style="opacity:1" fill="#7f7f7d" d="M 103.5,47.5 C 103.5,48.5 103.5,49.5 103.5,50.5C 103.5,51.5 103.5,52.5 103.5,53.5C 102.5,53.5 101.5,53.5 100.5,53.5C 97.8333,54.1667 97.8333,54.8333 100.5,55.5C 99.3303,57.2785 97.6636,58.2785 95.5,58.5C 95.5,59.5 95.5,60.5 95.5,61.5C 93.3364,61.7215 91.6697,62.7215 90.5,64.5C 90.1667,64.5 89.8333,64.5 89.5,64.5C 87.5853,64.7845 85.9187,64.4511 84.5,63.5C 86.1667,63.5 87.8333,63.5 89.5,63.5C 90.5,59.1667 93.1667,56.5 97.5,55.5C 97.5,54.5 97.5,53.5 97.5,52.5C 98.5,52.5 99.5,52.5 100.5,52.5C 103.167,51.8333 103.167,51.1667 100.5,50.5C 101.5,49.5 102.5,48.5 103.5,47.5 Z"/></g>
<g><path style="opacity:1" fill="#b8b8b7" d="M 81.5,47.5 C 82.1401,52.8077 83.1401,58.141 84.5,63.5C 83.7777,62.4489 82.7777,61.7822 81.5,61.5C 81.5,56.8333 81.5,52.1667 81.5,47.5 Z"/></g>
<g><path style="opacity:1" fill="#161616" d="M 81.5,61.5 C 82.7777,61.7822 83.7777,62.4489 84.5,63.5C 85.9187,64.4511 87.5853,64.7845 89.5,64.5C 89.5,66.1667 89.5,67.8333 89.5,69.5C 105.662,70.3315 121.995,70.8315 138.5,71C 121.995,71.1685 105.662,71.6685 89.5,72.5C 87.144,74.5573 86.144,77.224 86.5,80.5C 84.8333,80.5 83.1667,80.5 81.5,80.5C 80.6683,98.3287 80.1683,116.329 80,134.5C 79.8317,116.329 79.3317,98.3287 78.5,80.5C 76.8333,80.5 75.1667,80.5 73.5,80.5C 73.5,78.5 73.5,76.5 73.5,74.5C 72.5,74.5 71.5,74.5 70.5,74.5C 57.2076,72.5181 43.5409,71.8514 29.5,72.5C 29.5,71.5 29.5,70.5 29.5,69.5C 43.1667,69.5 56.8333,69.5 70.5,69.5C 70.5,67.8333 70.5,66.1667 70.5,64.5C 72.4147,64.7845 74.0813,64.4511 75.5,63.5C 75.5,62.8333 75.5,62.1667 75.5,61.5C 76.5,61.5 77.5,61.5 78.5,61.5C 79.3247,57.3528 79.8247,53.0195 80,48.5C 80.1753,53.0195 80.6753,57.3528 81.5,61.5 Z"/></g>
<g><path style="opacity:1" fill="#666664" d="M 75.5,63.5 C 74.0813,64.4511 72.4147,64.7845 70.5,64.5C 70.1667,64.5 69.8333,64.5 69.5,64.5C 68.2241,63.6136 68.2241,62.6136 69.5,61.5C 71.1789,63.1045 73.1789,63.7711 75.5,63.5 Z"/></g>
<g><path style="opacity:1" fill="#afafae" d="M 69.5,64.5 C 69.8333,64.5 70.1667,64.5 70.5,64.5C 70.5,66.1667 70.5,67.8333 70.5,69.5C 56.8333,69.5 43.1667,69.5 29.5,69.5C 42.6562,68.5044 55.9895,68.1711 69.5,68.5C 69.5,67.1667 69.5,65.8333 69.5,64.5 Z"/></g>
<g><path style="opacity:1" fill="#aeaeae" d="M 89.5,64.5 C 89.8333,64.5 90.1667,64.5 90.5,64.5C 90.5,65.8333 90.5,67.1667 90.5,68.5C 106.675,68.1703 122.675,68.5036 138.5,69.5C 122.167,69.5 105.833,69.5 89.5,69.5C 89.5,67.8333 89.5,66.1667 89.5,64.5 Z"/></g>
<g><path style="opacity:1" fill="#595a58" d="M 89.5,69.5 C 105.833,69.5 122.167,69.5 138.5,69.5C 139.404,70.209 139.737,71.209 139.5,72.5C 122.833,72.5 106.167,72.5 89.5,72.5C 105.662,71.6685 121.995,71.1685 138.5,71C 121.995,70.8315 105.662,70.3315 89.5,69.5 Z"/></g>
<g><path style="opacity:1" fill="#bebfbd" d="M 73.5,81.5 C 73.5,81.1667 73.5,80.8333 73.5,80.5C 75.1667,80.5 76.8333,80.5 78.5,80.5C 78.5,98.8333 78.5,117.167 78.5,135.5C 77.5032,117.674 77.1699,99.6744 77.5,81.5C 76.1667,81.5 74.8333,81.5 73.5,81.5 Z"/></g>
<g><path style="opacity:1" fill="#757675" d="M 89.5,72.5 C 89.045,74.3666 88.3784,76.1999 87.5,78C 89.2044,81.6591 91.8711,84.1591 95.5,85.5C 95.5,86.5 95.5,87.5 95.5,88.5C 96.5,88.5 97.5,88.5 98.5,88.5C 98.5,89.5 98.5,90.5 98.5,91.5C 98.5,92.8333 99.1667,93.5 100.5,93.5C 101.5,93.5 102.5,93.5 103.5,93.5C 103.5,94.5 103.5,95.5 103.5,96.5C 104.5,96.5 105.5,96.5 106.5,96.5C 106.5,97.5 106.5,98.5 106.5,99.5C 107.5,99.5 108.5,99.5 109.5,99.5C 110.167,101.5 110.833,103.5 111.5,105.5C 110.5,105.5 109.5,105.5 108.5,105.5C 108.5,104.5 108.5,103.5 108.5,102.5C 104.167,101.5 101.5,98.8333 100.5,94.5C 99.5,94.5 98.5,94.5 97.5,94.5C 97.5,93.5 97.5,92.5 97.5,91.5C 96.8333,88.8333 96.1667,88.8333 95.5,91.5C 94.5326,90.1938 93.1993,89.5271 91.5,89.5C 90.8333,87.5 90.1667,85.5 89.5,83.5C 87.8212,83.7148 86.8212,83.0481 86.5,81.5C 86.5,81.1667 86.5,80.8333 86.5,80.5C 86.144,77.224 87.144,74.5573 89.5,72.5 Z"/></g>
<g><path style="opacity:1" fill="#686967" d="M 70.5,74.5 C 71.5,74.5 72.5,74.5 73.5,74.5C 73.5,76.5 73.5,78.5 73.5,80.5C 73.5,80.8333 73.5,81.1667 73.5,81.5C 71.5811,84.1998 69.2478,86.5332 66.5,88.5C 65.6143,89.325 65.281,90.325 65.5,91.5C 63.3618,91.703 61.6951,92.703 60.5,94.5C 60.1667,94 59.8333,93.5 59.5,93C 60.7073,91.6998 61.3739,90.1998 61.5,88.5C 62.5,88.5 63.5,88.5 64.5,88.5C 64.5,87.5 64.5,86.5 64.5,85.5C 65.5,85.5 66.5,85.5 67.5,85.5C 67.5,84.5 67.5,83.5 67.5,82.5C 70.2399,82.263 71.9066,80.763 72.5,78C 72.1382,76.5657 71.4715,75.3991 70.5,74.5 Z"/></g>
<g><path style="opacity:1" fill="#363734" d="M 97.5,91.5 C 96.8333,91.5 96.1667,91.5 95.5,91.5C 96.1667,88.8333 96.8333,88.8333 97.5,91.5 Z"/></g>
<g><path style="opacity:1" fill="#1d1e1c" d="M 98.5,91.5 C 99.8333,91.5 100.5,92.1667 100.5,93.5C 100.5,92.1667 99.8333,91.5 98.5,91.5 Z"/></g>
<g><path style="opacity:1" fill="#c8c8c6" d="M 81.5,80.5 C 83.1667,80.5 84.8333,80.5 86.5,80.5C 86.5,80.8333 86.5,81.1667 86.5,81.5C 85.1667,81.5 83.8333,81.5 82.5,81.5C 82.8301,99.6744 82.4968,117.674 81.5,135.5C 81.5,117.167 81.5,98.8333 81.5,80.5 Z"/></g>
<g><path style="opacity:1" fill="#50504e" d="M 78.5,80.5 C 79.3317,98.3287 79.8317,116.329 80,134.5C 80.1683,116.329 80.6683,98.3287 81.5,80.5C 81.5,98.8333 81.5,117.167 81.5,135.5C 80.5,135.5 79.5,135.5 78.5,135.5C 78.5,117.167 78.5,98.8333 78.5,80.5 Z"/></g>
</svg>
