<?xml version="1.0" standalone="no"?>
<!DOCTYPE svg PUBLIC "-//W3C//DTD SVG 20010904//EN"
 "http://www.w3.org/TR/2001/REC-SVG-20010904/DTD/svg10.dtd">
<svg version="1.0" xmlns="http://www.w3.org/2000/svg"
 width="480.000000pt" height="474.000000pt" viewBox="0 0 480.000000 474.000000"
 preserveAspectRatio="xMidYMid meet">

<g transform="translate(0.000000,474.000000) scale(0.100000,-0.100000)"
fill="#000000" stroke="none">
<path d="M790 4130 c-52 -70 -98 -126 -102 -124 -4 3 -10 -1 -15 -8 -8 -13
-10 -19 -12 -40 0 -6 -4 -8 -8 -5 -11 11 -32 -14 -26 -30 4 -10 2 -14 -4 -10
-6 4 -19 -3 -29 -16 -16 -18 -16 -19 -1 -8 9 7 17 9 17 3 0 -11 -31 -39 -38
-34 -5 4 -122 -133 -149 -174 -9 -14 -14 -27 -11 -29 2 -2 27 27 56 65 53 71
72 85 69 51 0 -11 -4 -19 -7 -18 -3 1 -22 -16 -41 -38 -18 -22 -41 -45 -49
-52 -8 -6 -12 -14 -9 -17 11 -11 161 -38 169 -29 15 16 190 445 185 453 -3 4
5 21 18 37 25 31 90 143 85 148 -2 1 -46 -55 -98 -125z m-26 -93 c-126 -142
-153 -175 -149 -180 3 -4 2 -5 -1 -2 -9 6 -46 -43 -40 -54 3 -4 -3 -8 -14 -7
-11 0 -20 4 -20 9 0 14 32 57 40 52 12 -8 43 33 34 46 -4 7 -3 10 3 6 6 -4 43
31 83 78 40 47 75 83 78 80 3 -3 -4 -15 -14 -28z"/>
<path d="M340 3534 c-65 -139 -74 -163 -26 -74 44 82 47 72 4 -14 -17 -36 -36
-62 -41 -59 -6 3 -7 1 -3 -5 4 -7 -23 -69 -60 -138 -37 -70 -63 -129 -58 -134
5 -5 21 -11 35 -15 25 -6 27 -4 63 102 21 59 57 163 80 230 24 67 39 120 34
117 -13 -8 -10 3 13 47 11 22 19 45 17 50 -2 5 -28 -43 -58 -107z"/>
<path d="M335 3394 c-95 -279 -91 -265 -66 -234 36 45 321 430 321 433 0 2
-33 9 -72 16 -40 7 -80 14 -88 17 -12 3 -33 -51 -95 -232z"/>
<path d="M613 3567 c-5 -7 -29 -124 -52 -262 -24 -137 -61 -351 -82 -474 -22
-123 -38 -225 -36 -227 1 -2 14 18 28 44 14 26 39 72 56 102 16 30 60 114 98
185 37 72 81 155 98 185 52 91 106 192 129 239 21 42 21 45 4 55 -26 17 -209
144 -223 155 -7 7 -14 6 -20 -2z"/>
<path d="M514 3463 c-38 -53 -68 -100 -67 -105 2 -4 -1 -7 -6 -5 -9 2 -98
-114 -176 -228 l-34 -50 89 -248 c48 -137 90 -250 92 -252 4 -4 56 271 83 445
8 47 32 186 54 310 21 124 38 226 36 228 -1 1 -33 -41 -71 -95z"/>
<path d="M124 2980 c-11 -77 -21 -116 -26 -108 -6 8 -7 -3 -3 -27 3 -22 1 -60
-4 -85 -10 -45 -10 -44 -6 15 3 46 -3 30 -25 -75 -16 -74 -29 -144 -28 -155 2
-11 0 -24 -3 -30 -3 -5 0 -91 6 -190 l12 -180 2 205 c1 208 7 293 21 285 5 -3
6 14 4 37 -2 32 -1 36 4 15 6 -23 18 8 70 175 34 112 62 206 62 210 0 5 -54
28 -66 28 -1 0 -10 -54 -20 -120z"/>
<path d="M142 2812 c-40 -130 -72 -242 -72 -249 0 -8 26 -13 78 -16 l77 -3
-80 -2 -81 -2 -2 -277 -3 -278 31 -93 c16 -52 28 -97 25 -102 -3 -4 -1 -19 4
-32 6 -13 10 -17 11 -8 1 8 12 -16 26 -54 13 -38 22 -71 20 -74 -3 -2 -12 21
-22 52 -29 91 -27 56 2 -45 29 -104 65 -183 62 -139 -3 58 5 61 16 5 10 -50
15 -60 36 -66 16 -5 19 -7 8 -8 -25 -1 -23 -9 18 -70 20 -29 30 -50 23 -46 -7
5 6 -25 28 -66 22 -41 64 -118 94 -172 31 -57 71 -114 94 -135 22 -20 39 -39
38 -43 -1 -3 55 -61 125 -130 70 -68 98 -92 62 -54 l-65 70 77 -74 c43 -41 76
-76 75 -77 -4 -4 374 -389 381 -388 4 1 12 -6 18 -14 10 -14 14 -11 28 16 9
18 19 32 22 32 2 0 -2 -13 -11 -30 -20 -39 -20 -39 23 -35 31 4 33 3 12 -4
-14 -5 -18 -9 -10 -10 8 -1 103 -14 210 -31 415 -63 598 -90 613 -90 12 0 15
8 12 38 l-5 37 9 -33 c5 -18 11 -35 14 -38 2 -3 127 32 276 77 149 46 268 86
263 89 -4 4 -133 24 -287 45 -154 21 -286 40 -293 43 -9 3 -11 -6 -8 -39 l6
-44 -10 40 c-10 39 -12 41 -48 38 -30 -2 -32 -1 -12 5 21 7 13 12 -57 32 -46
13 -81 25 -79 27 4 4 43 -5 130 -32 l48 -15 -5 38 -6 37 12 -38 13 -38 262
130 c144 72 266 131 270 130 4 0 -110 -59 -253 -131 -143 -73 -253 -133 -245
-135 19 -4 591 -83 600 -83 4 0 -12 77 -35 171 -36 150 -44 173 -66 184 -13 7
-96 29 -184 50 -88 20 -227 52 -308 72 -81 19 -150 33 -152 31 -2 -2 16 -76
40 -163 25 -88 45 -164 45 -169 0 -25 -13 13 -54 163 -24 90 -47 165 -49 167
-2 3 -98 -38 -213 -89 -332 -149 -322 -144 -344 -188 -11 -21 -23 -39 -25 -39
-3 0 4 19 16 41 l21 41 -29 32 c-27 30 -27 30 -1 7 l26 -23 5 28 4 29 2 -27
c0 -16 5 -28 10 -28 8 0 502 219 510 226 3 3 -4 11 -15 20 -18 14 -18 15 5 8
l24 -6 -7 268 c-4 147 -8 269 -10 271 -1 1 -101 -36 -222 -83 -120 -47 -252
-97 -291 -111 -40 -15 -73 -29 -73 -32 0 -7 73 -46 353 -191 109 -56 196 -104
193 -107 -2 -2 -129 61 -282 141 -153 79 -280 144 -281 142 -2 -1 13 -92 32
-202 19 -109 34 -208 34 -219 -1 -11 -18 79 -40 199 -21 121 -43 223 -50 226
-6 4 -10 11 -9 14 1 7 -38 42 -191 167 -229 189 -350 288 -358 294 -7 4 -9 -6
-6 -27 l5 -33 -11 35 c-6 19 -12 36 -14 38 -1 2 -68 -30 -148 -70 -114 -56
-144 -75 -135 -85 8 -10 6 -13 -6 -13 -9 0 -16 5 -16 10 0 6 -21 11 -47 12
l-48 1 43 4 c33 3 42 8 38 19 -3 8 -1 14 3 14 5 0 11 -6 14 -12 3 -9 51 10
151 59 80 40 146 77 146 81 0 27 -310 876 -322 883 -12 7 -38 -33 -129 -204
-63 -116 -117 -220 -122 -231 -4 -10 -10 -17 -13 -14 -3 3 41 90 97 194 177
330 160 293 136 299 -12 3 -49 6 -82 8 -37 3 -28 4 23 3 45 -1 82 -1 82 0 0 0
-56 156 -97 269 -13 39 -38 109 -55 158 -16 48 -33 87 -36 87 -4 0 -40 -107
-80 -238z m-65 -399 c-3 -10 -5 -2 -5 17 0 19 2 27 5 18 2 -10 2 -26 0 -35z
m350 -320 c-1 -60 -3 -11 -3 107 0 118 2 167 3 108 2 -60 2 -156 0 -215z
m-329 197 c0 -16 -3 -11 -9 15 -4 22 -8 51 -7 65 0 16 3 11 9 -15 4 -22 8 -51
7 -65z m9 -67 c-3 -10 -5 -4 -5 12 0 17 2 24 5 18 2 -7 2 -21 0 -30z m10 -70
c-3 -10 -5 -2 -5 17 0 19 2 27 5 18 2 -10 2 -26 0 -35z m10 -60 c-3 -10 -5 -4
-5 12 0 17 2 24 5 18 2 -7 2 -21 0 -30z m62 -171 c17 -34 29 -62 26 -62 -2 0
-16 23 -30 50 -14 28 -30 48 -35 45 -6 -3 -10 6 -10 20 0 24 -2 26 -37 21
l-38 -6 33 10 c25 8 32 16 33 38 1 24 3 22 14 -13 7 -22 27 -68 44 -103z m-32
-14 c-3 -7 -5 -2 -5 12 0 14 2 19 5 13 2 -7 2 -19 0 -25z m280 -285 c-1 -60
-3 -11 -3 107 0 118 2 167 3 108 2 -60 2 -156 0 -215z m-270 230 c-3 -10 -5
-4 -5 12 0 17 2 24 5 18 2 -7 2 -21 0 -30z m21 -103 c0 -22 -1 -22 -8 5 -4 17
-8 41 -8 55 0 22 1 22 8 -5 4 -16 8 -41 8 -55z m87 10 c19 -38 33 -70 30 -70
-2 0 -21 32 -40 70 -19 39 -33 70 -30 70 2 0 21 -31 40 -70z m-67 -120 c0 -22
-1 -22 -8 5 -4 17 -8 41 -8 55 0 22 1 22 8 -5 4 -16 8 -41 8 -55z m157 -50
c25 -49 43 -90 40 -90 -3 0 -25 41 -50 90 -25 50 -43 90 -40 90 3 0 25 -40 50
-90z m-148 -17 c-3 -10 -5 -4 -5 12 0 17 2 24 5 18 2 -7 2 -21 0 -30z m571
-138 c0 -16 -2 -15 -8 5 -4 14 -8 34 -8 45 0 16 2 15 8 -5 4 -14 8 -34 8 -45z
m47 -188 c20 -87 35 -160 33 -163 -3 -2 -19 60 -37 139 -45 196 -44 193 -38
187 3 -3 22 -76 42 -163z m-275 68 c47 -47 82 -85 80 -85 -3 0 -43 38 -90 85
-47 47 -82 85 -80 85 3 0 43 -38 90 -85z m-41 -120 c0 -5 -14 28 -30 75 -16
46 -29 89 -28 95 0 5 14 -28 30 -75 16 -46 29 -89 28 -95z m226 -75 c44 -44
77 -80 75 -80 -3 0 -41 36 -85 80 -44 44 -77 80 -75 80 3 0 41 -36 85 -80z
m-167 -110 c0 -8 -8 8 -18 35 -10 28 -18 57 -18 65 0 8 8 -7 18 -35 10 -27 18
-57 18 -65z m532 9 c-96 -32 -179 -59 -185 -58 -14 1 327 117 345 117 8 0 -64
-26 -160 -59z m-222 -14 c0 -16 -2 -15 -8 5 -4 14 -8 34 -8 45 0 16 2 15 8 -5
4 -14 8 -34 8 -45z m4 -29 c4 3 9 -3 12 -13 4 -10 31 -36 62 -58 30 -21 61
-46 67 -54 7 -9 -17 7 -52 33 -56 43 -63 46 -57 25 5 -19 3 -17 -11 7 -10 17
-24 30 -31 28 -7 -1 -8 0 -1 3 6 3 0 17 -18 37 -25 27 -25 28 -2 8 14 -12 28
-20 31 -16z m-72 -56 c-8 -5 -19 -10 -25 -10 -5 0 -3 5 5 10 8 5 20 10 25 10
6 0 3 -5 -5 -10z m-50 -19 c-8 -5 -26 -11 -40 -15 -21 -5 -20 -3 5 9 32 15 60
20 35 6z m-150 -17 c0 -7 7 -17 16 -22 12 -7 13 -11 5 -16 -12 -8 -63 33 -56
45 7 11 35 6 35 -7z m389 -159 c0 -5 -15 19 -34 55 -19 36 -34 70 -34 75 0 6
15 -19 34 -55 19 -36 34 -69 34 -75z m171 9 c0 -3 -27 16 -60 41 -33 25 -60
48 -60 51 0 3 27 -16 60 -41 33 -25 60 -48 60 -51z m100 -81 c0 -7 -78 56 -87
70 -4 6 14 -6 40 -27 26 -21 47 -40 47 -43z m-201 -78 c0 -5 -15 19 -34 55
-19 36 -34 70 -34 75 0 6 15 -19 34 -55 19 -36 34 -69 34 -75z m291 8 c0 -2
-18 10 -40 27 -22 17 -40 34 -40 37 0 2 18 -10 40 -27 22 -17 40 -34 40 -37z
m57 25 c-3 -7 -5 -2 -5 12 0 14 2 19 5 13 2 -7 2 -19 0 -25z m-313 -104 c3 -8
2 -12 -4 -9 -6 3 -10 10 -10 16 0 14 7 11 14 -7z m416 1 c19 -7 28 -13 20 -13
-8 0 -31 6 -50 13 -19 7 -28 13 -20 13 8 0 31 -6 50 -13z m130 -39 c41 -13 71
-24 65 -25 -5 0 -44 10 -85 23 -41 13 -70 24 -65 25 6 0 44 -10 85 -23z m-501
-61 c0 -5 -8 6 -19 25 -11 19 -19 40 -19 45 0 6 8 -6 19 -25 11 -19 19 -39 19
-45z m671 11 c41 -13 71 -24 65 -25 -5 0 -44 10 -85 23 -41 13 -70 24 -65 25
6 0 44 -10 85 -23z m-475 -53 c-41 -73 -68 -110 -40 -53 27 55 66 120 72 120
3 0 -12 -30 -32 -67z m-126 -108 c0 -5 -13 15 -29 45 -16 30 -29 60 -29 65 0
6 13 -15 29 -45 16 -30 29 -59 29 -65z m784 58 c-7 -2 -21 -2 -30 0 -10 3 -4
5 12 5 17 0 24 -2 18 -5z m-60 -10 c-7 -2 -21 -2 -30 0 -10 3 -4 5 12 5 17 0
24 -2 18 -5z m-60 -10 c-7 -2 -21 -2 -30 0 -10 3 -4 5 12 5 17 0 24 -2 18 -5z
m-88 -14 c-22 -4 -51 -8 -65 -7 -35 1 34 15 75 16 25 0 23 -2 -10 -9z m-102
-16 c-7 -2 -21 -2 -30 0 -10 3 -4 5 12 5 17 0 24 -2 18 -5z m-60 -10 c-7 -2
-21 -2 -30 0 -10 3 -4 5 12 5 17 0 24 -2 18 -5z m-60 -10 c-7 -2 -21 -2 -30 0
-10 3 -4 5 12 5 17 0 24 -2 18 -5z m-88 -14 c-22 -4 -51 -8 -65 -7 -35 1 34
15 75 16 25 0 23 -2 -10 -9z m632 -21 c-3 -7 -5 -2 -5 12 0 14 2 19 5 13 2 -7
2 -19 0 -25z m-734 5 c-7 -2 -21 -2 -30 0 -10 3 -4 5 12 5 17 0 24 -2 18 -5z
m744 -55 c-3 -7 -5 -2 -5 12 0 14 2 19 5 13 2 -7 2 -19 0 -25z"/>
<path d="M507 2464 c32 -29 62 -49 67 -46 5 3 6 1 3 -5 -8 -12 110 -116 123
-108 6 3 7 -1 4 -9 -3 -9 -2 -16 3 -16 6 0 27 -17 49 -37 22 -21 81 -74 133
-118 52 -44 102 -88 112 -99 10 -10 23 -15 30 -11 7 5 10 4 6 -2 -8 -13 80
-96 93 -88 5 3 8 0 6 -7 -3 -7 29 -42 71 -77 l75 -64 -7 104 c-4 57 -11 149
-16 204 -5 55 -12 156 -15 225 -3 79 -10 130 -18 138 -11 11 -223 30 -734 64
l-43 3 58 -51z"/>
<path d="M444 2475 c4 -11 27 -76 52 -145 25 -69 54 -147 64 -174 11 -27 20
-53 20 -59 0 -5 31 -96 69 -201 38 -105 77 -215 87 -244 11 -35 21 -51 30 -48
7 3 32 10 56 16 24 7 95 28 158 47 63 19 154 47 203 61 48 14 87 28 86 31 0 3
-21 23 -47 45 -26 21 -70 59 -98 85 -46 42 -172 154 -214 191 -10 8 -57 52
-106 96 -49 45 -107 96 -129 115 -22 18 -76 65 -120 104 -44 39 -89 77 -99 85
-18 14 -19 13 -12 -5z"/>
<path d="M1110 1693 c-80 -24 -190 -58 -245 -75 l-100 -30 40 -35 c22 -19 84
-70 138 -114 53 -44 107 -88 120 -99 88 -74 223 -188 243 -203 l24 -19 0 54
c0 29 -4 94 -9 143 -5 50 -15 165 -22 258 -10 142 -14 167 -28 166 -9 -1 -81
-21 -161 -46z"/>
<path d="M1305 1689 c3 -24 12 -138 20 -254 8 -115 18 -235 21 -266 l6 -56 51
19 c29 11 104 40 167 64 63 25 169 66 235 91 66 26 124 50 129 54 5 5 -5 16
-23 26 -18 10 -157 94 -308 186 -152 93 -282 171 -289 174 -11 4 -13 -4 -9
-38z"/>
<path d="M2840 1340 c25 -4 37 -8 27 -8 -22 -2 -12 -22 11 -22 9 0 29 8 44 18
l28 18 -78 1 c-65 0 -70 -1 -32 -7z m77 -6 c-3 -3 -12 -4 -19 -1 -8 3 -5 6 6
6 11 1 17 -2 13 -5z"/>
<path d="M2215 1330 l-30 -8 28 -1 c16 0 26 -4 24 -8 -3 -5 33 -7 79 -5 46 2
84 7 84 11 0 5 -28 11 -61 15 -71 7 -82 7 -124 -4z m88 -7 c-13 -2 -33 -2 -45
0 -13 2 -3 4 22 4 25 0 35 -2 23 -4z"/>
<path d="M2443 1333 c-33 -6 -28 -23 7 -23 20 0 30 5 30 15 0 8 -3 14 -7 14
-5 -1 -18 -4 -30 -6z"/>
<path d="M2615 1330 c99 -5 104 -6 50 -11 -45 -4 -36 -5 37 -5 54 1 98 4 98 7
0 10 -115 19 -209 17 l-86 -2 110 -6z"/>
<path d="M1983 1315 c0 -17 42 -17 74 0 28 16 28 16 -23 14 -30 -2 -51 -7 -51
-14z m50 -2 c-7 -2 -19 -2 -25 0 -7 3 -2 5 12 5 14 0 19 -2 13 -5z"/>
<path d="M2138 1323 c7 -3 16 -2 19 1 4 3 -2 6 -13 5 -11 0 -14 -3 -6 -6z"/>
<path d="M2940 1320 c-8 -5 -10 -10 -5 -10 6 -1 -24 -18 -65 -38 -41 -21 -75
-44 -75 -51 0 -8 -7 -16 -15 -18 -13 -4 -13 -3 0 6 13 9 13 11 -1 11 -9 0 -22
-6 -28 -14 -6 -8 -25 -19 -41 -26 -16 -7 -27 -16 -24 -21 3 -5 -3 -6 -12 -2
-13 5 -15 3 -9 -7 6 -10 4 -12 -7 -7 -9 3 -23 -2 -33 -13 -9 -10 -27 -21 -41
-24 -13 -4 -24 -11 -24 -16 0 -14 12 -12 34 5 23 17 46 20 46 4 0 -5 -5 -7
-10 -4 -6 4 -18 1 -26 -6 -18 -15 -67 -21 -58 -7 4 6 -1 6 -13 -1 -22 -11 -54
-55 -57 -77 -1 -7 -6 -17 -11 -21 -4 -5 -5 -2 0 6 6 11 4 13 -11 7 -43 -18
-56 -16 -19 3 22 10 36 20 31 20 -5 1 -2 8 5 18 13 15 12 15 -8 3 -12 -8 -19
-18 -16 -24 4 -5 -1 -7 -11 -3 -11 4 -15 3 -11 -4 4 -6 1 -9 -6 -7 -8 1 -35
-11 -61 -27 -36 -23 -46 -35 -43 -51 3 -19 -1 -21 -37 -18 -49 4 -63 -3 -47
-22 18 -22 -3 -39 -30 -24 -24 12 -41 6 -41 -16 0 -8 -5 -12 -10 -9 -6 4 -7
12 -3 18 8 14 -26 -11 -43 -30 -7 -8 -21 -16 -33 -18 -23 -4 -72 -35 -55 -35
5 0 20 7 32 16 12 8 22 10 22 5 0 -6 15 -11 33 -11 17 0 39 -5 47 -10 11 -7 2
-9 -30 -5 -39 5 -41 4 -20 -5 37 -17 151 -42 183 -42 15 0 25 -4 21 -9 -3 -5
-2 -9 3 -7 4 1 22 -1 38 -5 54 -13 126 -26 108 -20 -7 3 -13 9 -13 14 0 16 18
10 34 -12 10 -16 26 -22 55 -23 22 0 34 -4 28 -8 -17 -11 53 -9 78 2 11 5 17
9 12 9 -4 1 0 15 8 31 9 17 13 35 10 40 -3 6 -4 10 -1 10 3 0 10 -10 17 -21 8
-15 8 -19 0 -15 -6 4 -11 3 -11 -3 0 -5 4 -12 9 -15 11 -7 22 20 15 38 -3 8 0
17 7 22 8 5 10 3 4 -6 -6 -9 -4 -11 4 -6 7 5 10 10 7 13 -3 3 3 22 14 42 13
26 15 42 9 54 -6 10 -6 23 -1 33 8 15 10 15 15 0 4 -10 3 -15 -3 -11 -6 3 -10
2 -10 -4 0 -27 20 -17 31 16 6 21 20 53 30 72 10 18 15 40 12 49 -4 10 -2 13
5 8 7 -4 15 8 22 33 6 22 15 43 20 46 6 3 10 17 10 30 0 13 5 27 11 31 6 3 17
20 24 38 10 24 11 34 2 45 -9 11 -9 13 0 8 15 -9 40 26 47 66 2 15 4 27 3 27
-1 0 -9 -5 -17 -10z m0 -37 c0 -5 -5 -15 -10 -23 -8 -12 -10 -11 -10 8 0 12 5
22 10 22 6 0 10 -3 10 -7z m-60 -28 c0 -2 -13 -11 -30 -20 -38 -19 -40 -11 -2
9 31 17 32 18 32 11z m-88 -107 c-6 -6 -7 0 -4 19 5 21 7 23 10 9 2 -10 0 -22
-6 -28z m-66 16 c-5 -12 -1 -14 17 -9 20 5 20 5 4 -6 -21 -12 -44 2 -33 20 11
17 19 13 12 -5z m131 -39 c9 -24 -1 -27 -15 -5 -8 13 -8 20 -2 20 6 0 13 -7
17 -15z m-22 -63 c-7 -19 -35 3 -35 27 1 11 5 8 16 -9 15 -25 15 -25 9 10 -4
31 -4 32 5 11 6 -14 8 -31 5 -39z m-285 -12 c0 -16 -42 -60 -53 -53 -6 4 -1
10 12 15 18 6 22 14 19 32 -4 17 -1 23 9 19 7 -3 13 -9 13 -13z m191 -132
c-10 -23 -10 -23 -10 4 -1 14 -4 35 -7 45 -5 14 -3 13 10 -4 12 -16 14 -27 7
-45z m45 36 c-4 -9 -9 -15 -11 -12 -3 3 -3 13 1 22 4 9 9 15 11 12 3 -3 3 -13
-1 -22z m-396 -4 c0 -5 -7 -10 -16 -10 -8 0 -12 5 -9 10 3 6 10 10 16 10 5 0
9 -4 9 -10z m377 -52 c-3 -7 -5 -2 -5 12 0 14 2 19 5 13 2 -7 2 -19 0 -25z
m-570 -54 c9 -8 23 -12 31 -9 9 3 13 3 9 -2 -5 -4 -22 -8 -39 -9 -21 -1 -26 1
-17 7 10 6 11 9 2 9 -7 0 -13 5 -13 10 0 14 9 12 27 -6z m-62 -14 c-3 -5 2
-10 12 -11 11 0 13 -3 5 -6 -7 -3 -20 -2 -30 2 -14 5 -14 7 -2 15 19 12 23 12
15 0z m525 -14 c0 -3 -4 -8 -10 -11 -5 -3 -10 -1 -10 4 0 6 5 11 10 11 6 0 10
-2 10 -4z m-512 -23 c-10 -2 -26 -2 -35 0 -10 3 -2 5 17 5 19 0 27 -2 18 -5z
m129 -59 c-3 -3 -12 -4 -19 -1 -8 3 -5 6 6 6 11 1 17 -2 13 -5z m53 -9 c0 -8
-2 -15 -4 -15 -2 0 -6 7 -10 15 -3 8 -1 15 4 15 6 0 10 -7 10 -15z m113 3
c-13 -6 -11 -7 10 -5 18 3 27 0 27 -10 0 -9 -7 -12 -24 -7 -13 3 -34 0 -46 -6
-15 -8 -20 -8 -16 -1 5 7 -3 12 -21 12 l-28 2 30 5 30 5 -30 7 c-22 5 -14 7
28 6 39 0 52 -3 40 -8z"/>
<path d="M2528 1303 c6 -2 18 -2 25 0 6 3 1 5 -13 5 -14 0 -19 -2 -12 -5z"/>
<path d="M2051 1284 c-12 -14 -12 -17 0 -25 7 -4 10 -11 6 -15 -4 -4 -13 -2
-19 4 -22 22 -45 14 -52 -19 -3 -17 -5 -41 -5 -53 1 -12 5 -7 9 14 5 23 8 -9
9 -90 0 -90 -2 -121 -10 -110 -8 11 -8 9 -2 -10 4 -14 7 -52 6 -85 -1 -46 1
-55 8 -37 5 13 6 28 3 33 -3 6 5 8 18 6 12 -2 17 -2 11 0 -10 3 -13 45 -13
164 0 99 -4 159 -10 159 -5 0 -10 5 -10 10 0 6 9 10 20 10 11 0 20 -5 20 -10
0 -6 8 -5 20 2 12 8 20 24 20 40 0 31 -8 35 -29 12z"/>
<path d="M2792 1293 c-6 -2 -9 -9 -6 -15 4 -7 -2 -7 -17 -3 -13 5 -28 8 -34 8
-280 2 -645 -5 -645 -13 0 -6 32 -10 75 -10 43 0 75 -4 75 -10 0 -6 58 -10
154 -10 93 0 157 4 161 10 3 6 42 10 85 10 83 0 108 -12 75 -37 -15 -10 -16
-13 -3 -13 8 0 23 9 32 19 17 18 16 20 -3 26 -12 3 -21 11 -21 17 0 6 6 6 15
-2 8 -7 15 -9 15 -5 0 4 7 2 15 -5 12 -10 19 -10 27 -2 9 9 22 45 15 41 -1 0
-8 -3 -15 -6z"/>
<path d="M2834 1284 c-18 -14 -18 -15 4 -4 12 6 22 13 22 15 0 8 -5 6 -26 -11z"/>
<path d="M2562 1200 c0 -14 2 -19 5 -12 2 6 2 18 0 25 -3 6 -5 1 -5 -13z"/>
<path d="M2666 1208 c5 -8 2 -9 -10 -5 -10 4 -15 3 -11 -3 3 -6 -4 -14 -17
-19 -13 -5 -39 -21 -58 -36 -30 -23 -32 -26 -10 -20 14 4 33 16 43 26 17 18
31 24 52 19 6 -1 6 2 2 6 -4 4 2 13 14 19 19 11 19 13 5 18 -12 5 -15 3 -10
-5z"/>
<path d="M2600 1200 c0 -5 4 -10 9 -10 6 0 13 5 16 10 3 6 -1 10 -9 10 -9 0
-16 -4 -16 -10z"/>
<path d="M2485 1130 c-3 -6 1 -7 9 -4 18 7 21 14 7 14 -6 0 -13 -4 -16 -10z"/>
<path d="M2480 1100 c-11 -7 -11 -10 -2 -10 7 0 10 -5 6 -11 -4 -8 0 -8 15 0
25 14 28 23 4 14 -11 -4 -14 -3 -9 5 9 14 6 15 -14 2z"/>
<path d="M1981 1074 c0 -11 3 -14 6 -6 3 7 2 16 -1 19 -3 4 -6 -2 -5 -13z"/>
<path d="M2411 1065 c-17 -9 -20 -14 -10 -17 8 -3 -6 -15 -36 -31 -27 -14 -46
-26 -41 -27 4 0 30 12 57 27 32 17 45 29 38 34 -8 4 -3 8 12 11 13 1 19 6 14
10 -6 3 -21 0 -34 -7z"/>
<path d="M2330 1050 c-13 -9 -13 -10 0 -10 13 0 13 -1 0 -10 -24 -15 -7 -18
20 -3 22 11 23 13 5 13 -17 0 -17 2 -5 10 8 5 11 10 5 10 -5 0 -17 -5 -25 -10z"/>
<path d="M2166 939 c1 -43 -6 -48 -61 -44 -36 3 -38 2 -18 -8 21 -11 19 -12
-18 -12 -45 0 -63 -18 -46 -45 9 -16 14 -15 50 11 22 16 44 29 49 29 5 0 43
20 86 45 42 25 71 45 64 45 -7 0 -10 5 -7 10 3 6 1 10 -4 10 -6 0 -11 -4 -11
-9 0 -5 -8 -8 -17 -7 -12 0 -17 -6 -17 -17 1 -12 -4 -17 -15 -15 -9 2 -15 11
-13 20 1 9 -3 18 -10 21 -9 3 -13 -7 -12 -34z m74 11 c0 -5 -2 -10 -4 -10 -3
0 -8 5 -11 10 -3 6 -1 10 4 10 6 0 11 -4 11 -10z m-50 -30 c0 -5 -4 -10 -10
-10 -5 0 -10 5 -10 10 0 6 5 10 10 10 6 0 10 -4 10 -10z m-114 -65 c-23 -17
-36 -19 -36 -6 0 5 10 12 23 14 12 2 24 5 27 5 3 1 -4 -5 -14 -13z"/>
<path d="M2285 930 c3 -6 1 -10 -6 -10 -7 0 -10 -3 -6 -6 3 -3 13 -2 22 4 16
8 16 9 1 15 -10 4 -15 3 -11 -3z"/>
<path d="M3580 921 c0 -6 4 -13 10 -16 6 -3 7 1 4 9 -7 18 -14 21 -14 7z"/>
<path d="M4100 850 c-52 -26 -134 -67 -181 -89 l-86 -42 -7 -140 c-4 -78 -5
-143 -3 -146 4 -4 42 40 122 142 17 22 29 42 28 47 -2 4 1 7 5 5 5 -1 36 34
70 78 34 44 82 106 107 138 26 31 45 57 43 56 -2 0 -46 -22 -98 -49z"/>
<path d="M2202 878 c5 -15 28 -23 28 -10 0 5 -7 13 -16 16 -10 4 -14 1 -12 -6z"/>
<path d="M1990 816 c0 -2 7 -7 16 -10 8 -3 12 -2 9 4 -6 10 -25 14 -25 6z"/>
<path d="M2045 770 c-3 -5 1 -10 9 -10 9 0 16 5 16 10 0 6 -4 10 -9 10 -6 0
-13 -4 -16 -10z"/>
<path d="M3621 514 c-107 -107 -192 -196 -190 -198 2 -3 40 4 84 15 44 11 89
21 100 23 11 2 57 11 102 21 l81 18 6 116 c4 64 8 135 11 159 3 23 4 42 2 41
-1 0 -89 -88 -196 -195z"/>
<path d="M3722 692 c-13 -2 -19 -8 -16 -14 4 -7 2 -8 -5 -4 -15 9 -112 -15
-105 -26 3 -4 -1 -5 -9 -2 -18 7 -297 -66 -297 -77 0 -9 42 -104 87 -196 25
-52 43 -68 43 -38 0 8 4 14 9 13 5 -2 78 68 163 155 85 86 152 157 149 157 -3
0 7 9 22 19 28 18 28 18 5 18 -12 -1 -33 -3 -46 -5z"/>
<path d="M2659 685 c0 -5 -2 -20 -5 -32 -5 -28 2 -30 15 -5 6 11 6 24 0 33 -5
7 -9 10 -10 4z"/>
<path d="M2714 431 c22 -94 44 -171 49 -171 5 0 107 65 227 144 120 80 229
150 242 158 26 14 -22 19 -378 33 l-181 7 41 -171z"/>
<path d="M3023 412 c-132 -86 -240 -158 -239 -159 3 -3 599 47 603 50 3 4
-110 253 -118 261 -3 3 -113 -65 -246 -152z"/>
<path d="M3648 343 c7 -3 16 -2 19 1 4 3 -2 6 -13 5 -11 0 -14 -3 -6 -6z"/>
<path d="M3505 315 c-126 -28 -391 -125 -373 -137 8 -5 1 -6 -17 -2 -24 4 -27
3 -15 -6 12 -9 10 -10 -9 -5 -17 5 -22 4 -16 -6 6 -9 2 -11 -13 -7 -12 4 -22
3 -22 -1 0 -4 -28 -16 -62 -27 -35 -10 -55 -20 -46 -22 27 -5 369 111 355 120
-9 6 -9 8 0 8 6 0 20 3 30 6 15 5 15 4 3 -5 -18 -13 -3 -13 25 -1 14 6 15 9 5
10 -8 0 46 20 120 44 203 64 210 70 35 31z m-315 -125 c-8 -5 -22 -9 -30 -9
-10 0 -8 3 5 9 27 12 43 12 25 0z"/>
<path d="M3056 264 c-154 -14 -282 -27 -285 -30 -3 -3 0 -13 6 -23 6 -9 23
-41 38 -69 l27 -51 46 18 c26 10 135 51 242 91 107 40 199 77 205 82 5 4 7 7
5 7 -3 -1 -131 -12 -284 -25z"/>
<path d="M2695 220 c-27 -9 -146 -46 -264 -81 l-214 -64 94 -6 94 -5 -105 -3
-105 -3 55 -14 c47 -12 78 -11 215 2 88 8 169 20 179 26 11 6 57 13 103 16
l83 5 -36 66 c-20 36 -39 69 -42 72 -4 4 -29 -1 -57 -11z m-107 -147 c-32 -2
-84 -2 -115 0 -32 2 -6 3 57 3 63 0 89 -1 58 -3z"/>
</g>
</svg>
