<?xml version="1.0" encoding="UTF-8"?>
<!DOCTYPE svg PUBLIC "-//W3C//DTD SVG 1.1//EN" "http://www.w3.org/Graphics/SVG/1.1/DTD/svg11.dtd">
<svg xmlns="http://www.w3.org/2000/svg" version="1.1" width="480px" height="474px" style="shape-rendering:geometricPrecision; text-rendering:geometricPrecision; image-rendering:optimizeQuality; fill-rule:evenodd; clip-rule:evenodd" xmlns:xlink="http://www.w3.org/1999/xlink">
<g><path style="opacity:1" fill="#9ab3d9" d="M 240.5,1.5 C 240.833,1.5 241.167,1.5 241.5,1.5C 244.534,3.01774 247.867,3.85107 251.5,4C 263.163,5.31777 274.83,6.48444 286.5,7.5C 291.586,7.6259 296.586,8.29257 301.5,9.5C 298.997,10.3705 296.33,11.0372 293.5,11.5C 285.664,10.7837 277.664,10.617 269.5,11C 264.991,9.03786 260.325,8.03786 255.5,8C 259.449,8.80678 259.449,9.30678 255.5,9.5C 255.5,10.5 255.5,11.5 255.5,12.5C 241.163,12.6666 226.829,12.4999 212.5,12C 219.278,8.91578 225.944,5.74911 232.5,2.5C 235.054,1.61197 237.721,1.27863 240.5,1.5 Z"/></g>
<g><path style="opacity:0.859" fill="#a6b4cc" d="M 241.5,1.5 C 256.732,2.77788 271.732,4.77788 286.5,7.5C 274.83,6.48444 263.163,5.31777 251.5,4C 247.867,3.85107 244.534,3.01774 241.5,1.5 Z"/></g>
<g><path style="opacity:1" fill="#99acc8" d="M 240.5,1.5 C 237.721,1.27863 235.054,1.61197 232.5,2.5C 229.482,2.33537 226.482,2.50204 223.5,3C 224.833,3.66667 224.833,4.33333 223.5,5C 211.772,5.29967 200.105,6.29967 188.5,8C 186.256,8.04958 184.589,8.88291 183.5,10.5C 179.452,10.6054 175.452,10.2721 171.5,9.5C 171.158,8.66175 170.492,8.32842 169.5,8.5C 191.295,5.35946 213.295,2.69279 235.5,0.5C 237.369,0.506808 239.036,0.840141 240.5,1.5 Z"/></g>
<g><path style="opacity:1" fill="#8ba3c9" d="M 171.5,9.5 C 175.452,10.2721 179.452,10.6054 183.5,10.5C 191.407,12.1432 199.407,12.9765 207.5,13C 206.944,13.3826 206.611,13.8826 206.5,14.5C 205.833,14.5 205.167,14.5 204.5,14.5C 184.34,20.6245 164.007,26.2912 143.5,31.5C 143.215,29.712 143.548,28.0453 144.5,26.5C 148.864,23.3476 152.531,19.6809 155.5,15.5C 155.62,14.4138 156.287,13.7472 157.5,13.5C 162.481,13.0111 167.147,11.6778 171.5,9.5 Z"/></g>
<g><path style="opacity:1" fill="#8f9fb6" d="M 169.5,8.5 C 170.492,8.32842 171.158,8.66175 171.5,9.5C 167.147,11.6778 162.481,13.0111 157.5,13.5C 156.287,13.7472 155.62,14.4138 155.5,15.5C 151.846,16.3283 148.513,17.8283 145.5,20C 141.886,20.9358 138.22,21.4358 134.5,21.5C 143.024,17.5931 151.69,13.7598 160.5,10C 163.393,8.85123 166.393,8.35123 169.5,8.5 Z"/></g>
<g><path style="opacity:1" fill="#b7d6fd" d="M 320.5,27.5 C 321.209,28.404 322.209,28.7373 323.5,28.5C 326.526,29.1736 329.526,30.0069 332.5,31C 328.939,32.2321 325.606,33.7321 322.5,35.5C 318.463,36.0653 314.797,37.3987 311.5,39.5C 299.489,42.7251 287.823,46.7251 276.5,51.5C 275.5,51.5 274.5,51.5 273.5,51.5C 272.65,38.8217 272.65,26.155 273.5,13.5C 289.195,18.177 304.861,22.8436 320.5,27.5 Z"/></g>
<g><path style="opacity:1" fill="#90aad0" d="M 232.5,2.5 C 225.944,5.74911 219.278,8.91578 212.5,12C 226.829,12.4999 241.163,12.6666 255.5,12.5C 255.5,11.5 255.5,10.5 255.5,9.5C 259.449,9.30678 259.449,8.80678 255.5,8C 260.325,8.03786 264.991,9.03786 269.5,11C 277.664,10.617 285.664,10.7837 293.5,11.5C 287.79,11.471 282.123,11.971 276.5,13C 291.815,17.6535 307.148,22.3202 322.5,27C 321.906,27.4643 321.239,27.631 320.5,27.5C 304.861,22.8436 289.195,18.177 273.5,13.5C 272.65,26.155 272.65,38.8217 273.5,51.5C 274.5,51.5 275.5,51.5 276.5,51.5C 275.378,53.5556 273.711,54.8889 271.5,55.5C 270.5,56.1667 269.5,56.8333 268.5,57.5C 268.631,56.6236 268.298,55.9569 267.5,55.5C 265.057,57.0553 262.39,57.722 259.5,57.5C 261.96,56.1092 264.626,54.9425 267.5,54C 239.042,49.5222 210.376,46.0222 181.5,43.5C 181.611,42.8826 181.944,42.3826 182.5,42C 172.722,38.7025 162.388,36.3691 151.5,35C 148.878,33.5252 146.212,32.3586 143.5,31.5C 164.007,26.2912 184.34,20.6245 204.5,14.5C 197.939,22.9102 191.106,31.2436 184,39.5C 183.517,40.448 183.351,41.448 183.5,42.5C 210.867,45.1708 238.2,48.1708 265.5,51.5C 266.786,51.1485 267.619,50.4818 268,49.5C 269.285,49.9504 270.452,50.6171 271.5,51.5C 271.774,38.8715 271.774,26.2048 271.5,13.5C 254.497,13.3334 237.497,13.5001 220.5,14C 215.914,14.1971 211.414,14.6971 207,15.5C 206.601,15.2716 206.435,14.9382 206.5,14.5C 206.611,13.8826 206.944,13.3826 207.5,13C 199.407,12.9765 191.407,12.1432 183.5,10.5C 184.589,8.88291 186.256,8.04958 188.5,8C 200.105,6.29967 211.772,5.29967 223.5,5C 224.833,4.33333 224.833,3.66667 223.5,3C 226.482,2.50204 229.482,2.33537 232.5,2.5 Z"/></g>
<g><path style="opacity:1" fill="#a5bada" d="M 303.5,10.5 C 312.659,13.4415 321.659,16.7748 330.5,20.5C 327.105,20.5775 323.771,20.5775 320.5,20.5C 317.5,19.1667 314.5,17.8333 311.5,16.5C 308.222,15.1911 305.222,13.3578 302.5,11C 302.728,10.6012 303.062,10.4346 303.5,10.5 Z"/></g>
<g><path style="opacity:1" fill="#a9c6f1" d="M 301.5,9.5 C 302.492,9.32842 303.158,9.66175 303.5,10.5C 303.062,10.4346 302.728,10.6012 302.5,11C 305.222,13.3578 308.222,15.1911 311.5,16.5C 316.597,20.2249 321.93,23.7249 327.5,27C 328.696,27.6543 328.696,28.1543 327.5,28.5C 326.005,27.2947 324.672,27.2947 323.5,28.5C 322.209,28.7373 321.209,28.404 320.5,27.5C 321.239,27.631 321.906,27.4643 322.5,27C 307.148,22.3202 291.815,17.6535 276.5,13C 282.123,11.971 287.79,11.471 293.5,11.5C 296.33,11.0372 298.997,10.3705 301.5,9.5 Z"/></g>
<g><path style="opacity:1" fill="#90acd5" d="M 311.5,16.5 C 314.5,17.8333 317.5,19.1667 320.5,20.5C 324.928,23.8911 329.594,27.0578 334.5,30C 341.2,30.286 347.867,30.786 354.5,31.5C 355.833,31.5 357.167,31.5 358.5,31.5C 358.833,31.5 359.167,31.5 359.5,31.5C 359.5,31.8333 359.5,32.1667 359.5,32.5C 352.646,32.176 345.979,32.5093 339.5,33.5C 338.761,33.369 338.094,33.5357 337.5,34C 338.451,34.7175 338.617,35.5509 338,36.5C 336.748,34.9991 335.748,33.3325 335,31.5C 331.114,33.6804 326.947,35.0138 322.5,35.5C 325.606,33.7321 328.939,32.2321 332.5,31C 329.526,30.0069 326.526,29.1736 323.5,28.5C 324.672,27.2947 326.005,27.2947 327.5,28.5C 328.696,28.1543 328.696,27.6543 327.5,27C 321.93,23.7249 316.597,20.2249 311.5,16.5 Z"/></g>
<g><path style="opacity:0.827" fill="#a7b6cf" d="M 332.5,21.5 C 341.477,24.2661 350.144,27.5994 358.5,31.5C 357.167,31.5 355.833,31.5 354.5,31.5C 346.542,28.2404 339.209,24.9071 332.5,21.5 Z"/></g>
<g><path style="opacity:1" fill="#a4c0ea" d="M 204.5,14.5 C 205.167,14.5 205.833,14.5 206.5,14.5C 206.435,14.9382 206.601,15.2716 207,15.5C 211.414,14.6971 215.914,14.1971 220.5,14C 237.497,13.5001 254.497,13.3334 271.5,13.5C 271.774,26.2048 271.774,38.8715 271.5,51.5C 270.452,50.6171 269.285,49.9504 268,49.5C 267.619,50.4818 266.786,51.1485 265.5,51.5C 238.2,48.1708 210.867,45.1708 183.5,42.5C 183.351,41.448 183.517,40.448 184,39.5C 191.106,31.2436 197.939,22.9102 204.5,14.5 Z"/></g>
<g><path style="opacity:1" fill="#aac4ee" d="M 330.5,20.5 C 331.492,20.3284 332.158,20.6618 332.5,21.5C 339.209,24.9071 346.542,28.2404 354.5,31.5C 347.867,30.786 341.2,30.286 334.5,30C 329.594,27.0578 324.928,23.8911 320.5,20.5C 323.771,20.5775 327.105,20.5775 330.5,20.5 Z"/></g>
<g><path style="opacity:1" fill="#b7d7fd" d="M 339.5,33.5 C 344.152,37.8312 349.486,41.1645 355.5,43.5C 363.824,49.3317 372.491,54.6651 381.5,59.5C 383.253,61.2225 385.253,62.7225 387.5,64C 377.483,64.8322 367.483,64.6656 357.5,63.5C 356.291,61.0592 354.624,59.0592 352.5,57.5C 353.441,59.4664 354.441,61.4664 355.5,63.5C 351.599,63.858 347.599,63.858 343.5,63.5C 334.954,60.8477 326.287,59.8477 317.5,60.5C 315.265,60.7947 313.265,60.4614 311.5,59.5C 313.199,59.6602 314.866,59.4935 316.5,59C 303.768,57.1559 291.102,54.9892 278.5,52.5C 289.658,48.3066 300.658,43.9733 311.5,39.5C 314.843,38.7761 318.176,37.9428 321.5,37C 322.056,36.6174 322.389,36.1174 322.5,35.5C 326.947,35.0138 331.114,33.6804 335,31.5C 335.748,33.3325 336.748,34.9991 338,36.5C 338.617,35.5509 338.451,34.7175 337.5,34C 338.094,33.5357 338.761,33.369 339.5,33.5 Z"/></g>
<g><path style="opacity:1" fill="#b1cffa" d="M 339.5,33.5 C 345.979,32.5093 352.646,32.176 359.5,32.5C 362.5,35.8333 365.5,39.1667 368.5,42.5C 368.047,43.4584 367.381,44.2917 366.5,45C 367.973,45.7096 368.64,46.8762 368.5,48.5C 364,47.3512 359.667,45.6845 355.5,43.5C 350.511,39.6692 345.178,36.3359 339.5,33.5 Z"/></g>
<g><path style="opacity:1" fill="#8095b6" d="M 155.5,15.5 C 152.531,19.6809 148.864,23.3476 144.5,26.5C 143.548,28.0453 143.215,29.712 143.5,31.5C 141.468,33.3532 139.135,34.8532 136.5,36C 128.687,48.1347 120.52,59.968 112,71.5C 111.428,75.1632 110.262,78.4965 108.5,81.5C 110.638,75.1862 109.638,74.3529 105.5,79C 104.833,79.6667 104.167,79.6667 103.5,79C 105.539,76.6255 107.872,74.6255 110.5,73C 101.018,68.9226 91.3511,65.4226 81.5,62.5C 81.8176,65.4815 80.8176,67.8148 78.5,69.5C 78.67,68.1779 78.3366,67.0113 77.5,66C 81.8829,61.0512 85.0496,55.5512 87,49.5C 84.9999,52.6657 82.4999,55.3324 79.5,57.5C 84.1259,50.8738 89.1259,44.5405 94.5,38.5C 107.534,32.3215 120.867,26.6548 134.5,21.5C 138.22,21.4358 141.886,20.9358 145.5,20C 148.513,17.8283 151.846,16.3283 155.5,15.5 Z"/></g>
<g><path style="opacity:1" fill="#93b0d9" d="M 339.5,33.5 C 345.178,36.3359 350.511,39.6692 355.5,43.5C 349.486,41.1645 344.152,37.8312 339.5,33.5 Z"/></g>
<g><path style="opacity:1" fill="#95b2d9" d="M 322.5,35.5 C 322.389,36.1174 322.056,36.6174 321.5,37C 318.176,37.9428 314.843,38.7761 311.5,39.5C 314.797,37.3987 318.463,36.0653 322.5,35.5 Z"/></g>
<g><path style="opacity:1" fill="#7a8fb0" d="M 94.5,38.5 C 101.051,38.3687 107.551,37.702 114,36.5C 115.366,36.7065 116.699,37.0398 118,37.5C 119.651,36.2576 121.485,35.4243 123.5,35C 126.557,34.7435 129.557,34.2435 132.5,33.5C 132.833,33.8333 133.167,34.1667 133.5,34.5C 118.652,42.5204 103.485,49.8537 88,56.5C 87.5,56.3333 87,56.1667 86.5,56C 89.3498,50.2364 92.0164,44.403 94.5,38.5 Z"/></g>
<g><path style="opacity:1" fill="#a3b6d3" d="M 359.5,31.5 C 369.105,38.8053 378.105,46.8053 386.5,55.5C 383.025,53.3901 379.358,51.5568 375.5,50C 373.667,47.0015 371.334,44.5015 368.5,42.5C 365.5,39.1667 362.5,35.8333 359.5,32.5C 359.5,32.1667 359.5,31.8333 359.5,31.5 Z"/></g>
<g><path style="opacity:1" fill="#a6c1ec" d="M 181.5,43.5 C 210.376,46.0222 239.042,49.5222 267.5,54C 264.626,54.9425 261.96,56.1092 259.5,57.5C 255.233,58.2556 251.233,59.589 247.5,61.5C 236.483,64.3939 225.816,68.0605 215.5,72.5C 209.598,72.5333 203.598,73.3666 197.5,75C 198.167,75.3333 198.833,75.6667 199.5,76C 197.002,77.9818 194.335,79.4818 191.5,80.5C 180.596,83.1099 169.93,86.6099 159.5,91C 160.094,91.4643 160.761,91.631 161.5,91.5C 160.791,92.404 159.791,92.7373 158.5,92.5C 157.016,91.5267 156.516,90.1933 157,88.5C 161.393,81.048 165.226,73.3813 168.5,65.5C 173.322,58.5319 177.656,51.1986 181.5,43.5 Z"/></g>
<g><path style="opacity:1" fill="#a9c4ef" d="M 368.5,42.5 C 371.334,44.5015 373.667,47.0015 375.5,50C 379.358,51.5568 383.025,53.3901 386.5,55.5C 387.167,55.5 387.5,55.8333 387.5,56.5C 390.565,59.2466 392.899,62.58 394.5,66.5C 389.895,62.3977 385.395,58.0643 381,53.5C 381.546,56.0933 383.046,58.2599 385.5,60C 384.181,60.195 382.847,60.0283 381.5,59.5C 372.491,54.6651 363.824,49.3317 355.5,43.5C 359.667,45.6845 364,47.3512 368.5,48.5C 368.64,46.8762 367.973,45.7096 366.5,45C 367.381,44.2917 368.047,43.4584 368.5,42.5 Z"/></g>
<g><path style="opacity:1" fill="#92acd1" d="M 168.5,65.5 C 165.226,73.3813 161.393,81.048 157,88.5C 156.516,90.1933 157.016,91.5267 158.5,92.5C 157.957,92.56 157.624,92.8933 157.5,93.5C 159.565,94.8567 161.565,96.19 163.5,97.5C 160.759,97.2927 158.426,96.2927 156.5,94.5C 156.291,93.0783 155.791,91.745 155,90.5C 154.667,91.1667 154.333,91.8333 154,92.5C 140.991,85.9142 128.158,79.2475 115.5,72.5C 119.832,69.4994 124.498,67.3327 129.5,66C 144.91,58.7061 160.41,51.8727 176,45.5C 176.692,46.0253 177.192,46.6919 177.5,47.5C 174.492,53.5168 171.492,59.5168 168.5,65.5 Z"/></g>
<g><path style="opacity:1" fill="#96b5db" d="M 352.5,57.5 C 348.286,53.0523 345.12,48.0523 343,42.5C 346.812,47.1344 349.979,52.1344 352.5,57.5 Z"/></g>
<g><path style="opacity:1" fill="#c2e3fd" d="M 311.5,59.5 C 313.265,60.4614 315.265,60.7947 317.5,60.5C 326.143,61.7183 334.809,62.7183 343.5,63.5C 348,64.6572 352.667,65.6572 357.5,66.5C 358.098,67.7946 358.598,69.1279 359,70.5C 359.417,69.244 360.25,68.5774 361.5,68.5C 362.911,70.914 364.911,72.5806 367.5,73.5C 380.578,85.5809 394.244,96.9142 408.5,107.5C 409.29,108.794 410.29,109.961 411.5,111C 410.142,111.934 408.808,112.768 407.5,113.5C 403.521,113.742 399.854,114.742 396.5,116.5C 390.467,117.621 384.467,118.954 378.5,120.5C 377.558,120.392 376.725,120.059 376,119.5C 371.861,106.083 367.527,92.7494 363,79.5C 365.996,92.4952 369.829,105.329 374.5,118C 374.333,118.5 374.167,119 374,119.5C 372.67,118.418 371.17,117.751 369.5,117.5C 366.197,113.844 362.197,111.178 357.5,109.5C 353.049,105.39 348.049,102.056 342.5,99.5C 340.914,98.5868 339.414,98.5868 338,99.5C 336.847,97.1824 335.347,95.1824 333.5,93.5C 315.693,80.4263 297.359,68.093 278.5,56.5C 277.357,54.8993 278.024,54.2326 280.5,54.5C 290.837,56.2785 301.17,57.9452 311.5,59.5 Z"/></g>
<g><path style="opacity:1" fill="#b7d6fd" d="M 271.5,55.5 C 269.348,83.1747 267.014,110.841 264.5,138.5C 264.503,141.025 264.837,143.359 265.5,145.5C 265.795,147.735 265.461,149.735 264.5,151.5C 264.657,150.127 264.49,148.793 264,147.5C 263.479,152.852 262.813,158.185 262,163.5C 255.898,157.553 249.398,152.22 242.5,147.5C 241.089,145.086 239.089,143.419 236.5,142.5C 229.45,135.116 221.783,128.449 213.5,122.5C 212.833,121.5 212.167,120.5 211.5,119.5C 211.709,118.078 212.209,116.745 213,115.5C 231.958,96.4735 250.458,77.1402 268.5,57.5C 269.5,56.8333 270.5,56.1667 271.5,55.5 Z"/></g>
<g><path style="opacity:1" fill="#95b4d4" d="M 317.5,60.5 C 326.287,59.8477 334.954,60.8477 343.5,63.5C 334.809,62.7183 326.143,61.7183 317.5,60.5 Z"/></g>
<g><path style="opacity:1" fill="#a4c1eb" d="M 268.5,57.5 C 250.458,77.1402 231.958,96.4735 213,115.5C 212.209,116.745 211.709,118.078 211.5,119.5C 196.282,111.914 180.282,104.58 163.5,97.5C 161.565,96.19 159.565,94.8567 157.5,93.5C 157.624,92.8933 157.957,92.56 158.5,92.5C 159.791,92.7373 160.791,92.404 161.5,91.5C 171.713,88.2091 181.713,84.5425 191.5,80.5C 194.335,79.4818 197.002,77.9818 199.5,76C 198.833,75.6667 198.167,75.3333 197.5,75C 203.598,73.3666 209.598,72.5333 215.5,72.5C 226.517,69.6061 237.184,65.9395 247.5,61.5C 251.233,59.589 255.233,58.2556 259.5,57.5C 262.39,57.722 265.057,57.0553 267.5,55.5C 268.298,55.9569 268.631,56.6236 268.5,57.5 Z"/></g>
<g><path style="opacity:1" fill="#b7d6fd" d="M 279.5,63.5 C 281.95,65.6291 283.617,68.2957 284.5,71.5C 286.835,77.5145 290.169,82.8478 294.5,87.5C 304.582,101.988 313.915,116.988 322.5,132.5C 321.736,157.626 320.736,182.959 319.5,208.5C 312.078,202.399 304.411,196.732 296.5,191.5C 286.412,182.41 275.745,174.077 264.5,166.5C 266.331,164.224 268.664,162.391 271.5,161C 269.063,161.203 266.729,162.037 264.5,163.5C 264.142,159.599 264.142,155.599 264.5,151.5C 265.461,149.735 265.795,147.735 265.5,145.5C 267.841,115.444 270.674,85.4439 274,55.5C 275.306,58.6207 277.14,61.2874 279.5,63.5 Z"/></g>
<g><path style="opacity:1" fill="#8da9d1" d="M 247.5,61.5 C 237.184,65.9395 226.517,69.6061 215.5,72.5C 225.816,68.0605 236.483,64.3939 247.5,61.5 Z"/></g>
<g><path style="opacity:1" fill="#9dbae0" d="M 394.5,66.5 C 399.175,70.2677 404.009,73.9343 409,77.5C 415.288,85.1153 420.788,93.1153 425.5,101.5C 415.172,91.0053 405.006,80.3386 395,69.5C 394.617,70.056 394.117,70.3893 393.5,70.5C 392.972,69.2794 392.305,68.1127 391.5,67C 381.167,66.3333 370.833,66.3333 360.5,67C 361.056,67.3826 361.389,67.8826 361.5,68.5C 360.25,68.5774 359.417,69.244 359,70.5C 358.598,69.1279 358.098,67.7946 357.5,66.5C 352.667,65.6572 348,64.6572 343.5,63.5C 347.599,63.858 351.599,63.858 355.5,63.5C 354.441,61.4664 353.441,59.4664 352.5,57.5C 354.624,59.0592 356.291,61.0592 357.5,63.5C 367.483,64.6656 377.483,64.8322 387.5,64C 385.253,62.7225 383.253,61.2225 381.5,59.5C 382.847,60.0283 384.181,60.195 385.5,60C 383.046,58.2599 381.546,56.0933 381,53.5C 385.395,58.0643 389.895,62.3977 394.5,66.5 Z"/></g>
<g><path style="opacity:1" fill="#c2e4fe" d="M 278.5,56.5 C 296.307,69.5737 314.641,81.907 333.5,93.5C 335.347,95.1824 336.847,97.1824 338,99.5C 339.414,98.5868 340.914,98.5868 342.5,99.5C 346.976,103.575 351.976,106.908 357.5,109.5C 361.148,112.66 365.148,115.327 369.5,117.5C 370.8,118.827 372.133,120.16 373.5,121.5C 360.272,124.927 346.939,127.927 333.5,130.5C 332.833,130.5 332.5,130.833 332.5,131.5C 329.14,131.616 325.807,131.949 322.5,132.5C 313.915,116.988 304.582,101.988 294.5,87.5C 291.664,81.8222 288.331,76.4888 284.5,71.5C 283.617,68.2957 281.95,65.6291 279.5,63.5C 279.038,61.2433 278.038,59.2433 276.5,57.5C 276.957,56.7025 277.624,56.3691 278.5,56.5 Z"/></g>
<g><path style="opacity:1" fill="#badbfc" d="M 393.5,70.5 C 394.41,73.9922 396.076,76.9922 398.5,79.5C 400.395,85.6183 403.061,91.2849 406.5,96.5C 407.042,99.9122 408.375,102.912 410.5,105.5C 410.5,106.833 409.833,107.5 408.5,107.5C 405.291,103.555 401.624,100.055 397.5,97C 398.624,96.7508 399.624,96.2508 400.5,95.5C 400.167,95.1667 399.833,94.8333 399.5,94.5C 398.549,95.3256 397.549,95.4922 396.5,95C 393.855,91.4717 390.522,89.1383 386.5,88C 385.174,84.674 382.841,82.3407 379.5,81C 379.833,80.6667 380.167,80.3333 380.5,80C 379.451,79.5078 378.451,79.6744 377.5,80.5C 374.131,78.1162 370.797,75.7829 367.5,73.5C 364.911,72.5806 362.911,70.914 361.5,68.5C 361.389,67.8826 361.056,67.3826 360.5,67C 370.833,66.3333 381.167,66.3333 391.5,67C 392.305,68.1127 392.972,69.2794 393.5,70.5 Z"/></g>
<g><path style="opacity:1" fill="#97b7d3" d="M 278.5,56.5 C 297.359,68.093 315.693,80.4263 333.5,93.5C 314.641,81.907 296.307,69.5737 278.5,56.5 Z"/></g>
<g><path style="opacity:1" fill="#8a96a9" d="M 79.5,57.5 C 75.32,65.6788 69.9867,73.0122 63.5,79.5C 62.609,80.1098 61.609,80.4431 60.5,80.5C 66.4858,72.5172 72.8191,64.8506 79.5,57.5 Z"/></g>
<g><path style="opacity:1" fill="#8ba3c7" d="M 143.5,31.5 C 146.212,32.3586 148.878,33.5252 151.5,35C 162.388,36.3691 172.722,38.7025 182.5,42C 181.944,42.3826 181.611,42.8826 181.5,43.5C 177.656,51.1986 173.322,58.5319 168.5,65.5C 171.492,59.5168 174.492,53.5168 177.5,47.5C 177.192,46.6919 176.692,46.0253 176,45.5C 160.41,51.8727 144.91,58.7061 129.5,66C 124.498,67.3327 119.832,69.4994 115.5,72.5C 128.158,79.2475 140.991,85.9142 154,92.5C 154.333,91.8333 154.667,91.1667 155,90.5C 155.791,91.745 156.291,93.0783 156.5,94.5C 155.25,94.5774 154.417,95.244 154,96.5C 152.274,105.074 150.108,113.408 147.5,121.5C 149.332,112.845 150.832,104.179 152,95.5C 135.883,105.14 119.717,114.64 103.5,124C 98.7442,126.699 94.4109,129.866 90.5,133.5C 89.6618,133.158 89.3284,132.492 89.5,131.5C 90.1049,128.873 90.6049,126.207 91,123.5C 96.6275,109.266 102.461,95.266 108.5,81.5C 110.262,78.4965 111.428,75.1632 112,71.5C 120.52,59.968 128.687,48.1347 136.5,36C 139.135,34.8532 141.468,33.3532 143.5,31.5 Z"/></g>
<g><path style="opacity:1" fill="#95b5d5" d="M 284.5,71.5 C 288.331,76.4888 291.664,81.8222 294.5,87.5C 290.169,82.8478 286.835,77.5145 284.5,71.5 Z"/></g>
<g><path style="opacity:1" fill="#95b3d9" d="M 311.5,39.5 C 300.658,43.9733 289.658,48.3066 278.5,52.5C 291.102,54.9892 303.768,57.1559 316.5,59C 314.866,59.4935 313.199,59.6602 311.5,59.5C 301.17,57.9452 290.837,56.2785 280.5,54.5C 278.024,54.2326 277.357,54.8993 278.5,56.5C 277.624,56.3691 276.957,56.7025 276.5,57.5C 278.038,59.2433 279.038,61.2433 279.5,63.5C 277.14,61.2874 275.306,58.6207 274,55.5C 270.674,85.4439 267.841,115.444 265.5,145.5C 264.837,143.359 264.503,141.025 264.5,138.5C 267.014,110.841 269.348,83.1747 271.5,55.5C 273.711,54.8889 275.378,53.5556 276.5,51.5C 287.823,46.7251 299.489,42.7251 311.5,39.5 Z"/></g>
<g><path style="opacity:1" fill="#798dab" d="M 108.5,81.5 C 102.461,95.266 96.6275,109.266 91,123.5C 90.6049,126.207 90.1049,128.873 89.5,131.5C 88.5084,131.328 87.8417,131.662 87.5,132.5C 78.0812,127.373 69.2479,121.373 61,114.5C 55.2575,145.402 49.5909,176.402 44,207.5C 45.4691,192.807 47.4691,178.14 50,163.5C 53.0497,148.534 55.883,133.534 58.5,118.5C 58.0302,117.537 57.3635,117.537 56.5,118.5C 56.7031,116.956 57.3698,115.622 58.5,114.5C 53.6817,113.279 49.015,111.946 44.5,110.5C 49.8333,111.167 55.1667,111.833 60.5,112.5C 65.7058,97.7648 71.7058,83.4314 78.5,69.5C 80.8176,67.8148 81.8176,65.4815 81.5,62.5C 91.3511,65.4226 101.018,68.9226 110.5,73C 107.872,74.6255 105.539,76.6255 103.5,79C 104.167,79.6667 104.833,79.6667 105.5,79C 109.638,74.3529 110.638,75.1862 108.5,81.5 Z"/></g>
<g><path style="opacity:1" fill="#8da9d2" d="M 191.5,80.5 C 181.713,84.5425 171.713,88.2091 161.5,91.5C 160.761,91.631 160.094,91.4643 159.5,91C 169.93,86.6099 180.596,83.1099 191.5,80.5 Z"/></g>
<g><path style="opacity:1" fill="#677995" d="M 78.5,69.5 C 71.7058,83.4314 65.7058,97.7648 60.5,112.5C 55.1667,111.833 49.8333,111.167 44.5,110.5C 43.9094,109.849 43.2427,109.182 42.5,108.5C 50.1758,99.3268 58.0092,90.3268 66,81.5C 66.2812,79.0953 65.6146,79.0953 64,81.5C 63.5357,80.9056 63.369,80.2389 63.5,79.5C 69.9867,73.0122 75.32,65.6788 79.5,57.5C 82.4999,55.3324 84.9999,52.6657 87,49.5C 85.0496,55.5512 81.8829,61.0512 77.5,66C 78.3366,67.0113 78.67,68.1779 78.5,69.5 Z"/></g>
<g><path style="opacity:1" fill="#93b1d8" d="M 398.5,79.5 C 401.955,84.746 404.622,90.4126 406.5,96.5C 403.061,91.2849 400.395,85.6183 398.5,79.5 Z"/></g>
<g><path style="opacity:1" fill="#b6d5fb" d="M 425.5,101.5 C 429.874,105.872 433.874,110.539 437.5,115.5C 429.521,114.038 421.521,112.704 413.5,111.5C 413.346,109.03 412.346,107.03 410.5,105.5C 408.375,102.912 407.042,99.9122 406.5,96.5C 404.622,90.4126 401.955,84.746 398.5,79.5C 396.076,76.9922 394.41,73.9922 393.5,70.5C 394.117,70.3893 394.617,70.056 395,69.5C 405.006,80.3386 415.172,91.0053 425.5,101.5 Z"/></g>
<g><path style="opacity:1" fill="#a9caea" d="M 367.5,73.5 C 370.797,75.7829 374.131,78.1162 377.5,80.5C 378.451,79.6744 379.451,79.5078 380.5,80C 380.167,80.3333 379.833,80.6667 379.5,81C 382.841,82.3407 385.174,84.674 386.5,88C 390.522,89.1383 393.855,91.4717 396.5,95C 397.549,95.4922 398.549,95.3256 399.5,94.5C 399.833,94.8333 400.167,95.1667 400.5,95.5C 399.624,96.2508 398.624,96.7508 397.5,97C 401.624,100.055 405.291,103.555 408.5,107.5C 394.244,96.9142 380.578,85.5809 367.5,73.5 Z"/></g>
<g><path style="opacity:1" fill="#93add2" d="M 147.5,121.5 C 145.916,130.004 144.249,138.504 142.5,147C 143.714,149.568 143.381,151.735 141.5,153.5C 141.833,153.833 142.167,154.167 142.5,154.5C 146.392,151.387 150.726,149.053 155.5,147.5C 156.107,147.624 156.44,147.957 156.5,148.5C 151.362,150.569 146.695,153.402 142.5,157C 143.357,159.019 144.691,160.519 146.5,161.5C 145.504,161.414 144.671,161.748 144,162.5C 142.951,160.616 141.451,159.282 139.5,158.5C 140.847,153.703 140.847,152.37 139.5,154.5C 137.473,154.662 135.473,154.495 133.5,154C 119.149,147.012 104.816,140.179 90.5,133.5C 94.4109,129.866 98.7442,126.699 103.5,124C 119.717,114.64 135.883,105.14 152,95.5C 150.832,104.179 149.332,112.845 147.5,121.5 Z"/></g>
<g><path style="opacity:1" fill="#9ab4db" d="M 156.5,94.5 C 158.426,96.2927 160.759,97.2927 163.5,97.5C 180.282,104.58 196.282,111.914 211.5,119.5C 212.167,120.5 212.833,121.5 213.5,122.5C 211.983,122.489 210.816,121.823 210,120.5C 209.617,121.056 209.117,121.389 208.5,121.5C 208.44,120.957 208.107,120.624 207.5,120.5C 190.646,129.751 174.98,138.251 160.5,146C 159.773,147.399 159.273,148.899 159,150.5C 158.292,149.619 157.458,148.953 156.5,148.5C 156.44,147.957 156.107,147.624 155.5,147.5C 150.726,149.053 146.392,151.387 142.5,154.5C 142.167,154.167 141.833,153.833 141.5,153.5C 143.381,151.735 143.714,149.568 142.5,147C 144.249,138.504 145.916,130.004 147.5,121.5C 150.108,113.408 152.274,105.074 154,96.5C 154.417,95.244 155.25,94.5774 156.5,94.5 Z"/></g>
<g><path style="opacity:1" fill="#94b5d0" d="M 342.5,99.5 C 348.049,102.056 353.049,105.39 357.5,109.5C 351.976,106.908 346.976,103.575 342.5,99.5 Z"/></g>
<g><path style="opacity:1" fill="#95b5d0" d="M 357.5,109.5 C 362.197,111.178 366.197,113.844 369.5,117.5C 365.148,115.327 361.148,112.66 357.5,109.5 Z"/></g>
<g><path style="opacity:1" fill="#7c8ca4" d="M 63.5,79.5 C 63.369,80.2389 63.5357,80.9056 64,81.5C 65.6146,79.0953 66.2812,79.0953 66,81.5C 58.0092,90.3268 50.1758,99.3268 42.5,108.5C 43.2427,109.182 43.9094,109.849 44.5,110.5C 43.1667,110.5 41.8333,110.5 40.5,110.5C 38.2272,120.621 34.8938,130.288 30.5,139.5C 32.047,133.772 33.547,128.105 35,122.5C 30.4715,130.895 25.9715,139.228 21.5,147.5C 21.5,146.5 21.5,145.5 21.5,144.5C 27.0479,131.735 32.8812,119.069 39,106.5C 46.4083,97.9351 53.575,89.2684 60.5,80.5C 61.609,80.4431 62.609,80.1098 63.5,79.5 Z"/></g>
<g><path style="opacity:1" fill="#95b3d0" d="M 407.5,113.5 C 404.146,115.258 400.479,116.258 396.5,116.5C 399.854,114.742 403.521,113.742 407.5,113.5 Z"/></g>
<g><path style="opacity:1" fill="#63758d" d="M 44.5,110.5 C 49.015,111.946 53.6817,113.279 58.5,114.5C 57.3698,115.622 56.7031,116.956 56.5,118.5C 48.4909,127.993 40.8242,137.826 33.5,148C 32.3999,148.432 31.7332,147.932 31.5,146.5C 30.7766,144.218 30.4433,141.884 30.5,139.5C 34.8938,130.288 38.2272,120.621 40.5,110.5C 41.8333,110.5 43.1667,110.5 44.5,110.5 Z"/></g>
<g><path style="opacity:1" fill="#97b5d4" d="M 396.5,116.5 C 390.527,118.548 384.527,120.715 378.5,123C 380.167,124.667 381.833,126.333 383.5,128C 381.255,127.805 379.422,126.638 378,124.5C 378.095,145.173 378.762,165.839 380,186.5C 384.395,184.777 388.895,183.443 393.5,182.5C 389.39,184.601 385.056,186.434 380.5,188C 383.407,191.395 386.073,194.895 388.5,198.5C 385.168,196 382.334,193 380,189.5C 379.224,192.233 378.39,194.233 377.5,195.5C 377.838,192.989 377.838,190.655 377.5,188.5C 373.017,190.745 368.35,192.411 363.5,193.5C 367.937,191.065 372.604,188.899 377.5,187C 369.888,179.557 362.555,172.057 355.5,164.5C 363.411,170.906 370.911,177.906 378,185.5C 377.501,165.19 376.834,144.856 376,124.5C 375.107,123.919 374.107,123.585 373,123.5C 360.667,126.167 348.333,128.833 336,131.5C 334.93,131.472 334.097,131.139 333.5,130.5C 346.939,127.927 360.272,124.927 373.5,121.5C 372.133,120.16 370.8,118.827 369.5,117.5C 371.17,117.751 372.67,118.418 374,119.5C 374.167,119 374.333,118.5 374.5,118C 369.829,105.329 365.996,92.4952 363,79.5C 367.527,92.7494 371.861,106.083 376,119.5C 376.725,120.059 377.558,120.392 378.5,120.5C 384.467,118.954 390.467,117.621 396.5,116.5 Z"/></g>
<g><path style="opacity:1" fill="#9cb8e0" d="M 208.5,121.5 C 205.647,141.028 202.314,160.362 198.5,179.5C 198.631,178.761 198.464,178.094 198,177.5C 196.627,182.072 195.794,186.739 195.5,191.5C 193.806,192.686 192.139,192.519 190.5,191C 175.958,180.902 161.291,171.069 146.5,161.5C 144.691,160.519 143.357,159.019 142.5,157C 146.695,153.402 151.362,150.569 156.5,148.5C 157.458,148.953 158.292,149.619 159,150.5C 159.273,148.899 159.773,147.399 160.5,146C 174.98,138.251 190.646,129.751 207.5,120.5C 208.107,120.624 208.44,120.957 208.5,121.5 Z"/></g>
<g><path style="opacity:1" fill="#c1e2fe" d="M 355.5,164.5 C 347.44,155.438 338.774,147.105 329.5,139.5C 328.04,137.537 326.373,135.704 324.5,134C 327.457,133.721 330.123,132.887 332.5,131.5C 332.5,130.833 332.833,130.5 333.5,130.5C 334.097,131.139 334.93,131.472 336,131.5C 348.333,128.833 360.667,126.167 373,123.5C 374.107,123.585 375.107,123.919 376,124.5C 376.834,144.856 377.501,165.19 378,185.5C 370.911,177.906 363.411,170.906 355.5,164.5 Z"/></g>
<g><path style="opacity:1" fill="#b7d6fc" d="M 439.5,117.5 C 451.139,141.75 461.805,166.417 471.5,191.5C 467.5,186.5 463.5,181.5 459.5,176.5C 463.095,183.362 467.428,189.696 472.5,195.5C 472.5,195.833 472.5,196.167 472.5,196.5C 470.784,196.371 469.117,196.038 467.5,195.5C 466.284,193.549 464.618,192.049 462.5,191C 457.594,187.911 452.594,185.077 447.5,182.5C 447.027,181.094 446.027,180.427 444.5,180.5C 440.121,176.64 435.287,173.306 430,170.5C 429.584,166.471 428.417,162.804 426.5,159.5C 424.96,157.162 424.294,154.495 424.5,151.5C 422.348,140.542 419.681,129.709 416.5,119C 416.667,118.5 416.833,118 417,117.5C 417.701,119.762 418.868,120.762 420.5,120.5C 419.167,118.5 417.833,116.5 416.5,114.5C 417.333,114.167 418.167,113.833 419,113.5C 425.834,114.9 432.667,116.234 439.5,117.5 Z"/></g>
<g><path style="opacity:1" fill="#bfe1fd" d="M 424.5,151.5 C 424.294,154.495 424.96,157.162 426.5,159.5C 426.75,162.214 426.917,164.881 427,167.5C 425.223,165.21 423.056,163.543 420.5,162.5C 422.811,165.147 425.144,167.814 427.5,170.5C 425.255,171.208 423.255,172.208 421.5,173.5C 419.102,173.259 417.102,173.926 415.5,175.5C 407.821,177.061 400.488,179.394 393.5,182.5C 388.895,183.443 384.395,184.777 380,186.5C 378.762,165.839 378.095,145.173 378,124.5C 379.422,126.638 381.255,127.805 383.5,128C 381.833,126.333 380.167,124.667 378.5,123C 384.527,120.715 390.527,118.548 396.5,116.5C 400.479,116.258 404.146,115.258 407.5,113.5C 409.262,113.643 410.929,113.309 412.5,112.5C 412.833,113 413.167,113.5 413.5,114C 416.799,126.721 420.466,139.221 424.5,151.5 Z"/></g>
<g><path style="opacity:1" fill="#94b3d6" d="M 410.5,105.5 C 412.346,107.03 413.346,109.03 413.5,111.5C 421.521,112.704 429.521,114.038 437.5,115.5C 438.5,115.833 439.167,116.5 439.5,117.5C 432.667,116.234 425.834,114.9 419,113.5C 418.167,113.833 417.333,114.167 416.5,114.5C 417.833,116.5 419.167,118.5 420.5,120.5C 418.868,120.762 417.701,119.762 417,117.5C 416.833,118 416.667,118.5 416.5,119C 419.681,129.709 422.348,140.542 424.5,151.5C 420.466,139.221 416.799,126.721 413.5,114C 413.167,113.5 412.833,113 412.5,112.5C 410.929,113.309 409.262,113.643 407.5,113.5C 408.808,112.768 410.142,111.934 411.5,111C 410.29,109.961 409.29,108.794 408.5,107.5C 409.833,107.5 410.5,106.833 410.5,105.5 Z"/></g>
<g><path style="opacity:1" fill="#96b3dc" d="M 213.5,122.5 C 221.783,128.449 229.45,135.116 236.5,142.5C 229.06,136.904 221.727,131.071 214.5,125C 213.748,124.329 213.414,123.496 213.5,122.5 Z"/></g>
<g><path style="opacity:1" fill="#839abc" d="M 89.5,131.5 C 89.3284,132.492 89.6618,133.158 90.5,133.5C 104.816,140.179 119.149,147.012 133.5,154C 135.473,154.495 137.473,154.662 139.5,154.5C 140.847,152.37 140.847,153.703 139.5,158.5C 134.323,180.05 129.657,201.717 125.5,223.5C 124.646,224.632 124.646,225.965 125.5,227.5C 124.833,227.5 124.167,227.5 123.5,227.5C 96.8663,225.002 70.1997,223.169 43.5,222C 44.056,222.383 44.3893,222.883 44.5,223.5C 43.7321,224.263 43.2321,225.263 43,226.5C 41.522,223.842 40.3554,221.175 39.5,218.5C 39.5,217.5 39.5,216.5 39.5,215.5C 40.1174,215.611 40.6174,215.944 41,216.5C 41.9203,213.899 42.587,211.232 43,208.5C 43.3333,210.5 43.6667,212.5 44,214.5C 58.7652,187.303 73.2652,159.969 87.5,132.5C 87.8417,131.662 88.5084,131.328 89.5,131.5 Z"/></g>
<g><path style="opacity:1" fill="#6a7b97" d="M 87.5,132.5 C 73.2652,159.969 58.7652,187.303 44,214.5C 43.6667,212.5 43.3333,210.5 43,208.5C 42.587,211.232 41.9203,213.899 41,216.5C 40.6174,215.944 40.1174,215.611 39.5,215.5C 34.129,202.397 29.129,189.064 24.5,175.5C 25.0967,175.265 25.4301,174.765 25.5,174C 24.3035,171.411 23.3035,168.744 22.5,166C 24.1439,163.503 25.8106,161.003 27.5,158.5C 26.5,158.5 25.5,158.5 24.5,158.5C 26.2422,154.275 27.5755,149.941 28.5,145.5C 28.2594,143.102 28.9261,141.102 30.5,139.5C 30.4433,141.884 30.7766,144.218 31.5,146.5C 31.7332,147.932 32.3999,148.432 33.5,148C 40.8242,137.826 48.4909,127.993 56.5,118.5C 57.3635,117.537 58.0302,117.537 58.5,118.5C 55.883,133.534 53.0497,148.534 50,163.5C 47.4691,178.14 45.4691,192.807 44,207.5C 49.5909,176.402 55.2575,145.402 61,114.5C 69.2479,121.373 78.0812,127.373 87.5,132.5 Z"/></g>
<g><path style="opacity:1" fill="#93b1d7" d="M 296.5,147.5 C 302.329,143.252 308.663,140.085 315.5,138C 309.381,141.726 303.048,144.893 296.5,147.5 Z"/></g>
<g><path style="opacity:1" fill="#9abad7" d="M 408.5,151.5 C 405.101,149.612 402.101,147.112 399.5,144C 403.143,145.455 406.143,147.955 408.5,151.5 Z"/></g>
<g><path style="opacity:1" fill="#9fa8b8" d="M 21.5,144.5 C 21.5,145.5 21.5,146.5 21.5,147.5C 19.8988,152.024 17.5655,156.024 14.5,159.5C 16.2701,154.167 18.6034,149.167 21.5,144.5 Z"/></g>
<g><path style="opacity:1" fill="#96b4dc" d="M 429.5,134.5 C 434.136,139.979 438.636,145.646 443,151.5C 444.934,154.034 446.268,156.701 447,159.5C 440.532,151.545 434.699,143.212 429.5,134.5 Z"/></g>
<g><path style="opacity:1" fill="#badbfd" d="M 329.5,139.5 C 338.774,147.105 347.44,155.438 355.5,164.5C 362.555,172.057 369.888,179.557 377.5,187C 372.604,188.899 367.937,191.065 363.5,193.5C 361.213,193.724 359.047,194.391 357,195.5C 354.201,194.763 354.034,193.93 356.5,193C 355.5,192.333 354.5,192.333 353.5,193C 353.5,194.333 353.5,195.667 353.5,197C 348.774,199.353 343.774,200.686 338.5,201C 337.953,201.925 337.287,202.758 336.5,203.5C 333.642,204.661 330.975,205.994 328.5,207.5C 326.173,207.665 324.007,208.331 322,209.5C 322.125,184.829 322.792,160.163 324,135.5C 325.451,137.464 327.284,138.797 329.5,139.5 Z"/></g>
<g><path style="opacity:1" fill="#9fbfdd" d="M 408.5,151.5 C 413.131,154.464 417.131,158.131 420.5,162.5C 417.101,160.612 414.101,158.112 411.5,155C 410.552,154.517 409.552,154.351 408.5,154.5C 408.5,153.5 408.5,152.5 408.5,151.5 Z"/></g>
<g><path style="opacity:1" fill="#90aed5" d="M 296.5,147.5 C 291.337,151.415 285.67,154.248 279.5,156C 284.91,152.628 290.577,149.795 296.5,147.5 Z"/></g>
<g><path style="opacity:1" fill="#596983" d="M 30.5,139.5 C 28.9261,141.102 28.2594,143.102 28.5,145.5C 25.4155,151.468 23.0822,157.801 21.5,164.5C 17.7941,164.501 15.4608,162.835 14.5,159.5C 17.5655,156.024 19.8988,152.024 21.5,147.5C 25.9715,139.228 30.4715,130.895 35,122.5C 33.547,128.105 32.047,133.772 30.5,139.5 Z"/></g>
<g><path style="opacity:1" fill="#96afd7" d="M 139.5,158.5 C 141.451,159.282 142.951,160.616 144,162.5C 144.671,161.748 145.504,161.414 146.5,161.5C 161.291,171.069 175.958,180.902 190.5,191C 192.139,192.519 193.806,192.686 195.5,191.5C 194.741,193.431 193.407,194.931 191.5,196C 169.7,205.652 147.866,215.152 126,224.5C 125.601,224.272 125.435,223.938 125.5,223.5C 129.657,201.717 134.323,180.05 139.5,158.5 Z"/></g>
<g><path style="opacity:1" fill="#7d8fa8" d="M 28.5,145.5 C 27.5755,149.941 26.2422,154.275 24.5,158.5C 25.5,158.5 26.5,158.5 27.5,158.5C 25.8106,161.003 24.1439,163.503 22.5,166C 23.3035,168.744 24.3035,171.411 25.5,174C 25.4301,174.765 25.0967,175.265 24.5,175.5C 24.0383,173.243 23.0383,171.243 21.5,169.5C 19.0066,176.988 16.3399,184.321 13.5,191.5C 15.2174,183.012 17.5507,174.679 20.5,166.5C 17.9671,164.526 15.3004,164.192 12.5,165.5C 12.2594,163.102 12.9261,161.102 14.5,159.5C 15.4608,162.835 17.7941,164.501 21.5,164.5C 23.0822,157.801 25.4155,151.468 28.5,145.5 Z"/></g>
<g><path style="opacity:1" fill="#a9c6f2" d="M 213.5,122.5 C 213.414,123.496 213.748,124.329 214.5,125C 221.727,131.071 229.06,136.904 236.5,142.5C 239.089,143.419 241.089,145.086 242.5,147.5C 245.165,150.335 247.665,153.335 250,156.5C 250.333,156.167 250.667,155.833 251,155.5C 254.405,158.784 257.905,161.95 261.5,165C 257.714,166.393 254.048,168.059 250.5,170C 254.189,169.659 257.689,168.493 261,166.5C 260.851,190.19 259.851,213.857 258,237.5C 257.781,238.938 257.281,240.271 256.5,241.5C 252.736,238.389 248.736,235.723 244.5,233.5C 229.056,220.604 213.389,207.938 197.5,195.5C 197.062,195.565 196.728,195.399 196.5,195C 197.167,194.667 197.833,194.333 198.5,194C 197.422,193.326 196.755,192.326 196.5,191C 197.362,187.189 198.029,183.356 198.5,179.5C 202.314,160.362 205.647,141.028 208.5,121.5C 209.117,121.389 209.617,121.056 210,120.5C 210.816,121.823 211.983,122.489 213.5,122.5 Z"/></g>
<g><path style="opacity:1" fill="#97b5db" d="M 459.5,176.5 C 455.051,172.572 451.885,167.905 450,162.5C 453.929,166.705 457.096,171.372 459.5,176.5 Z"/></g>
<g><path style="opacity:1" fill="#b2d1fd" d="M 264.5,166.5 C 275.745,174.077 286.412,182.41 296.5,191.5C 302.544,197.698 309.21,203.198 316.5,208C 318.548,209.226 318.881,210.726 317.5,212.5C 308.188,216.153 299.521,220.82 291.5,226.5C 281.311,231.09 271.645,236.423 262.5,242.5C 261.5,242.5 260.5,242.5 259.5,242.5C 260.6,219.167 261.767,195.834 263,172.5C 263.191,170.292 263.691,168.292 264.5,166.5 Z"/></g>
<g><path style="opacity:1" fill="#b8d8fd" d="M 418.5,234.5 C 409.451,221.752 399.451,209.752 388.5,198.5C 386.073,194.895 383.407,191.395 380.5,188C 385.056,186.434 389.39,184.601 393.5,182.5C 401.168,180.943 408.501,178.609 415.5,175.5C 417.102,173.926 419.102,173.259 421.5,173.5C 423.861,173.326 426.194,172.993 428.5,172.5C 425.972,193.43 422.638,214.097 418.5,234.5 Z"/></g>
<g><path style="opacity:1" fill="#aabcd4" d="M 387.5,56.5 C 395.129,62.9587 402.629,69.6254 410,76.5C 420.425,90.3478 431.092,104.014 442,117.5C 453.512,144.521 465.012,171.521 476.5,198.5C 475.662,198.842 475.328,199.508 475.5,200.5C 474.857,198.924 473.857,197.59 472.5,196.5C 472.5,196.167 472.5,195.833 472.5,195.5C 472.768,193.901 472.434,192.568 471.5,191.5C 461.805,166.417 451.139,141.75 439.5,117.5C 439.167,116.5 438.5,115.833 437.5,115.5C 433.874,110.539 429.874,105.872 425.5,101.5C 420.788,93.1153 415.288,85.1153 409,77.5C 404.009,73.9343 399.175,70.2677 394.5,66.5C 392.899,62.58 390.565,59.2466 387.5,56.5 Z"/></g>
<g><path style="opacity:1" fill="#92afd7" d="M 426.5,159.5 C 428.417,162.804 429.584,166.471 430,170.5C 435.287,173.306 440.121,176.64 444.5,180.5C 439.61,178.289 434.944,175.622 430.5,172.5C 427.122,191.6 424.122,210.767 421.5,230C 421.833,231.167 422.167,232.333 422.5,233.5C 424.899,231.461 427.566,230.295 430.5,230C 427.498,232.503 424.165,234.503 420.5,236C 421.823,236.816 422.489,237.983 422.5,239.5C 421.542,239.047 420.708,238.381 420,237.5C 415.429,257.124 410.263,276.458 404.5,295.5C 408.847,276.6 413.514,257.767 418.5,239C 418.333,238.5 418.167,238 418,237.5C 414.912,239.294 411.746,240.961 408.5,242.5C 407.893,242.376 407.56,242.043 407.5,241.5C 411.777,239.877 415.443,237.544 418.5,234.5C 422.638,214.097 425.972,193.43 428.5,172.5C 426.194,172.993 423.861,173.326 421.5,173.5C 423.255,172.208 425.255,171.208 427.5,170.5C 425.144,167.814 422.811,165.147 420.5,162.5C 423.056,163.543 425.223,165.21 427,167.5C 426.917,164.881 426.75,162.214 426.5,159.5 Z"/></g>
<g><path style="opacity:1" fill="#8f9baf" d="M 12.5,165.5 C 11.7464,175.195 10.7464,184.862 9.5,194.5C 8.73209,193.737 8.23209,192.737 8,191.5C 7.78997,193.058 7.28997,194.391 6.5,195.5C 7.88208,185.256 9.88208,175.256 12.5,165.5 Z"/></g>
<g><path style="opacity:1" fill="#53637b" d="M 13.5,191.5 C 11.4052,195.163 9.90519,199.163 9,203.5C 8.36581,200.445 8.53248,197.445 9.5,194.5C 10.7464,184.862 11.7464,175.195 12.5,165.5C 15.3004,164.192 17.9671,164.526 20.5,166.5C 17.5507,174.679 15.2174,183.012 13.5,191.5 Z"/></g>
<g><path style="opacity:1" fill="#94b2d4" d="M 415.5,175.5 C 408.501,178.609 401.168,180.943 393.5,182.5C 400.488,179.394 407.821,177.061 415.5,175.5 Z"/></g>
<g><path style="opacity:1" fill="#96b5dc" d="M 459.5,176.5 C 463.5,181.5 467.5,186.5 471.5,191.5C 472.434,192.568 472.768,193.901 472.5,195.5C 467.428,189.696 463.095,183.362 459.5,176.5 Z"/></g>
<g><path style="opacity:1" fill="#b7d6fd" d="M 377.5,195.5 C 376.662,195.842 376.328,196.508 376.5,197.5C 375.11,205.115 374.11,212.781 373.5,220.5C 372.833,220.5 372.5,220.833 372.5,221.5C 371.336,229.153 370.336,236.82 369.5,244.5C 368.833,244.5 368.5,244.833 368.5,245.5C 368.251,250.662 367.251,255.662 365.5,260.5C 363.481,258.81 361.481,257.144 359.5,255.5C 356.229,249.563 351.895,244.563 346.5,240.5C 339.151,229.972 330.818,220.139 321.5,211C 324.069,210.102 326.402,208.935 328.5,207.5C 330.975,205.994 333.642,204.661 336.5,203.5C 337.287,202.758 337.953,201.925 338.5,201C 343.774,200.686 348.774,199.353 353.5,197C 353.5,195.667 353.5,194.333 353.5,193C 354.5,192.333 355.5,192.333 356.5,193C 354.034,193.93 354.201,194.763 357,195.5C 359.047,194.391 361.213,193.724 363.5,193.5C 368.35,192.411 373.017,190.745 377.5,188.5C 377.838,190.655 377.838,192.989 377.5,195.5 Z"/></g>
<g><path style="opacity:1" fill="#94b3dc" d="M 447.5,182.5 C 452.594,185.077 457.594,187.911 462.5,191C 464.618,192.049 466.284,193.549 467.5,195.5C 465.407,194.955 463.407,194.122 461.5,193C 456.65,189.637 451.983,186.137 447.5,182.5 Z"/></g>
<g><path style="opacity:1" fill="#546379" d="M 24.5,175.5 C 29.129,189.064 34.129,202.397 39.5,215.5C 39.5,216.5 39.5,217.5 39.5,218.5C 28.6781,218.951 17.6781,218.951 6.5,218.5C 8.98659,209.554 11.3199,200.554 13.5,191.5C 16.3399,184.321 19.0066,176.988 21.5,169.5C 23.0383,171.243 24.0383,173.243 24.5,175.5 Z"/></g>
<g><path style="opacity:1" fill="#b5d4fc" d="M 388.5,198.5 C 399.451,209.752 409.451,221.752 418.5,234.5C 415.443,237.544 411.777,239.877 407.5,241.5C 404.46,242.68 401.794,244.347 399.5,246.5C 396.53,247.549 393.53,248.716 390.5,250C 384.938,252.941 379.605,256.108 374.5,259.5C 372.323,259.586 370.323,260.253 368.5,261.5C 368.167,261.167 367.833,260.833 367.5,260.5C 368.329,256.544 368.995,252.544 369.5,248.5C 369.48,247.274 369.147,246.274 368.5,245.5C 368.5,244.833 368.833,244.5 369.5,244.5C 370.982,239.705 372.149,234.705 373,229.5C 373.801,226.633 373.634,223.966 372.5,221.5C 372.5,220.833 372.833,220.5 373.5,220.5C 375.246,214.052 376.579,207.385 377.5,200.5C 377.48,199.274 377.147,198.274 376.5,197.5C 376.328,196.508 376.662,195.842 377.5,195.5C 378.39,194.233 379.224,192.233 380,189.5C 382.334,193 385.168,196 388.5,198.5 Z"/></g>
<g><path style="opacity:1" fill="#92abd0" d="M 198.5,179.5 C 198.029,183.356 197.362,187.189 196.5,191C 196.755,192.326 197.422,193.326 198.5,194C 197.833,194.333 197.167,194.667 196.5,195C 196.728,195.399 197.062,195.565 197.5,195.5C 196.325,197.384 195.658,199.551 195.5,202C 194.061,222.526 192.394,243.026 190.5,263.5C 189.596,264.209 189.263,265.209 189.5,266.5C 187.011,266.702 184.677,266.202 182.5,265C 163.551,252.18 144.551,239.68 125.5,227.5C 124.646,225.965 124.646,224.632 125.5,223.5C 125.435,223.938 125.601,224.272 126,224.5C 147.866,215.152 169.7,205.652 191.5,196C 193.407,194.931 194.741,193.431 195.5,191.5C 195.794,186.739 196.627,182.072 198,177.5C 198.464,178.094 198.631,178.761 198.5,179.5 Z"/></g>
<g><path style="opacity:1" fill="#9ab3db" d="M 197.5,195.5 C 213.389,207.938 229.056,220.604 244.5,233.5C 247.831,237.033 251.498,240.367 255.5,243.5C 255.291,244.086 254.957,244.586 254.5,245C 233.236,252.589 211.903,260.089 190.5,267.5C 190.5,266.167 190.5,264.833 190.5,263.5C 192.394,243.026 194.061,222.526 195.5,202C 195.658,199.551 196.325,197.384 197.5,195.5 Z"/></g>
<g><path style="opacity:1" fill="#92b0d7" d="M 376.5,197.5 C 377.147,198.274 377.48,199.274 377.5,200.5C 376.579,207.385 375.246,214.052 373.5,220.5C 374.11,212.781 375.11,205.115 376.5,197.5 Z"/></g>
<g><path style="opacity:1" fill="#92b0d6" d="M 332.5,131.5 C 330.123,132.887 327.457,133.721 324.5,134C 326.373,135.704 328.04,137.537 329.5,139.5C 327.284,138.797 325.451,137.464 324,135.5C 322.792,160.163 322.125,184.829 322,209.5C 324.007,208.331 326.173,207.665 328.5,207.5C 326.402,208.935 324.069,210.102 321.5,211C 330.818,220.139 339.151,229.972 346.5,240.5C 338.4,231.834 330.4,223.001 322.5,214C 322.167,213.833 321.833,213.667 321.5,213.5C 320.707,217.016 319.707,220.35 318.5,223.5C 318.451,220.626 318.784,217.792 319.5,215C 319.316,213.624 318.649,212.791 317.5,212.5C 318.881,210.726 318.548,209.226 316.5,208C 309.21,203.198 302.544,197.698 296.5,191.5C 304.411,196.732 312.078,202.399 319.5,208.5C 320.736,182.959 321.736,157.626 322.5,132.5C 325.807,131.949 329.14,131.616 332.5,131.5 Z"/></g>
<g><path style="opacity:1" fill="#9ba9c3" d="M 476.5,198.5 C 477.257,212.302 476.59,225.969 474.5,239.5C 474.31,228.143 474.644,216.81 475.5,205.5C 475.631,204.761 475.464,204.094 475,203.5C 474.282,204.451 473.449,204.617 472.5,204C 474.063,203.241 475.063,202.074 475.5,200.5C 475.328,199.508 475.662,198.842 476.5,198.5 Z"/></g>
<g><path style="opacity:1" fill="#546176" d="M 3.5,220.5 C 2.56552,219.432 2.23219,218.099 2.5,216.5C 2.5,216.167 2.5,215.833 2.5,215.5C 3.77633,213.438 4.60966,211.104 5,208.5C 5.2207,212.57 4.7207,216.57 3.5,220.5 Z"/></g>
<g><path style="opacity:1" fill="#abcaf6" d="M 346.5,240.5 C 351.895,244.563 356.229,249.563 359.5,255.5C 360.713,258.225 362.546,260.559 365,262.5C 365.667,263.167 365.667,263.833 365,264.5C 349.909,280.75 335.076,297.083 320.5,313.5C 313.894,320.277 307.394,327.277 301,334.5C 300.612,331.151 300.779,327.817 301.5,324.5C 302.434,323.432 302.768,322.099 302.5,320.5C 303.942,312.183 305.275,303.849 306.5,295.5C 307.404,294.791 307.737,293.791 307.5,292.5C 309.888,279.228 311.888,265.895 313.5,252.5C 315.989,243.102 317.656,233.436 318.5,223.5C 319.707,220.35 320.707,217.016 321.5,213.5C 321.833,213.667 322.167,213.833 322.5,214C 330.4,223.001 338.4,231.834 346.5,240.5 Z"/></g>
<g><path style="opacity:1" fill="#aecdfa" d="M 444.5,180.5 C 446.027,180.427 447.027,181.094 447.5,182.5C 451.983,186.137 456.65,189.637 461.5,193C 463.407,194.122 465.407,194.955 467.5,195.5C 469.117,196.038 470.784,196.371 472.5,196.5C 473.857,197.59 474.857,198.924 475.5,200.5C 475.063,202.074 474.063,203.241 472.5,204C 473.449,204.617 474.282,204.451 475,203.5C 475.464,204.094 475.631,204.761 475.5,205.5C 468.122,223.959 461.122,242.625 454.5,261.5C 453.249,266.285 451.249,270.619 448.5,274.5C 440.597,262.264 431.93,250.597 422.5,239.5C 422.489,237.983 421.823,236.816 420.5,236C 424.165,234.503 427.498,232.503 430.5,230C 427.566,230.295 424.899,231.461 422.5,233.5C 422.167,232.333 421.833,231.167 421.5,230C 424.122,210.767 427.122,191.6 430.5,172.5C 434.944,175.622 439.61,178.289 444.5,180.5 Z"/></g>
<g><path style="opacity:1" fill="#acc9f5" d="M 317.5,212.5 C 318.649,212.791 319.316,213.624 319.5,215C 318.784,217.792 318.451,220.626 318.5,223.5C 315.958,232.892 314.292,242.559 313.5,252.5C 310.912,263.277 308.745,274.277 307,285.5C 306.204,288.039 306.371,290.372 307.5,292.5C 307.737,293.791 307.404,294.791 306.5,295.5C 306.631,294.761 306.464,294.094 306,293.5C 303.539,302.558 302.373,311.558 302.5,320.5C 302.768,322.099 302.434,323.432 301.5,324.5C 301.369,322.333 301.036,322.166 300.5,324C 299.778,327.171 299.111,330.338 298.5,333.5C 294.24,325.959 290.24,317.626 286.5,308.5C 277.608,287.334 268.608,266.167 259.5,245C 260.571,244.148 261.571,243.315 262.5,242.5C 271.645,236.423 281.311,231.09 291.5,226.5C 301.198,222.579 309.865,217.912 317.5,212.5 Z"/></g>
<g><path style="opacity:1" fill="#8eadd8" d="M 460.5,210.5 C 462.379,210.393 462.712,210.893 461.5,212C 453.001,216.748 444.668,221.748 436.5,227C 435.241,227.982 433.908,228.315 432.5,228C 441.74,221.908 451.074,216.074 460.5,210.5 Z"/></g>
<g><path style="opacity:1" fill="#a7aebd" d="M 2.5,216.5 C 2.23219,218.099 2.56552,219.432 3.5,220.5C 2.56655,230.766 2.56655,241.099 3.5,251.5C 3.5,253.833 3.5,256.167 3.5,258.5C 2.54058,246.976 1.54058,235.309 0.5,223.5C 0.928874,220.971 1.59554,218.638 2.5,216.5 Z"/></g>
<g><path style="opacity:1" fill="#8faed8" d="M 317.5,212.5 C 309.865,217.912 301.198,222.579 291.5,226.5C 299.521,220.82 308.188,216.153 317.5,212.5 Z"/></g>
<g><path style="opacity:1" fill="#6c7e9a" d="M 123.5,227.5 C 125.105,250.159 126.272,272.826 127,295.5C 110.609,280.935 94.1085,266.602 77.5,252.5C 72.4519,248.971 67.7852,244.971 63.5,240.5C 58.1118,233.779 51.7785,228.112 44.5,223.5C 44.3893,222.883 44.056,222.383 43.5,222C 70.1997,223.169 96.8663,225.002 123.5,227.5 Z"/></g>
<g><path style="opacity:1" fill="#7f95b5" d="M 123.5,227.5 C 124.167,227.5 124.833,227.5 125.5,227.5C 144.551,239.68 163.551,252.18 182.5,265C 184.677,266.202 187.011,266.702 189.5,266.5C 189.263,265.209 189.596,264.209 190.5,263.5C 190.5,264.833 190.5,266.167 190.5,267.5C 191.167,268.5 191.833,269.5 192.5,270.5C 191.503,270.47 190.836,270.97 190.5,272C 191.474,279.798 192.14,287.631 192.5,295.5C 190.712,287.066 189.545,278.399 189,269.5C 171.274,278.197 153.607,286.864 136,295.5C 134.328,296.505 132.995,297.839 132,299.5C 131.295,297.014 130.462,297.014 129.5,299.5C 129.5,300.5 129.5,301.5 129.5,302.5C 129.167,302.5 128.833,302.5 128.5,302.5C 128.5,301.5 128.5,300.5 128.5,299.5C 124.833,300.167 121.167,300.833 117.5,301.5C 120.408,300.188 123.408,298.855 126.5,297.5C 109.821,282.818 93.4872,267.818 77.5,252.5C 94.1085,266.602 110.609,280.935 127,295.5C 126.272,272.826 125.105,250.159 123.5,227.5 Z"/></g>
<g><path style="opacity:1" fill="#4f5c73" d="M 54.5,257.5 C 58.1916,271.244 62.8582,284.578 68.5,297.5C 69.7581,302.942 71.4248,308.276 73.5,313.5C 64.079,318.627 54.579,323.627 45,328.5C 43.3533,294.853 42.6867,261.186 43,227.5C 46.3677,237.784 50.2011,247.784 54.5,257.5 Z"/></g>
<g><path style="opacity:1" fill="#93b0d8" d="M 372.5,221.5 C 373.634,223.966 373.801,226.633 373,229.5C 372.149,234.705 370.982,239.705 369.5,244.5C 370.336,236.82 371.336,229.153 372.5,221.5 Z"/></g>
<g><path style="opacity:1" fill="#8eabd4" d="M 318.5,223.5 C 317.656,233.436 315.989,243.102 313.5,252.5C 314.292,242.559 315.958,232.892 318.5,223.5 Z"/></g>
<g><path style="opacity:1" fill="#4b5670" d="M 3.5,220.5 C 4.83333,230.833 4.83333,241.167 3.5,251.5C 2.56655,241.099 2.56655,230.766 3.5,220.5 Z"/></g>
<g><path style="opacity:1" fill="#a9c6f2" d="M 404.5,295.5 C 403.691,297.028 403.024,298.694 402.5,300.5C 402.5,301.167 402.5,301.833 402.5,302.5C 400.983,302.489 399.816,301.823 399,300.5C 388.845,288.013 378.345,275.846 367.5,264C 369.898,262.476 372.231,260.976 374.5,259.5C 383.344,255.913 391.678,251.58 399.5,246.5C 401.794,244.347 404.46,242.68 407.5,241.5C 407.56,242.043 407.893,242.376 408.5,242.5C 411.746,240.961 414.912,239.294 418,237.5C 418.167,238 418.333,238.5 418.5,239C 413.514,257.767 408.847,276.6 404.5,295.5 Z"/></g>
<g><path style="opacity:1" fill="#90aad0" d="M 242.5,147.5 C 249.398,152.22 255.898,157.553 262,163.5C 262.813,158.185 263.479,152.852 264,147.5C 264.49,148.793 264.657,150.127 264.5,151.5C 264.142,155.599 264.142,159.599 264.5,163.5C 266.729,162.037 269.063,161.203 271.5,161C 268.664,162.391 266.331,164.224 264.5,166.5C 263.691,168.292 263.191,170.292 263,172.5C 261.767,195.834 260.6,219.167 259.5,242.5C 260.5,242.5 261.5,242.5 262.5,242.5C 261.571,243.315 260.571,244.148 259.5,245C 268.608,266.167 277.608,287.334 286.5,308.5C 285.957,308.56 285.624,308.893 285.5,309.5C 289.801,318.36 293.301,327.026 296,335.5C 276.369,321.877 256.202,309.044 235.5,297C 223.566,289.023 211.566,281.023 199.5,273C 197.257,271.864 194.924,271.03 192.5,270.5C 191.833,269.5 191.167,268.5 190.5,267.5C 211.903,260.089 233.236,252.589 254.5,245C 254.957,244.586 255.291,244.086 255.5,243.5C 251.498,240.367 247.831,237.033 244.5,233.5C 248.736,235.723 252.736,238.389 256.5,241.5C 257.281,240.271 257.781,238.938 258,237.5C 259.851,213.857 260.851,190.19 261,166.5C 257.689,168.493 254.189,169.659 250.5,170C 254.048,168.059 257.714,166.393 261.5,165C 257.905,161.95 254.405,158.784 251,155.5C 250.667,155.833 250.333,156.167 250,156.5C 247.665,153.335 245.165,150.335 242.5,147.5 Z"/></g>
<g><path style="opacity:1" fill="#6a7b97" d="M 63.5,240.5 C 67.7852,244.971 72.4519,248.971 77.5,252.5C 93.4872,267.818 109.821,282.818 126.5,297.5C 123.408,298.855 120.408,300.188 117.5,301.5C 111.221,304.479 104.554,306.479 97.5,307.5C 93.9895,308.058 90.4895,308.724 87,309.5C 84.3631,309.343 81.8631,308.677 79.5,307.5C 78.9478,309.003 78.9478,310.669 79.5,312.5C 77.6693,313.052 76.0026,313.052 74.5,312.5C 72.8676,307.252 70.8676,302.252 68.5,297.5C 62.8582,284.578 58.1916,271.244 54.5,257.5C 54.1455,254.933 53.4788,252.433 52.5,250C 52.7355,249.127 53.0688,248.293 53.5,247.5C 51.0181,245.841 49.5181,243.508 49,240.5C 49.1521,236.593 48.9855,233.093 48.5,230C 49.1667,229.333 49.8333,229.333 50.5,230C 54.7077,233.713 59.041,237.213 63.5,240.5 Z"/></g>
<g><path style="opacity:1" fill="#a6c3ec" d="M 422.5,239.5 C 431.93,250.597 440.597,262.264 448.5,274.5C 448.586,275.496 448.252,276.329 447.5,277C 441.791,279.24 436.791,282.407 432.5,286.5C 424.103,290.87 415.769,295.537 407.5,300.5C 406.158,299.098 405.324,299.431 405,301.5C 404.505,299.527 404.338,297.527 404.5,295.5C 410.263,276.458 415.429,257.124 420,237.5C 420.708,238.381 421.542,239.047 422.5,239.5 Z"/></g>
<g><path style="opacity:1" fill="#90add6" d="M 399.5,246.5 C 391.678,251.58 383.344,255.913 374.5,259.5C 379.605,256.108 384.938,252.941 390.5,250C 393.53,248.716 396.53,247.549 399.5,246.5 Z"/></g>
<g><path style="opacity:1" fill="#95a9c6" d="M 474.5,239.5 C 473.999,252.184 473.165,264.851 472,277.5C 470.491,283.214 468.325,288.548 465.5,293.5C 465.952,289.837 466.452,286.17 467,282.5C 467.368,281.09 468.201,280.09 469.5,279.5C 469.833,277 470.167,274.5 470.5,272C 469.373,260.123 469.373,249.123 470.5,239C 471.819,238.805 473.153,238.972 474.5,239.5 Z"/></g>
<g><path style="opacity:1" fill="#9bb7de" d="M 368.5,245.5 C 369.147,246.274 369.48,247.274 369.5,248.5C 368.995,252.544 368.329,256.544 367.5,260.5C 367.833,260.833 368.167,261.167 368.5,261.5C 370.323,260.253 372.323,259.586 374.5,259.5C 372.231,260.976 369.898,262.476 367.5,264C 378.345,275.846 388.845,288.013 399,300.5C 399.816,301.823 400.983,302.489 402.5,302.5C 397.73,305.28 392.73,307.613 387.5,309.5C 363.728,315.984 340.228,323.318 317,331.5C 315.775,331.138 314.609,330.638 313.5,330C 314.167,329.667 314.833,329.333 315.5,329C 314.333,328.5 313.5,327.667 313,326.5C 310.878,327.22 310.378,328.387 311.5,330C 310.5,330.667 309.5,330.667 308.5,330C 310.259,326.177 313.092,322.677 317,319.5C 318.421,317.595 319.588,315.595 320.5,313.5C 335.076,297.083 349.909,280.75 365,264.5C 365.667,263.833 365.667,263.167 365,262.5C 362.546,260.559 360.713,258.225 359.5,255.5C 361.481,257.144 363.481,258.81 365.5,260.5C 367.251,255.662 368.251,250.662 368.5,245.5 Z"/></g>
<g><path style="opacity:1" fill="#7e92b3" d="M 192.5,295.5 C 194.327,309.419 195.493,323.419 196,337.5C 196.995,338.066 197.828,338.733 198.5,339.5C 197.391,339.557 196.391,339.89 195.5,340.5C 187.914,343.463 180.247,346.13 172.5,348.5C 179.526,344.871 186.86,341.704 194.5,339C 172.838,325.835 151.171,312.669 129.5,299.5C 130.462,297.014 131.295,297.014 132,299.5C 132.995,297.839 134.328,296.505 136,295.5C 153.607,286.864 171.274,278.197 189,269.5C 189.545,278.399 190.712,287.066 192.5,295.5 Z"/></g>
<g><path style="opacity:1" fill="#8ea6cc" d="M 192.5,270.5 C 194.924,271.03 197.257,271.864 199.5,273C 211.566,281.023 223.566,289.023 235.5,297C 256.202,309.044 276.369,321.877 296,335.5C 293.301,327.026 289.801,318.36 285.5,309.5C 285.624,308.893 285.957,308.56 286.5,308.5C 290.24,317.626 294.24,325.959 298.5,333.5C 299.404,334.209 299.737,335.209 299.5,336.5C 302.099,336.451 304.266,335.451 306,333.5C 306.333,333.833 306.667,334.167 307,334.5C 309.694,333.117 312.527,332.617 315.5,333C 311.122,334.679 306.789,336.346 302.5,338C 303.571,338.852 304.571,339.685 305.5,340.5C 302.505,339.661 299.672,338.327 297,336.5C 281.36,337.145 265.86,337.811 250.5,338.5C 233.176,339.203 215.842,339.537 198.5,339.5C 197.828,338.733 196.995,338.066 196,337.5C 195.493,323.419 194.327,309.419 192.5,295.5C 192.14,287.631 191.474,279.798 190.5,272C 190.836,270.97 191.503,270.47 192.5,270.5 Z"/></g>
<g><path style="opacity:1" fill="#8ea7cd" d="M 475.5,205.5 C 474.644,216.81 474.31,228.143 474.5,239.5C 473.153,238.972 471.819,238.805 470.5,239C 469.373,249.123 469.373,260.123 470.5,272C 470.167,274.5 469.833,277 469.5,279.5C 468.201,280.09 467.368,281.09 467,282.5C 466.452,286.17 465.952,289.837 465.5,293.5C 462.589,295.239 460.089,297.572 458,300.5C 457.586,300.043 457.086,299.709 456.5,299.5C 455.571,300.689 455.238,302.022 455.5,303.5C 454.5,303.5 453.5,303.5 452.5,303.5C 451.898,293.921 451.231,284.587 450.5,275.5C 452.305,271.39 453.972,267.223 455.5,263C 455.43,262.235 455.097,261.735 454.5,261.5C 461.122,242.625 468.122,223.959 475.5,205.5 Z"/></g>
<g><path style="opacity:1" fill="#90add8" d="M 313.5,252.5 C 311.888,265.895 309.888,279.228 307.5,292.5C 306.371,290.372 306.204,288.039 307,285.5C 308.745,274.277 310.912,263.277 313.5,252.5 Z"/></g>
<g><path style="opacity:1" fill="#96afd7" d="M 419.5,343.5 C 413.544,328.904 407.877,314.571 402.5,300.5C 403.024,298.694 403.691,297.028 404.5,295.5C 404.338,297.527 404.505,299.527 405,301.5C 405.324,299.431 406.158,299.098 407.5,300.5C 415.769,295.537 424.103,290.87 432.5,286.5C 438.076,284.208 443.409,281.708 448.5,279C 438.94,300.614 429.274,322.114 419.5,343.5 Z"/></g>
<g><path style="opacity:1" fill="#a2abbf" d="M 4.5,276.5 C 5.16667,276.833 5.83333,277.167 6.5,277.5C 7.50752,280.844 8.50752,284.177 9.5,287.5C 9.5,289.167 9.5,290.833 9.5,292.5C 7.54252,287.36 5.87585,282.027 4.5,276.5 Z"/></g>
<g><path style="opacity:1" fill="#455266" d="M 36.5,316.5 C 38.0878,320.843 40.0878,325.01 42.5,329C 35.8859,330.057 29.5526,329.557 23.5,327.5C 23.5,327.167 23.5,326.833 23.5,326.5C 22.8373,318.019 21.3373,309.686 19,301.5C 19.1176,306.862 19.4509,312.196 20,317.5C 18.7262,313.846 17.5596,310.18 16.5,306.5C 13.9457,300.162 11.6123,293.829 9.5,287.5C 8.50752,284.177 7.50752,280.844 6.5,277.5C 6.41423,276.504 6.74756,275.671 7.5,275C 9.4727,274.505 11.4727,274.338 13.5,274.5C 14.5464,283.234 16.0464,291.9 18,300.5C 17.8726,293.416 17.2059,286.416 16,279.5C 22.3538,292.218 29.1872,304.551 36.5,316.5 Z"/></g>
<g><path style="opacity:1" fill="#858fa2" d="M 9.5,287.5 C 11.6123,293.829 13.9457,300.162 16.5,306.5C 14.9519,306.821 14.2852,307.821 14.5,309.5C 12.2611,304.106 10.5945,298.439 9.5,292.5C 9.5,290.833 9.5,289.167 9.5,287.5 Z"/></g>
<g><path style="opacity:1" fill="#8aa2c6" d="M 454.5,261.5 C 455.097,261.735 455.43,262.235 455.5,263C 453.972,267.223 452.305,271.39 450.5,275.5C 451.231,284.587 451.898,293.921 452.5,303.5C 453.5,303.5 454.5,303.5 455.5,303.5C 455.238,302.022 455.571,300.689 456.5,299.5C 457.086,299.709 457.586,300.043 458,300.5C 460.089,297.572 462.589,295.239 465.5,293.5C 463.208,300.72 460.541,307.72 457.5,314.5C 458.135,311.127 458.635,307.794 459,304.5C 457.55,307.008 456.383,309.675 455.5,312.5C 452.716,314.114 450.882,316.448 450,319.5C 441.995,326.009 434.161,332.675 426.5,339.5C 424.407,341.658 422.741,343.992 421.5,346.5C 419.784,346.629 418.117,346.962 416.5,347.5C 416.167,347.5 415.833,347.5 415.5,347.5C 416.833,346.167 418.167,344.833 419.5,343.5C 429.274,322.114 438.94,300.614 448.5,279C 443.409,281.708 438.076,284.208 432.5,286.5C 436.791,282.407 441.791,279.24 447.5,277C 448.252,276.329 448.586,275.496 448.5,274.5C 451.249,270.619 453.249,266.285 454.5,261.5 Z"/></g>
<g><path style="opacity:1" fill="#607089" d="M 128.5,302.5 C 129.7,319.839 131.034,337.172 132.5,354.5C 132.497,357.025 132.163,359.359 131.5,361.5C 121.941,354.882 112.941,347.549 104.5,339.5C 97.0949,331.431 88.7616,324.431 79.5,318.5C 78.7101,317.206 77.7101,316.039 76.5,315C 83.5713,312.368 90.5713,309.868 97.5,307.5C 104.554,306.479 111.221,304.479 117.5,301.5C 121.167,300.833 124.833,300.167 128.5,299.5C 128.5,300.5 128.5,301.5 128.5,302.5 Z"/></g>
<g><path style="opacity:1" fill="#697a95" d="M 129.5,299.5 C 151.171,312.669 172.838,325.835 194.5,339C 186.86,341.704 179.526,344.871 172.5,348.5C 162.545,353.267 152.211,357.267 141.5,360.5C 139.173,360.665 137.007,361.331 135,362.5C 132.942,342.469 131.109,322.469 129.5,302.5C 129.5,301.5 129.5,300.5 129.5,299.5 Z"/></g>
<g><path style="opacity:1" fill="#90a9ce" d="M 402.5,300.5 C 407.877,314.571 413.544,328.904 419.5,343.5C 418.167,344.833 416.833,346.167 415.5,347.5C 401.496,352.657 387.496,358.157 373.5,364C 372.072,364.579 370.738,364.412 369.5,363.5C 379.011,345.489 388.845,327.489 399,309.5C 399.749,308.365 399.583,307.365 398.5,306.5C 394.952,307.97 391.285,308.97 387.5,309.5C 392.73,307.613 397.73,305.28 402.5,302.5C 402.5,301.833 402.5,301.167 402.5,300.5 Z"/></g>
<g><path style="opacity:1" fill="#718096" d="M 23.5,326.5 C 22.5,326.5 21.5,326.5 20.5,326.5C 17.3317,321.333 15.3317,315.666 14.5,309.5C 14.2852,307.821 14.9519,306.821 16.5,306.5C 17.5596,310.18 18.7262,313.846 20,317.5C 19.4509,312.196 19.1176,306.862 19,301.5C 21.3373,309.686 22.8373,318.019 23.5,326.5 Z"/></g>
<g><path style="opacity:1" fill="#8faad3" d="M 306.5,295.5 C 305.275,303.849 303.942,312.183 302.5,320.5C 302.373,311.558 303.539,302.558 306,293.5C 306.464,294.094 306.631,294.761 306.5,295.5 Z"/></g>
<g><path style="opacity:1" fill="#99b5dc" d="M 369.5,363.5 C 368.533,364.806 367.199,365.473 365.5,365.5C 358.462,361.988 351.129,358.988 343.5,356.5C 335.721,351.201 327.054,347.701 317.5,346C 313.559,343.861 309.559,342.028 305.5,340.5C 304.571,339.685 303.571,338.852 302.5,338C 306.789,336.346 311.122,334.679 315.5,333C 312.527,332.617 309.694,333.117 307,334.5C 306.667,334.167 306.333,333.833 306,333.5C 304.266,335.451 302.099,336.451 299.5,336.5C 299.737,335.209 299.404,334.209 298.5,333.5C 299.111,330.338 299.778,327.171 300.5,324C 301.036,322.166 301.369,322.333 301.5,324.5C 300.779,327.817 300.612,331.151 301,334.5C 307.394,327.277 313.894,320.277 320.5,313.5C 319.588,315.595 318.421,317.595 317,319.5C 313.092,322.677 310.259,326.177 308.5,330C 309.5,330.667 310.5,330.667 311.5,330C 310.378,328.387 310.878,327.22 313,326.5C 313.5,327.667 314.333,328.5 315.5,329C 314.833,329.333 314.167,329.667 313.5,330C 314.609,330.638 315.775,331.138 317,331.5C 340.228,323.318 363.728,315.984 387.5,309.5C 391.285,308.97 394.952,307.97 398.5,306.5C 399.583,307.365 399.749,308.365 399,309.5C 388.845,327.489 379.011,345.489 369.5,363.5 Z"/></g>
<g><path style="opacity:1" fill="#49566a" d="M 75.5,318.5 C 75.8327,324.516 77.166,330.183 79.5,335.5C 81.4599,348.131 84.1265,360.631 87.5,373C 87.3333,373.5 87.1667,374 87,374.5C 84,371.5 81,368.5 78,365.5C 77.5357,366.094 77.369,366.761 77.5,367.5C 75.2437,363.903 72.5771,360.569 69.5,357.5C 67.5698,353.9 64.9031,350.9 61.5,348.5C 58.8333,347.833 57.1667,346.167 56.5,343.5C 53.1017,338.594 49.1017,334.094 44.5,330C 54.2289,325.136 63.8956,320.302 73.5,315.5C 74.1757,316.602 74.8423,317.602 75.5,318.5 Z"/></g>
<g><path style="opacity:1" fill="#8398b7" d="M 457.5,314.5 C 449.656,338.962 437.99,361.295 422.5,381.5C 421.055,371.27 420.388,360.937 420.5,350.5C 419.5,350.5 418.5,350.5 417.5,350.5C 413.11,358.932 407.943,366.932 402,374.5C 401.107,375.711 400.274,375.711 399.5,374.5C 405.615,365.732 411.282,356.732 416.5,347.5C 418.117,346.962 419.784,346.629 421.5,346.5C 422.741,343.992 424.407,341.658 426.5,339.5C 434.161,332.675 441.995,326.009 450,319.5C 450.882,316.448 452.716,314.114 455.5,312.5C 456.383,309.675 457.55,307.008 459,304.5C 458.635,307.794 458.135,311.127 457.5,314.5 Z"/></g>
<g><path style="opacity:1" fill="#7b8ba2" d="M 75.5,318.5 C 77.3245,323.936 78.6578,329.603 79.5,335.5C 77.166,330.183 75.8327,324.516 75.5,318.5 Z"/></g>
<g><path style="opacity:1" fill="#77869e" d="M 9.5,194.5 C 8.53248,197.445 8.36581,200.445 9,203.5C 9.90519,199.163 11.4052,195.163 13.5,191.5C 11.3199,200.554 8.98659,209.554 6.5,218.5C 17.6781,218.951 28.6781,218.951 39.5,218.5C 40.3554,221.175 41.522,223.842 43,226.5C 43.2321,225.263 43.7321,224.263 44.5,223.5C 51.7785,228.112 58.1118,233.779 63.5,240.5C 59.041,237.213 54.7077,233.713 50.5,230C 49.8333,229.333 49.1667,229.333 48.5,230C 48.9855,233.093 49.1521,236.593 49,240.5C 49.5181,243.508 51.0181,245.841 53.5,247.5C 53.0688,248.293 52.7355,249.127 52.5,250C 53.4788,252.433 54.1455,254.933 54.5,257.5C 50.2011,247.784 46.3677,237.784 43,227.5C 42.6867,261.186 43.3533,294.853 45,328.5C 54.579,323.627 64.079,318.627 73.5,313.5C 71.4248,308.276 69.7581,302.942 68.5,297.5C 70.8676,302.252 72.8676,307.252 74.5,312.5C 76.0026,313.052 77.6693,313.052 79.5,312.5C 78.9478,310.669 78.9478,309.003 79.5,307.5C 81.8631,308.677 84.3631,309.343 87,309.5C 90.4895,308.724 93.9895,308.058 97.5,307.5C 90.5713,309.868 83.5713,312.368 76.5,315C 77.7101,316.039 78.7101,317.206 79.5,318.5C 77.9826,318.489 76.8159,317.823 76,316.5C 75.5357,317.094 75.369,317.761 75.5,318.5C 74.8423,317.602 74.1757,316.602 73.5,315.5C 63.8956,320.302 54.2289,325.136 44.5,330C 49.1017,334.094 53.1017,338.594 56.5,343.5C 52.8691,340.371 49.3691,337.037 46,333.5C 46.9016,337.402 47.735,341.402 48.5,345.5C 46.0333,340.87 44.3666,335.87 43.5,330.5C 38.482,330.613 33.482,330.947 28.5,331.5C 27.0813,330.549 25.4147,330.216 23.5,330.5C 23.5,329.5 23.5,328.5 23.5,327.5C 29.5526,329.557 35.8859,330.057 42.5,329C 40.0878,325.01 38.0878,320.843 36.5,316.5C 29.1872,304.551 22.3538,292.218 16,279.5C 17.2059,286.416 17.8726,293.416 18,300.5C 16.0464,291.9 14.5464,283.234 13.5,274.5C 11.4727,274.338 9.4727,274.505 7.5,275C 6.74756,275.671 6.41423,276.504 6.5,277.5C 5.83333,277.167 5.16667,276.833 4.5,276.5C 3.63651,270.545 3.30318,264.545 3.5,258.5C 3.5,256.167 3.5,253.833 3.5,251.5C 4.83333,241.167 4.83333,230.833 3.5,220.5C 4.7207,216.57 5.2207,212.57 5,208.5C 4.60966,211.104 3.77633,213.438 2.5,215.5C 3.45443,208.728 4.78776,202.061 6.5,195.5C 7.28997,194.391 7.78997,193.058 8,191.5C 8.23209,192.737 8.73209,193.737 9.5,194.5 Z"/></g>
<g><path style="opacity:1" fill="#4e5c72" d="M 40.5,235.5 C 38.4071,234.027 36.7405,234.527 35.5,237C 36.7376,236.923 37.7376,237.089 38.5,237.5C 37.0878,238.806 35.4211,239.64 33.5,240C 32.8333,241 32.1667,242 31.5,243C 32.3272,263.427 32.8272,283.927 33,304.5C 34.4443,306.155 36.2776,306.822 38.5,306.5C 39.1456,283.481 39.8122,260.481 40.5,237.5C 41.9657,266.659 42.4657,295.992 42,325.5C 40.6429,322.102 38.8096,319.102 36.5,316.5C 29.6148,302.397 22.4481,288.397 15,274.5C 15.5451,270.717 16.7117,267.05 18.5,263.5C 21.5926,259.653 23.9259,255.32 25.5,250.5C 29.9277,243.981 33.5944,236.981 36.5,229.5C 38.1361,228.251 39.3028,226.584 40,224.5C 40.4986,228.152 40.6653,231.818 40.5,235.5 Z"/></g>
<g><path style="opacity:1" fill="#7a89a0" d="M 25.5,250.5 C 23.9259,255.32 21.5926,259.653 18.5,263.5C 20.0542,258.724 22.3875,254.39 25.5,250.5 Z"/></g>
<g><path style="opacity:1" fill="#48586d" d="M 5.5,228.5 C 8.46059,242.936 10.7939,257.603 12.5,272.5C 10.1944,272.993 7.86105,273.326 5.5,273.5C 5.5,258.5 5.5,243.5 5.5,228.5 Z"/></g>
<g><path style="opacity:1" fill="#4e5b6d" d="M 40.5,235.5 C 40.5,236.167 40.5,236.833 40.5,237.5C 39.8122,260.481 39.1456,283.481 38.5,306.5C 36.2776,306.822 34.4443,306.155 33,304.5C 32.8272,283.927 32.3272,263.427 31.5,243C 32.1667,242 32.8333,241 33.5,240C 35.4211,239.64 37.0878,238.806 38.5,237.5C 37.7376,237.089 36.7376,236.923 35.5,237C 36.7405,234.527 38.4071,234.027 40.5,235.5 Z"/></g>
<g><path style="opacity:1" fill="#536278" d="M 36.5,229.5 C 33.5944,236.981 29.9277,243.981 25.5,250.5C 22.3875,254.39 20.0542,258.724 18.5,263.5C 16.5259,265.428 15.0259,267.761 14,270.5C 11.6119,253.547 8.77859,236.714 5.5,220C 15.8484,219.908 26.1817,220.408 36.5,221.5C 37.5,221.833 38.5,222.167 39.5,222.5C 38.2122,224.739 37.2122,227.072 36.5,229.5 Z"/></g>
<g><path style="opacity:1" fill="#506075" d="M 79.5,318.5 C 87.2379,326.203 95.5712,333.203 104.5,339.5C 112.941,347.549 121.941,354.882 131.5,361.5C 131.611,362.117 131.944,362.617 132.5,363C 128.657,364.361 124.991,365.861 121.5,367.5C 116.339,369.908 111.006,372.075 105.5,374C 101.793,374.737 98.1268,375.571 94.5,376.5C 92.8561,376.286 91.3561,376.62 90,377.5C 86.7985,363.295 83.2985,349.295 79.5,335.5C 78.6578,329.603 77.3245,323.936 75.5,318.5C 75.369,317.761 75.5357,317.094 76,316.5C 76.8159,317.823 77.9826,318.489 79.5,318.5 Z"/></g>
<g><path style="opacity:1" fill="#455165" d="M 48.5,345.5 C 51.2004,355.906 54.2004,366.24 57.5,376.5C 56.1196,377.706 54.9529,377.373 54,375.5C 50.9148,370.328 47.5814,365.328 44,360.5C 44.6966,363.754 46.1966,366.754 48.5,369.5C 47.9953,370.919 46.9953,371.585 45.5,371.5C 44.6618,371.158 44.3284,370.492 44.5,369.5C 43.2583,365.345 41.2583,361.678 38.5,358.5C 38.1075,356.716 37.4408,355.05 36.5,353.5C 37.479,353.458 38.479,353.458 39.5,353.5C 37.6367,349.75 35.3034,346.417 32.5,343.5C 30.3146,339.639 27.9813,335.806 25.5,332C 26.448,331.517 27.448,331.351 28.5,331.5C 33.482,330.947 38.482,330.613 43.5,330.5C 44.3666,335.87 46.0333,340.87 48.5,345.5 Z"/></g>
<g><path style="opacity:1" fill="#76879f" d="M 79.5,318.5 C 88.7616,324.431 97.0949,331.431 104.5,339.5C 95.5712,333.203 87.2379,326.203 79.5,318.5 Z"/></g>
<g><path style="opacity:1" fill="#95a2b3" d="M 20.5,326.5 C 21.5,326.5 22.5,326.5 23.5,326.5C 23.5,326.833 23.5,327.167 23.5,327.5C 23.5,328.5 23.5,329.5 23.5,330.5C 25.4147,330.216 27.0813,330.549 28.5,331.5C 27.448,331.351 26.448,331.517 25.5,332C 27.9813,335.806 30.3146,339.639 32.5,343.5C 31.9569,343.56 31.6236,343.893 31.5,344.5C 32.4565,346.075 33.1231,347.742 33.5,349.5C 28.4106,342.328 24.0773,334.661 20.5,326.5 Z"/></g>
<g><path style="opacity:1" fill="#6e829d" d="M 250.5,338.5 C 265.17,338.333 279.837,338.5 294.5,339C 288.33,342.919 281.997,346.586 275.5,350C 273.382,351.049 271.716,352.549 270.5,354.5C 263.823,359.143 257.157,363.143 250.5,366.5C 249.081,368.336 247.914,370.336 247,372.5C 245.796,371.529 245.296,370.529 245.5,369.5C 241.191,372.637 236.524,375.137 231.5,377C 229.875,377.853 229.542,378.853 230.5,380C 227.283,381.637 223.95,382.97 220.5,384C 219.167,385 219.167,386 220.5,387C 219.354,387.645 218.354,388.478 217.5,389.5C 216.117,386.924 215.283,387.258 215,390.5C 214.163,388.993 212.996,388.493 211.5,389C 209.99,391.009 208.323,392.842 206.5,394.5C 209.556,395.196 212.556,396.03 215.5,397C 213.069,398.092 213.069,399.259 215.5,400.5C 210.808,400.575 206.474,399.575 202.5,397.5C 199.875,396.559 199.875,395.393 202.5,394C 201.004,393.493 199.837,393.993 199,395.5C 197.917,380.855 197.251,366.188 197,351.5C 196.501,355.486 196.334,359.486 196.5,363.5C 195.508,356.018 195.175,348.352 195.5,340.5C 196.391,339.89 197.391,339.557 198.5,339.5C 215.842,339.537 233.176,339.203 250.5,338.5 Z"/></g>
<g><path style="opacity:1" fill="#607089" d="M 195.5,340.5 C 195.175,348.352 195.508,356.018 196.5,363.5C 196.832,373.855 196.499,384.188 195.5,394.5C 188.6,390.882 181.6,387.549 174.5,384.5C 163.612,379.892 153.279,374.558 143.5,368.5C 141.41,366.61 139.077,364.943 136.5,363.5C 138.36,362.675 140.026,361.675 141.5,360.5C 152.211,357.267 162.545,353.267 172.5,348.5C 180.247,346.13 187.914,343.463 195.5,340.5 Z"/></g>
<g><path style="opacity:1" fill="#7588a6" d="M 343.5,356.5 C 351.129,358.988 358.462,361.988 365.5,365.5C 366.857,367.499 366.19,368.665 363.5,369C 363.833,369.333 364.167,369.667 364.5,370C 351.706,384.136 339.206,398.636 327,413.5C 322.33,400.822 317.663,388.156 313,375.5C 313.684,381.241 315.017,386.907 317,392.5C 320.118,399.346 322.951,406.346 325.5,413.5C 314.725,413.31 304.058,413.643 293.5,414.5C 284.845,413.917 276.178,413.584 267.5,413.5C 269.167,422.167 270.833,430.833 272.5,439.5C 270.05,431.71 267.883,423.71 266,415.5C 265.28,413.944 264.113,412.944 262.5,412.5C 263.568,411.566 264.901,411.232 266.5,411.5C 272.893,395.829 279.393,380.162 286,364.5C 289.046,357.142 292.546,350.142 296.5,343.5C 297.458,343.047 298.292,342.381 299,341.5C 300.333,344.833 301.667,348.167 303,351.5C 303.175,348.843 303.008,346.176 302.5,343.5C 309.797,344.478 316.463,347.145 322.5,351.5C 323.803,350.282 324.803,350.615 325.5,352.5C 330.206,350.503 333.872,351.67 336.5,356C 338.81,356.497 341.143,356.663 343.5,356.5 Z"/></g>
<g><path style="opacity:1" fill="#7b90b1" d="M 305.5,340.5 C 309.559,342.028 313.559,343.861 317.5,346C 327.054,347.701 335.721,351.201 343.5,356.5C 341.143,356.663 338.81,356.497 336.5,356C 333.872,351.67 330.206,350.503 325.5,352.5C 324.803,350.615 323.803,350.282 322.5,351.5C 316.463,347.145 309.797,344.478 302.5,343.5C 303.008,346.176 303.175,348.843 303,351.5C 301.667,348.167 300.333,344.833 299,341.5C 298.292,342.381 297.458,343.047 296.5,343.5C 296.719,342.325 296.386,341.325 295.5,340.5C 287.274,345.444 278.94,350.111 270.5,354.5C 271.716,352.549 273.382,351.049 275.5,350C 281.997,346.586 288.33,342.919 294.5,339C 279.837,338.5 265.17,338.333 250.5,338.5C 265.86,337.811 281.36,337.145 297,336.5C 299.672,338.327 302.505,339.661 305.5,340.5 Z"/></g>
<g><path style="opacity:1" fill="#7b8ca6" d="M 128.5,302.5 C 128.833,302.5 129.167,302.5 129.5,302.5C 131.109,322.469 132.942,342.469 135,362.5C 137.007,361.331 139.173,360.665 141.5,360.5C 140.026,361.675 138.36,362.675 136.5,363.5C 139.077,364.943 141.41,366.61 143.5,368.5C 141.072,367.788 138.739,366.788 136.5,365.5C 136.167,366.5 135.833,367.5 135.5,368.5C 136.887,376.658 138.221,384.825 139.5,393C 139.486,394.385 139.152,395.551 138.5,396.5C 136.964,385.747 134.964,375.08 132.5,364.5C 128.986,366.117 125.319,367.117 121.5,367.5C 124.991,365.861 128.657,364.361 132.5,363C 131.944,362.617 131.611,362.117 131.5,361.5C 132.163,359.359 132.497,357.025 132.5,354.5C 131.034,337.172 129.7,319.839 128.5,302.5 Z"/></g>
<g><path style="opacity:1" fill="#717c91" d="M 32.5,343.5 C 35.3034,346.417 37.6367,349.75 39.5,353.5C 38.479,353.458 37.479,353.458 36.5,353.5C 36.1667,353.5 35.8333,353.5 35.5,353.5C 34.3263,352.486 33.6596,351.153 33.5,349.5C 33.1231,347.742 32.4565,346.075 31.5,344.5C 31.6236,343.893 31.9569,343.56 32.5,343.5 Z"/></g>
<g><path style="opacity:1" fill="#6d819c" d="M 296.5,343.5 C 292.546,350.142 289.046,357.142 286,364.5C 279.393,380.162 272.893,395.829 266.5,411.5C 264.901,411.232 263.568,411.566 262.5,412.5C 246.626,408.867 230.959,404.867 215.5,400.5C 213.069,399.259 213.069,398.092 215.5,397C 212.556,396.03 209.556,395.196 206.5,394.5C 208.323,392.842 209.99,391.009 211.5,389C 212.996,388.493 214.163,388.993 215,390.5C 215.283,387.258 216.117,386.924 217.5,389.5C 218.354,388.478 219.354,387.645 220.5,387C 219.167,386 219.167,385 220.5,384C 223.95,382.97 227.283,381.637 230.5,380C 229.542,378.853 229.875,377.853 231.5,377C 236.524,375.137 241.191,372.637 245.5,369.5C 245.296,370.529 245.796,371.529 247,372.5C 247.914,370.336 249.081,368.336 250.5,366.5C 257.157,363.143 263.823,359.143 270.5,354.5C 278.94,350.111 287.274,345.444 295.5,340.5C 296.386,341.325 296.719,342.325 296.5,343.5 Z"/></g>
<g><path style="opacity:1" fill="#7d91b1" d="M 415.5,347.5 C 415.833,347.5 416.167,347.5 416.5,347.5C 411.282,356.732 405.615,365.732 399.5,374.5C 400.274,375.711 401.107,375.711 402,374.5C 407.943,366.932 413.11,358.932 417.5,350.5C 418.5,350.5 419.5,350.5 420.5,350.5C 420.388,360.937 421.055,371.27 422.5,381.5C 419.305,386.569 415.638,391.235 411.5,395.5C 410.685,391.167 412.352,388.834 416.5,388.5C 416.719,387.325 416.386,386.325 415.5,385.5C 404.677,391.016 393.677,396.016 382.5,400.5C 382.223,410.218 381.556,419.884 380.5,429.5C 381.325,430.386 382.325,430.719 383.5,430.5C 381.851,435.138 378.517,437.471 373.5,437.5C 374.607,435.031 376.607,434.031 379.5,434.5C 380.177,423.792 380.677,413.125 381,402.5C 380.617,403.056 380.117,403.389 379.5,403.5C 377.01,402.91 374.343,402.743 371.5,403C 375.005,402.343 378.005,400.843 380.5,398.5C 376.339,388.177 372.173,377.843 368,367.5C 355.542,382.96 342.709,398.127 329.5,413C 333.857,412.665 338.19,411.831 342.5,410.5C 343.416,410.543 344.083,410.876 344.5,411.5C 338.857,413.103 333.191,414.603 327.5,416C 331.52,423.566 334.853,431.399 337.5,439.5C 333.713,431.925 329.879,424.259 326,416.5C 324.16,417.833 323.66,417.666 324.5,416C 314.174,415.285 303.841,414.785 293.5,414.5C 304.058,413.643 314.725,413.31 325.5,413.5C 322.951,406.346 320.118,399.346 317,392.5C 315.017,386.907 313.684,381.241 313,375.5C 317.663,388.156 322.33,400.822 327,413.5C 339.206,398.636 351.706,384.136 364.5,370C 364.167,369.667 363.833,369.333 363.5,369C 366.19,368.665 366.857,367.499 365.5,365.5C 367.199,365.473 368.533,364.806 369.5,363.5C 370.738,364.412 372.072,364.579 373.5,364C 387.496,358.157 401.496,352.657 415.5,347.5 Z"/></g>
<g><path style="opacity:0.682" fill="#aeb6c7" d="M 35.5,353.5 C 35.8333,353.5 36.1667,353.5 36.5,353.5C 37.4408,355.05 38.1075,356.716 38.5,358.5C 36.7497,357.341 35.7497,355.674 35.5,353.5 Z"/></g>
<g><path style="opacity:1" fill="#a5adbc" d="M 38.5,358.5 C 41.2583,361.678 43.2583,365.345 44.5,369.5C 41.7417,366.322 39.7417,362.655 38.5,358.5 Z"/></g>
<g><path style="opacity:1" fill="#505c73" d="M 138.5,396.5 C 138.263,397.791 138.596,398.791 139.5,399.5C 140.285,405.542 141.285,411.542 142.5,417.5C 141.738,417.911 140.738,418.077 139.5,418C 142.914,419.914 143.247,422.081 140.5,424.5C 139.316,423.312 139.316,422.145 140.5,421C 137.898,420.065 136.398,418.232 136,415.5C 132.642,412.969 129.476,410.302 126.5,407.5C 122.083,402.747 117.083,398.747 111.5,395.5C 106.889,391.625 102.722,387.292 99,382.5C 98.2825,383.451 97.4491,383.617 96.5,383C 95.3353,381.008 94.002,379.175 92.5,377.5C 93.4916,377.672 94.1583,377.338 94.5,376.5C 98.1268,375.571 101.793,374.737 105.5,374C 111.006,372.075 116.339,369.908 121.5,367.5C 125.319,367.117 128.986,366.117 132.5,364.5C 134.964,375.08 136.964,385.747 138.5,396.5 Z"/></g>
<g><path style="opacity:1" fill="#455063" d="M 56.5,343.5 C 57.1667,346.167 58.8333,347.833 61.5,348.5C 63.4302,352.1 66.0969,355.1 69.5,357.5C 72.5771,360.569 75.2437,363.903 77.5,367.5C 81.1456,370.479 84.479,373.812 87.5,377.5C 79.3257,381.387 70.9924,384.553 62.5,387C 58.0534,373.026 53.3867,359.193 48.5,345.5C 47.735,341.402 46.9016,337.402 46,333.5C 49.3691,337.037 52.8691,340.371 56.5,343.5 Z"/></g>
<g><path style="opacity:1" fill="#58677f" d="M 143.5,368.5 C 153.279,374.558 163.612,379.892 174.5,384.5C 180.726,388.533 187.226,392.2 194,395.5C 194.688,396.332 194.521,396.998 193.5,397.5C 191.604,398.275 189.937,399.275 188.5,400.5C 183.871,403.481 178.871,405.981 173.5,408C 172.402,411.883 170.069,413.049 166.5,411.5C 165.749,410.427 164.749,410.26 163.5,411C 158.265,413.232 153.265,415.732 148.5,418.5C 146.883,419.038 145.216,419.371 143.5,419.5C 142.661,412.129 141.494,404.796 140,397.5C 139.536,398.094 139.369,398.761 139.5,399.5C 138.596,398.791 138.263,397.791 138.5,396.5C 139.152,395.551 139.486,394.385 139.5,393C 138.221,384.825 136.887,376.658 135.5,368.5C 135.833,367.5 136.167,366.5 136.5,365.5C 138.739,366.788 141.072,367.788 143.5,368.5 Z"/></g>
<g><path style="opacity:1" fill="#7285a3" d="M 379.5,403.5 C 378.188,406.145 376.188,408.145 373.5,409.5C 373.33,408.178 373.663,407.011 374.5,406C 373.271,405.219 371.938,404.719 370.5,404.5C 361.815,406.838 353.148,409.171 344.5,411.5C 344.083,410.876 343.416,410.543 342.5,410.5C 338.19,411.831 333.857,412.665 329.5,413C 342.709,398.127 355.542,382.96 368,367.5C 372.173,377.843 376.339,388.177 380.5,398.5C 378.005,400.843 375.005,402.343 371.5,403C 374.343,402.743 377.01,402.91 379.5,403.5 Z"/></g>
<g><path style="opacity:0.961" fill="#b7c2cb" d="M 48.5,377.5 C 51.1667,378.167 52.8333,379.833 53.5,382.5C 51.5,381.167 49.8333,379.5 48.5,377.5 Z"/></g>
<g><path style="opacity:1" fill="#57647a" d="M 57.5,376.5 C 58.5363,378.428 59.0363,380.428 59,382.5C 57.6882,383.785 55.8549,383.785 53.5,382.5C 52.8333,379.833 51.1667,378.167 48.5,377.5C 46.9752,375.784 45.9752,373.784 45.5,371.5C 46.9953,371.585 47.9953,370.919 48.5,369.5C 46.1966,366.754 44.6966,363.754 44,360.5C 47.5814,365.328 50.9148,370.328 54,375.5C 54.9529,377.373 56.1196,377.706 57.5,376.5 Z"/></g>
<g><path style="opacity:1" fill="#606f86" d="M 92.5,377.5 C 94.002,379.175 95.3353,381.008 96.5,383C 97.4491,383.617 98.2825,383.451 99,382.5C 102.722,387.292 106.889,391.625 111.5,395.5C 105.129,391.314 99.1294,386.647 93.5,381.5C 92.8592,380.518 92.1925,379.518 91.5,378.5C 91.6236,377.893 91.9569,377.56 92.5,377.5 Z"/></g>
<g><path style="opacity:1" fill="#78859c" d="M 79.5,335.5 C 83.2985,349.295 86.7985,363.295 90,377.5C 91.3561,376.62 92.8561,376.286 94.5,376.5C 94.1583,377.338 93.4916,377.672 92.5,377.5C 91.9569,377.56 91.6236,377.893 91.5,378.5C 92.1925,379.518 92.8592,380.518 93.5,381.5C 92.7611,381.369 92.0944,381.536 91.5,382C 96.2536,391.338 100.587,400.838 104.5,410.5C 99.292,400.07 93.792,389.737 88,379.5C 79.8333,382.667 71.6667,385.833 63.5,389C 66.0386,391.37 68.3719,393.87 70.5,396.5C 69.5084,396.328 68.8417,396.662 68.5,397.5C 63.1667,392.833 58.1667,387.833 53.5,382.5C 55.8549,383.785 57.6882,383.785 59,382.5C 59.0363,380.428 58.5363,378.428 57.5,376.5C 54.2004,366.24 51.2004,355.906 48.5,345.5C 53.3867,359.193 58.0534,373.026 62.5,387C 70.9924,384.553 79.3257,381.387 87.5,377.5C 84.479,373.812 81.1456,370.479 77.5,367.5C 77.369,366.761 77.5357,366.094 78,365.5C 81,368.5 84,371.5 87,374.5C 87.1667,374 87.3333,373.5 87.5,373C 84.1265,360.631 81.4599,348.131 79.5,335.5 Z"/></g>
<g><path style="opacity:1" fill="#707e93" d="M 61.5,348.5 C 64.9031,350.9 67.5698,353.9 69.5,357.5C 66.0969,355.1 63.4302,352.1 61.5,348.5 Z"/></g>
<g><path style="opacity:1" fill="#445063" d="M 104.5,410.5 C 100.587,400.838 96.2536,391.338 91.5,382C 92.0944,381.536 92.7611,381.369 93.5,381.5C 99.1294,386.647 105.129,391.314 111.5,395.5C 115.579,400.699 120.579,404.699 126.5,407.5C 129.476,410.302 132.642,412.969 136,415.5C 136.398,418.232 137.898,420.065 140.5,421C 139.316,422.145 139.316,423.312 140.5,424.5C 140.5,425.167 140.5,425.833 140.5,426.5C 138.75,427.659 137.75,429.326 137.5,431.5C 135.076,434.008 133.41,437.008 132.5,440.5C 130.076,443.008 128.41,446.008 127.5,449.5C 126.21,450.058 125.377,451.058 125,452.5C 123.667,449.833 122.333,447.167 121,444.5C 121.096,446.381 120.929,448.047 120.5,449.5C 119.415,447.413 117.749,446.08 115.5,445.5C 115.368,442.203 113.702,440.537 110.5,440.5C 109.647,436.98 107.647,434.313 104.5,432.5C 93.5046,420.172 82.1713,408.172 70.5,396.5C 68.3719,393.87 66.0386,391.37 63.5,389C 71.6667,385.833 79.8333,382.667 88,379.5C 93.792,389.737 99.292,400.07 104.5,410.5 Z"/></g>
<g><path style="opacity:1" fill="#717d93" d="M 111.5,395.5 C 117.083,398.747 122.083,402.747 126.5,407.5C 120.579,404.699 115.579,400.699 111.5,395.5 Z"/></g>
<g><path style="opacity:1" fill="#7a8ba4" d="M 202.5,397.5 C 201.022,397.238 199.689,397.571 198.5,398.5C 202.487,411.449 206.321,424.449 210,437.5C 210.414,437.957 210.914,438.291 211.5,438.5C 213.751,437.305 216.085,436.305 218.5,435.5C 219.696,435.846 219.696,436.346 218.5,437C 216.221,437.473 214.221,438.473 212.5,440C 224.371,441.438 236.038,443.271 247.5,445.5C 235.958,444.62 224.458,443.287 213,441.5C 211.566,441.862 210.399,442.528 209.5,443.5C 207.695,441.803 205.361,440.97 202.5,441C 205.544,440.641 205.878,439.974 203.5,439C 188.463,435.293 173.797,430.793 159.5,425.5C 175.838,429.626 192.005,434.292 208,439.5C 205.105,425.304 201.271,411.304 196.5,397.5C 194.021,399.076 191.354,400.076 188.5,400.5C 189.937,399.275 191.604,398.275 193.5,397.5C 194.521,396.998 194.688,396.332 194,395.5C 187.226,392.2 180.726,388.533 174.5,384.5C 181.6,387.549 188.6,390.882 195.5,394.5C 196.499,384.188 196.832,373.855 196.5,363.5C 196.334,359.486 196.501,355.486 197,351.5C 197.251,366.188 197.917,380.855 199,395.5C 199.837,393.993 201.004,393.493 202.5,394C 199.875,395.393 199.875,396.559 202.5,397.5 Z"/></g>
<g><path style="opacity:1" fill="#58677f" d="M 202.5,397.5 C 206.474,399.575 210.808,400.575 215.5,400.5C 230.959,404.867 246.626,408.867 262.5,412.5C 264.113,412.944 265.28,413.944 266,415.5C 267.883,423.71 270.05,431.71 272.5,439.5C 272.963,442.482 273.296,445.482 273.5,448.5C 264.933,447.013 256.266,446.013 247.5,445.5C 236.038,443.271 224.371,441.438 212.5,440C 214.221,438.473 216.221,437.473 218.5,437C 219.696,436.346 219.696,435.846 218.5,435.5C 216.085,436.305 213.751,437.305 211.5,438.5C 210.914,438.291 210.414,437.957 210,437.5C 206.321,424.449 202.487,411.449 198.5,398.5C 199.689,397.571 201.022,397.238 202.5,397.5 Z"/></g>
<g><path style="opacity:1" fill="#546379" d="M 159.5,425.5 C 156.074,423.8 152.407,422.466 148.5,421.5C 147.438,420.575 147.438,419.575 148.5,418.5C 154.712,416.728 160.712,414.395 166.5,411.5C 170.069,413.049 172.402,411.883 173.5,408C 178.871,405.981 183.871,403.481 188.5,400.5C 191.354,400.076 194.021,399.076 196.5,397.5C 201.271,411.304 205.105,425.304 208,439.5C 192.005,434.292 175.838,429.626 159.5,425.5 Z"/></g>
<g><path style="opacity:1" fill="#6c7d99" d="M 411.5,395.5 C 407.885,401.116 403.885,406.45 399.5,411.5C 397.888,410.548 396.388,410.214 395,410.5C 393.428,414.278 391.595,417.945 389.5,421.5C 388.914,421.291 388.414,420.957 388,420.5C 387.707,422.925 386.541,424.758 384.5,426C 385.171,426.986 385.171,428.153 384.5,429.5C 384.5,430.167 384.167,430.5 383.5,430.5C 382.325,430.719 381.325,430.386 380.5,429.5C 381.556,419.884 382.223,410.218 382.5,400.5C 393.677,396.016 404.677,391.016 415.5,385.5C 416.386,386.325 416.719,387.325 416.5,388.5C 412.352,388.834 410.685,391.167 411.5,395.5 Z"/></g>
<g><path style="opacity:1" fill="#6d7f9b" d="M 373.5,409.5 C 370.281,413.224 366.781,416.891 363,420.5C 362.3,423.585 360.467,425.585 357.5,426.5C 354.63,428.872 352.297,431.705 350.5,435C 348.76,436.694 346.76,437.861 344.5,438.5C 342.178,440.925 339.845,442.591 337.5,443.5C 337.5,442.167 337.5,440.833 337.5,439.5C 334.853,431.399 331.52,423.566 327.5,416C 333.191,414.603 338.857,413.103 344.5,411.5C 353.148,409.171 361.815,406.838 370.5,404.5C 371.938,404.719 373.271,405.219 374.5,406C 373.663,407.011 373.33,408.178 373.5,409.5 Z"/></g>
<g><path style="opacity:1" fill="#697b95" d="M 373.5,437.5 C 370.184,436.385 366.851,436.552 363.5,438C 364.5,438.333 365.5,438.667 366.5,439C 364.187,439.662 361.854,440.162 359.5,440.5C 354.74,441.191 350.074,442.191 345.5,443.5C 344.737,442.732 343.737,442.232 342.5,442C 343.823,441.184 344.489,440.017 344.5,438.5C 346.76,437.861 348.76,436.694 350.5,435C 352.297,431.705 354.63,428.872 357.5,426.5C 360.467,425.585 362.3,423.585 363,420.5C 366.781,416.891 370.281,413.224 373.5,409.5C 376.188,408.145 378.188,406.145 379.5,403.5C 380.117,403.389 380.617,403.056 381,402.5C 380.677,413.125 380.177,423.792 379.5,434.5C 376.607,434.031 374.607,435.031 373.5,437.5 Z"/></g>
<g><path style="opacity:1" fill="#828fa0" d="M 70.5,396.5 C 82.1713,408.172 93.5046,420.172 104.5,432.5C 104.5,433.167 104.167,433.5 103.5,433.5C 91.8333,421.5 80.1667,409.5 68.5,397.5C 68.8417,396.662 69.5084,396.328 70.5,396.5 Z"/></g>
<g><path style="opacity:1" fill="#7a8aa1" d="M 166.5,411.5 C 160.712,414.395 154.712,416.728 148.5,418.5C 153.265,415.732 158.265,413.232 163.5,411C 164.749,410.26 165.749,410.427 166.5,411.5 Z"/></g>
<g><path style="opacity:1" fill="#7a8aa3" d="M 148.5,418.5 C 147.438,419.575 147.438,420.575 148.5,421.5C 152.407,422.466 156.074,423.8 159.5,425.5C 154.389,424.639 149.389,423.305 144.5,421.5C 143.388,423.419 142.054,425.086 140.5,426.5C 140.5,425.833 140.5,425.167 140.5,424.5C 143.247,422.081 142.914,419.914 139.5,418C 140.738,418.077 141.738,417.911 142.5,417.5C 141.285,411.542 140.285,405.542 139.5,399.5C 139.369,398.761 139.536,398.094 140,397.5C 141.494,404.796 142.661,412.129 143.5,419.5C 145.216,419.371 146.883,419.038 148.5,418.5 Z"/></g>
<g><path style="opacity:1" fill="#8491a5" d="M 399.5,411.5 C 394.49,417.54 389.49,423.54 384.5,429.5C 385.171,428.153 385.171,426.986 384.5,426C 386.541,424.758 387.707,422.925 388,420.5C 388.414,420.957 388.914,421.291 389.5,421.5C 391.595,417.945 393.428,414.278 395,410.5C 396.388,410.214 397.888,410.548 399.5,411.5 Z"/></g>
<g><path style="opacity:1" fill="#748299" d="M 104.5,410.5 C 107.955,415.746 110.622,421.413 112.5,427.5C 109.045,422.254 106.378,416.587 104.5,410.5 Z"/></g>
<g><path style="opacity:1" fill="#5f6f89" d="M 293.5,414.5 C 303.841,414.785 314.174,415.285 324.5,416C 323.66,417.666 324.16,417.833 326,416.5C 329.879,424.259 333.713,431.925 337.5,439.5C 337.5,440.833 337.5,442.167 337.5,443.5C 320.647,444.529 303.813,445.863 287,447.5C 284.31,447.497 281.81,447.164 279.5,446.5C 277.685,447.63 275.685,448.296 273.5,448.5C 273.296,445.482 272.963,442.482 272.5,439.5C 270.833,430.833 269.167,422.167 267.5,413.5C 276.178,413.584 284.845,413.917 293.5,414.5 Z"/></g>
<g><path style="opacity:1" fill="#6c7d96" d="M 279.5,446.5 C 282.736,443.203 286.403,440.37 290.5,438C 290.167,437.667 289.833,437.333 289.5,437C 290.973,436.29 291.64,435.124 291.5,433.5C 293.527,433.662 295.527,433.495 297.5,433C 296.664,431.757 296.997,430.59 298.5,429.5C 300.409,428.652 302.409,428.318 304.5,428.5C 304.185,426.774 304.019,425.107 304,423.5C 304.75,424.126 305.584,424.626 306.5,425C 305.346,425.914 305.513,426.747 307,427.5C 308.84,426.167 309.34,426.334 308.5,428C 298.932,434.417 289.265,440.583 279.5,446.5 Z"/></g>
<g><path style="opacity:0.898" fill="#b2b9c3" d="M 104.5,432.5 C 107.647,434.313 109.647,436.98 110.5,440.5C 107.833,438.5 105.5,436.167 103.5,433.5C 104.167,433.5 104.5,433.167 104.5,432.5 Z"/></g>
<g><path style="opacity:1" fill="#78879e" d="M 137.5,431.5 C 136.59,434.992 134.924,437.992 132.5,440.5C 133.41,437.008 135.076,434.008 137.5,431.5 Z"/></g>
<g><path style="opacity:1" fill="#738299" d="M 112.5,427.5 C 115.78,432.056 117.947,437.056 119,442.5C 116.282,437.731 114.115,432.731 112.5,427.5 Z"/></g>
<g><path style="opacity:0.933" fill="#bac0c8" d="M 110.5,440.5 C 113.702,440.537 115.368,442.203 115.5,445.5C 113.5,444.167 111.833,442.5 110.5,440.5 Z"/></g>
<g><path style="opacity:1" fill="#748399" d="M 132.5,440.5 C 131.558,444.065 129.891,447.065 127.5,449.5C 128.41,446.008 130.076,443.008 132.5,440.5 Z"/></g>
<g><path style="opacity:1" fill="#4c5b6f" d="M 159.5,425.5 C 173.797,430.793 188.463,435.293 203.5,439C 205.878,439.974 205.544,440.641 202.5,441C 205.361,440.97 207.695,441.803 209.5,443.5C 209.586,444.496 209.252,445.329 208.5,446C 209.094,446.464 209.761,446.631 210.5,446.5C 211.343,453.056 212.677,459.389 214.5,465.5C 213.551,466.152 212.385,466.486 211,466.5C 183.82,462.456 156.653,458.29 129.5,454C 132.513,453.498 135.513,452.998 138.5,452.5C 159.561,449.434 180.561,445.934 201.5,442C 180.249,444.099 159.249,447.265 138.5,451.5C 134.493,452.004 130.493,452.17 126.5,452C 127.252,451.329 127.586,450.496 127.5,449.5C 129.891,447.065 131.558,444.065 132.5,440.5C 134.924,437.992 136.59,434.992 137.5,431.5C 137.75,429.326 138.75,427.659 140.5,426.5C 142.054,425.086 143.388,423.419 144.5,421.5C 149.389,423.305 154.389,424.639 159.5,425.5 Z"/></g>
<g><path style="opacity:1" fill="#56657c" d="M 247.5,445.5 C 253.589,447.228 259.922,448.394 266.5,449C 267.5,449.333 268.5,449.667 269.5,450C 268.584,450.278 267.918,450.778 267.5,451.5C 269.547,451.489 271.547,451.156 273.5,450.5C 275.393,451.963 277.059,453.63 278.5,455.5C 279.023,458.878 280.356,461.878 282.5,464.5C 268.822,464.635 255.155,465.135 241.5,466C 247.833,466.333 254.167,466.667 260.5,467C 258.618,467.198 256.952,467.698 255.5,468.5C 248.223,469.679 240.89,470.345 233.5,470.5C 229.088,470.098 224.754,469.265 220.5,468C 224.167,467.667 227.833,467.333 231.5,467C 228.5,466.667 225.5,466.333 222.5,466C 226.057,464.592 229.724,463.592 233.5,463C 234.056,462.617 234.389,462.117 234.5,461.5C 228.336,462.541 222.336,464.208 216.5,466.5C 215.702,466.043 215.369,465.376 215.5,464.5C 214.194,457.805 212.694,451.138 211,444.5C 210.536,445.094 210.369,445.761 210.5,446.5C 209.761,446.631 209.094,446.464 208.5,446C 209.252,445.329 209.586,444.496 209.5,443.5C 210.399,442.528 211.566,441.862 213,441.5C 224.458,443.287 235.958,444.62 247.5,445.5 Z"/></g>
<g><path style="opacity:0.925" fill="#c0c6d6" d="M 115.5,445.5 C 117.749,446.08 119.415,447.413 120.5,449.5C 120.5,449.833 120.5,450.167 120.5,450.5C 118.5,449.167 116.833,447.5 115.5,445.5 Z"/></g>
<g><path style="opacity:1" fill="#72839a" d="M 138.5,452.5 C 138.5,452.167 138.5,451.833 138.5,451.5C 159.249,447.265 180.249,444.099 201.5,442C 180.561,445.934 159.561,449.434 138.5,452.5 Z"/></g>
<g><path style="opacity:1" fill="#596a83" d="M 359.5,440.5 C 349.03,444.267 338.363,447.767 327.5,451C 328.416,451.278 329.082,451.778 329.5,452.5C 327.299,453.566 324.965,454.233 322.5,454.5C 321.417,454.461 320.417,454.127 319.5,453.5C 319.167,454.167 318.833,454.833 318.5,455.5C 317.205,454.902 315.872,454.402 314.5,454C 319.807,452.295 324.807,450.129 329.5,447.5C 334.68,445.578 340.013,444.245 345.5,443.5C 350.074,442.191 354.74,441.191 359.5,440.5 Z"/></g>
<g><path style="opacity:1" fill="#798aa5" d="M 344.5,438.5 C 344.489,440.017 343.823,441.184 342.5,442C 343.737,442.232 344.737,442.732 345.5,443.5C 340.013,444.245 334.68,445.578 329.5,447.5C 329.918,446.778 330.584,446.278 331.5,446C 313.085,446.386 294.751,447.886 276.5,450.5C 277.456,452.075 278.123,453.742 278.5,455.5C 277.059,453.63 275.393,451.963 273.5,450.5C 271.547,451.156 269.547,451.489 267.5,451.5C 267.918,450.778 268.584,450.278 269.5,450C 268.5,449.667 267.5,449.333 266.5,449C 259.922,448.394 253.589,447.228 247.5,445.5C 256.266,446.013 264.933,447.013 273.5,448.5C 275.685,448.296 277.685,447.63 279.5,446.5C 281.81,447.164 284.31,447.497 287,447.5C 303.813,445.863 320.647,444.529 337.5,443.5C 339.845,442.591 342.178,440.925 344.5,438.5 Z"/></g>
<g><path style="opacity:1" fill="#8b98ac" d="M 373.5,437.5 C 359.057,442.871 344.39,447.871 329.5,452.5C 329.082,451.778 328.416,451.278 327.5,451C 338.363,447.767 349.03,444.267 359.5,440.5C 361.854,440.162 364.187,439.662 366.5,439C 365.5,438.667 364.5,438.333 363.5,438C 366.851,436.552 370.184,436.385 373.5,437.5 Z"/></g>
<g><path style="opacity:1" fill="#57667e" d="M 329.5,447.5 C 317.889,451.314 306.556,455.647 295.5,460.5C 291.285,461.238 287.285,462.572 283.5,464.5C 282.226,461.24 280.56,458.24 278.5,455.5C 278.123,453.742 277.456,452.075 276.5,450.5C 294.751,447.886 313.085,446.386 331.5,446C 330.584,446.278 329.918,446.778 329.5,447.5 Z"/></g>
<g><path style="opacity:1" fill="#7a8aa3" d="M 267.5,451.5 C 263.735,453.289 259.735,454.789 255.5,456C 254.167,456.667 252.833,456.667 251.5,456C 256.702,453.988 262.035,452.488 267.5,451.5 Z"/></g>
<g><path style="opacity:1" fill="#76859c" d="M 215.5,464.5 C 214.833,464.5 214.5,464.833 214.5,465.5C 212.677,459.389 211.343,453.056 210.5,446.5C 210.369,445.761 210.536,445.094 211,444.5C 212.694,451.138 214.194,457.805 215.5,464.5 Z"/></g>
<g><path style="opacity:1" fill="#7b89a3" d="M 234.5,461.5 C 239.489,458.894 244.822,457.394 250.5,457C 245.414,459.418 240.081,460.918 234.5,461.5 Z"/></g>
<g><path style="opacity:1" fill="#7888a0" d="M 278.5,455.5 C 280.56,458.24 282.226,461.24 283.5,464.5C 283.167,464.5 282.833,464.5 282.5,464.5C 280.356,461.878 279.023,458.878 278.5,455.5 Z"/></g>
<g><path style="opacity:1" fill="#79889f" d="M 329.5,447.5 C 324.807,450.129 319.807,452.295 314.5,454C 315.872,454.402 317.205,454.902 318.5,455.5C 318.833,454.833 319.167,454.167 319.5,453.5C 320.417,454.127 321.417,454.461 322.5,454.5C 314.196,458.269 305.529,461.269 296.5,463.5C 294.801,463.66 293.134,463.494 291.5,463C 293.919,462.71 295.253,461.876 295.5,460.5C 306.556,455.647 317.889,451.314 329.5,447.5 Z"/></g>
<g><path style="opacity:1" fill="#919eb3" d="M 127.5,449.5 C 127.586,450.496 127.252,451.329 126.5,452C 130.493,452.17 134.493,452.004 138.5,451.5C 138.5,451.833 138.5,452.167 138.5,452.5C 135.513,452.998 132.513,453.498 129.5,454C 156.653,458.29 183.82,462.456 211,466.5C 212.385,466.486 213.551,466.152 214.5,465.5C 214.5,464.833 214.833,464.5 215.5,464.5C 215.369,465.376 215.702,466.043 216.5,466.5C 222.336,464.208 228.336,462.541 234.5,461.5C 234.389,462.117 234.056,462.617 233.5,463C 229.724,463.592 226.057,464.592 222.5,466C 225.5,466.333 228.5,466.667 231.5,467C 227.833,467.333 224.167,467.667 220.5,468C 224.754,469.265 229.088,470.098 233.5,470.5C 232.726,471.147 231.726,471.48 230.5,471.5C 195.816,466.108 161.15,460.608 126.5,455C 123.771,454.434 121.771,452.934 120.5,450.5C 120.5,450.167 120.5,449.833 120.5,449.5C 120.929,448.047 121.096,446.381 121,444.5C 122.333,447.167 123.667,449.833 125,452.5C 125.377,451.058 126.21,450.058 127.5,449.5 Z"/></g>
<g><path style="opacity:1" fill="#8a97af" d="M 295.5,460.5 C 295.253,461.876 293.919,462.71 291.5,463C 293.134,463.494 294.801,463.66 296.5,463.5C 283.051,465.811 269.384,467.477 255.5,468.5C 256.952,467.698 258.618,467.198 260.5,467C 254.167,466.667 247.833,466.333 241.5,466C 255.155,465.135 268.822,464.635 282.5,464.5C 282.833,464.5 283.167,464.5 283.5,464.5C 287.285,462.572 291.285,461.238 295.5,460.5 Z"/></g>
</svg>
