<?xml version="1.0" encoding="UTF-8"?>
<svg version="1.1" xmlns="http://www.w3.org/2000/svg" width="438" height="444">
<path d="M0 0 C1.29814133 -0.00191345 2.59628265 -0.0038269 3.9337616 -0.00579834 C6.67472119 -0.00873601 9.41554986 -0.00449804 12.15649414 0.00488281 C15.64285445 0.01624267 19.12890556 0.00973144 22.6152544 -0.00226212 C25.97269323 -0.01129739 29.33005243 -0.00493794 32.6875 0 C33.92635452 -0.00404846 35.16520905 -0.00809692 36.44160461 -0.01226807 C42.60975663 0.02074505 48.34271468 0.3576364 54.3508606 1.80046082 C58.38806563 2.65715358 62.49154331 2.69706755 66.60546875 2.828125 C84.0282169 3.46143448 84.0282169 3.46143448 92.48046875 6.453125 C93.78381945 6.90374625 95.08720648 7.35426244 96.390625 7.8046875 C97.77486788 8.29130186 99.15897902 8.77829111 100.54296875 9.265625 C103.49710933 10.29900751 106.45506497 11.32013669 109.41796875 12.328125 C110.53993652 12.71013062 110.53993652 12.71013062 111.68457031 13.09985352 C117.63912996 15.07640458 123.64252656 16.58703306 129.79833984 17.79711914 C134.76996256 18.83876321 138.24312294 20.69614138 142.54296875 23.265625 C145.94024257 24.02486229 145.94024257 24.02486229 149.54296875 24.265625 C154.84283071 24.74827443 159.52285525 25.38308244 164.54296875 27.265625 C165.26613281 27.4821875 165.98929687 27.69875 166.734375 27.921875 C171.40762484 29.33847792 175.0048733 30.72752955 178.54296875 34.265625 C178.54296875 34.925625 178.54296875 35.585625 178.54296875 36.265625 C179.14109375 36.3275 179.73921875 36.389375 180.35546875 36.453125 C183.43874983 37.59834369 183.93737186 39.43977447 185.54296875 42.265625 C186.38859375 43.090625 187.23421875 43.915625 188.10546875 44.765625 C190.54296875 47.265625 190.54296875 47.265625 191.54296875 49.828125 C192.4088707 52.50908887 192.4088707 52.50908887 195.16796875 54.328125 C196.34359375 55.2871875 196.34359375 55.2871875 197.54296875 56.265625 C197.54296875 57.585625 197.54296875 58.905625 197.54296875 60.265625 C198.16171875 60.35199219 198.78046875 60.43835938 199.41796875 60.52734375 C201.54296875 61.265625 201.54296875 61.265625 202.66796875 62.97265625 C203.10109375 64.01486328 203.10109375 64.01486328 203.54296875 65.078125 C205.10916109 68.52989009 206.75651221 70.65893985 209.54296875 73.265625 C210.59189113 74.90194392 211.59203578 76.57048363 212.54296875 78.265625 C213.05859375 79.07 213.57421875 79.874375 214.10546875 80.703125 C215.66703859 83.48679298 216.53536339 86.24280891 217.54296875 89.265625 C218.25453125 90.379375 218.25453125 90.379375 218.98046875 91.515625 C220.47666921 94.14893781 221.22431904 96.36820509 222.04296875 99.265625 C223.11199079 103.02947344 224.35959741 105.99056799 226.54296875 109.265625 C227.01734375 110.235 227.49171875 111.204375 227.98046875 112.203125 C229.45882096 115.29267403 229.45882096 115.29267403 231.48046875 117.953125 C233.83293602 121.73133001 235.18981008 125.47985935 236.61328125 129.6796875 C237.46251264 132.22023455 237.46251264 132.22023455 238.6015625 134.3125 C239.66422701 136.51719814 240.06842402 138.48114441 240.48046875 140.890625 C241.10675139 144.27157267 241.88525215 147.44599647 242.98046875 150.703125 C244.86376091 156.64935711 245.658264 162.77154075 246.54077148 168.92944336 C246.77305496 172.9258326 246.77305496 172.9258326 248.54296875 176.265625 C248.64150828 177.85096045 248.67095564 179.44065841 248.67236328 181.02905273 C248.67551544 182.04358017 248.6786676 183.0581076 248.68191528 184.1033783 C248.67887894 185.75956932 248.67887894 185.75956932 248.67578125 187.44921875 C248.67721634 189.13797874 248.67721634 189.13797874 248.67868042 190.8608551 C248.67936248 193.24748795 248.67750639 195.63412264 248.67333984 198.02075195 C248.66799694 201.68379877 248.67328143 205.34672268 248.6796875 209.00976562 C248.67902663 211.32291694 248.67774527 213.63606818 248.67578125 215.94921875 C248.67780548 217.05132187 248.67982971 218.15342499 248.68191528 219.28892517 C248.67876312 220.30660477 248.67561096 221.32428436 248.67236328 222.37280273 C248.67116989 223.72063087 248.67116989 223.72063087 248.66995239 225.09568787 C248.54296875 227.265625 248.54296875 227.265625 247.54296875 229.265625 C247.3661852 231.48253136 247.24426954 233.70390311 247.1484375 235.92578125 C247.07956646 237.29105573 247.0098776 238.65628915 246.93945312 240.02148438 C246.8328628 242.16475485 246.73129578 244.30774439 246.64428711 246.4519043 C246.33416497 253.88533337 246.04044309 260.53808937 242.52124023 267.2644043 C240.51652574 271.36538875 239.91462205 275.94900397 239.03320312 280.3984375 C238.19797713 284.31730376 237.54474535 286.61512013 234.54296875 289.265625 C233.68511707 291.59105957 233.68511707 291.59105957 233.10546875 294.140625 C231.90604333 298.43753567 230.4579452 300.8509383 227.54296875 304.265625 C226.53995109 306.08601893 225.56335344 307.92108294 224.60546875 309.765625 C222.31540415 314.06817062 220.21207014 317.09234813 216.54296875 320.265625 C214.72727034 321.94682723 213.66272876 322.99188782 212.66796875 325.265625 C211.54296875 327.265625 211.54296875 327.265625 209.35546875 328.453125 C205.82266691 330.72981952 203.88375403 333.49770045 201.3828125 336.8359375 C199.56688034 339.23404749 197.6862627 341.54297697 195.73046875 343.828125 C195.16714844 344.48941406 194.60382813 345.15070313 194.0234375 345.83203125 C192.54296875 347.265625 192.54296875 347.265625 190.54296875 347.265625 C190.27484375 348.07 190.00671875 348.874375 189.73046875 349.703125 C189.33859375 350.54875 188.94671875 351.394375 188.54296875 352.265625 C187.55296875 352.595625 186.56296875 352.925625 185.54296875 353.265625 C185.39859375 353.905 185.25421875 354.544375 185.10546875 355.203125 C184.91984375 355.88375 184.73421875 356.564375 184.54296875 357.265625 C182.73046875 358.265625 182.73046875 358.265625 180.54296875 359.265625 C179.55296875 360.2865625 179.55296875 360.2865625 178.54296875 361.328125 C176.54296875 363.265625 176.54296875 363.265625 174.41796875 363.765625 C173.79921875 363.930625 173.18046875 364.095625 172.54296875 364.265625 C172.07890625 365.19375 172.07890625 365.19375 171.60546875 366.140625 C170.12955389 369.09245473 168.48866074 369.82550892 165.54296875 371.265625 C163.90328125 371.7296875 163.90328125 371.7296875 162.23046875 372.203125 C158.678135 373.22667879 155.77256349 374.56345144 152.515625 376.2578125 C149.59063386 377.75216441 146.57219944 378.9988558 143.54296875 380.265625 C142.93195313 380.54664063 142.3209375 380.82765625 141.69140625 381.1171875 C138.31613664 382.65401239 136.33227349 383.265625 132.54296875 383.265625 C132.30964844 383.89597656 132.07632812 384.52632813 131.8359375 385.17578125 C130.54296875 387.265625 130.54296875 387.265625 128.40625 388.13671875 C127.56449219 388.32363281 126.72273438 388.51054687 125.85546875 388.703125 C122.37839666 389.60954123 119.97911095 390.45206938 117.23046875 392.765625 C113.18792427 395.96517442 108.66847898 396.57658735 103.703125 397.57421875 C100.9881914 398.16821535 98.60675205 398.90717925 96.04296875 399.953125 C92.86754755 401.14390795 90.87517764 401.57801958 87.54296875 401.265625 C87.21296875 402.255625 86.88296875 403.245625 86.54296875 404.265625 C74.31558433 405.77781816 62.26354713 406.61368763 49.94140625 406.58129883 C47.38370184 406.5780819 44.8270988 406.60194083 42.26953125 406.62695312 C34.13109101 406.6583732 27.11245408 406.55442879 19.54296875 403.265625 C15.92934018 402.25544312 12.30749268 401.28596135 8.6796875 400.328125 C5.54296875 399.265625 5.54296875 399.265625 3.546875 397.7578125 C0.79151617 395.70606382 -1.87706341 395.19810647 -5.20703125 394.390625 C-6.54235972 394.05351473 -7.87697402 393.71356552 -9.2109375 393.37109375 C-9.9033252 393.19368652 -10.59571289 393.0162793 -11.30908203 392.83349609 C-14.94613152 391.87193925 -18.54702343 390.80231734 -22.14453125 389.703125 C-22.81516602 389.50541504 -23.48580078 389.30770508 -24.17675781 389.10400391 C-27.85842724 387.96649371 -30.4215297 386.57285097 -33.45703125 384.265625 C-35.5367366 383.52617421 -37.64514546 382.86474673 -39.76953125 382.265625 C-44.53257335 380.86598246 -48.95349987 379.33724944 -53.45703125 377.265625 C-55.15859375 376.5540625 -55.15859375 376.5540625 -56.89453125 375.828125 C-59.44623522 374.70895659 -61.86834906 373.54869117 -64.33203125 372.265625 C-67.21602052 370.79283048 -70.05776176 369.68085796 -73.14453125 368.703125 C-76.61245281 367.59835271 -79.38969357 366.25939449 -82.45703125 364.265625 C-83.95260115 363.42436693 -85.45308115 362.59180811 -86.95703125 361.765625 C-88.1171875 361.11980469 -88.1171875 361.11980469 -89.30078125 360.4609375 C-91.01418139 359.51111786 -92.73444972 358.57368999 -94.45703125 357.640625 C-96.45703125 356.265625 -96.45703125 356.265625 -97.45703125 353.265625 C-98.16730469 353.21664063 -98.87757812 353.16765625 -99.609375 353.1171875 C-103.46423025 351.96443243 -105.45399464 349.57978344 -108.01953125 346.640625 C-108.48810547 346.13144531 -108.95667969 345.62226563 -109.43945312 345.09765625 C-112.74533697 341.40801246 -115.11808777 337.63132246 -117.45703125 333.265625 C-117.96105469 332.33878906 -118.46507812 331.41195313 -118.984375 330.45703125 C-119.92281266 328.70753389 -120.86031627 326.95753518 -121.796875 325.20703125 C-123.0914249 322.91339344 -124.43640213 320.7149336 -125.85546875 318.5 C-128.60544737 314.13026282 -130.92478751 309.61142724 -133.14453125 304.953125 C-133.54244873 304.11861816 -133.94036621 303.28411133 -134.3503418 302.42431641 C-136.77526354 297.17482217 -138.38065836 292.37624685 -139.07421875 286.60546875 C-139.61785926 283.28260484 -140.98579801 280.5464222 -142.4453125 277.53515625 C-143.90361036 274.26383943 -144.81450589 270.88204251 -145.74609375 267.4296875 C-146.43399819 265.01059914 -146.43399819 265.01059914 -148.45703125 262.265625 C-148.91186523 260.35205078 -148.91186523 260.35205078 -149.203125 258.2109375 C-149.31849609 257.43105469 -149.43386719 256.65117187 -149.55273438 255.84765625 C-149.77945897 254.21783034 -150.0034459 252.5876211 -150.22460938 250.95703125 C-150.91718991 246.31176732 -151.90231458 243.27049914 -154.45703125 239.265625 C-155.15234375 236.35546875 -155.15234375 236.35546875 -155.58203125 233.203125 C-155.72898438 232.18089844 -155.8759375 231.15867188 -156.02734375 230.10546875 C-157.16759582 219.91576164 -157.6172039 209.83797155 -157.58740234 199.59082031 C-157.58198817 197.37297901 -157.58741054 195.15533563 -157.59375 192.9375 C-157.59308997 191.50781206 -157.59181036 190.07812424 -157.58984375 188.6484375 C-157.58871582 187.37371582 -157.58758789 186.09899414 -157.58642578 184.78564453 C-157.46612592 181.51303444 -157.03841256 178.48228158 -156.45703125 175.265625 C-156.36706729 173.27842098 -156.27841671 171.29102669 -156.21704102 169.30273438 C-155.97185359 161.99169108 -155.05657541 155.79487649 -152.42578125 148.8984375 C-151.52859172 146.46010788 -150.98149683 144.19031962 -150.51953125 141.640625 C-149.65174091 137.40731732 -147.90176011 134.01630685 -145.890625 130.21484375 C-144.11374395 126.55940726 -142.68109667 122.82432788 -141.26953125 119.015625 C-141.01977539 118.34200928 -140.77001953 117.66839355 -140.51269531 116.97436523 C-139.41828953 113.98838024 -138.37205258 110.99900047 -137.40625 107.96875 C-136.24774581 104.6696352 -134.39214813 102.16830032 -132.45703125 99.265625 C-132.12703125 98.255 -131.79703125 97.244375 -131.45703125 96.203125 C-130.31847409 92.85861334 -128.67176455 91.00147202 -126.45703125 88.265625 C-125.39660781 86.24804033 -124.42533603 84.20858062 -123.484375 82.1328125 C-122.38108471 80.12759289 -121.09758523 78.84393574 -119.45703125 77.265625 C-119.12703125 76.585 -118.79703125 75.904375 -118.45703125 75.203125 C-117.45703125 73.265625 -117.45703125 73.265625 -114.45703125 71.265625 C-114.16828125 70.5025 -113.87953125 69.739375 -113.58203125 68.953125 C-112.1698043 65.57947174 -110.06069281 63.80578262 -107.45703125 61.265625 C-107.00328125 60.5025 -106.54953125 59.739375 -106.08203125 58.953125 C-103.70107917 55.01539656 -100.76010875 51.47319182 -97.45703125 48.265625 C-96.79703125 48.265625 -96.13703125 48.265625 -95.45703125 48.265625 C-95.12703125 47.275625 -94.79703125 46.285625 -94.45703125 45.265625 C-93.87953125 44.9975 -93.30203125 44.729375 -92.70703125 44.453125 C-90.0694417 43.06106385 -88.82396164 41.22110763 -87.0078125 38.91015625 C-84.56317424 36.31773129 -81.60399328 34.61326233 -78.609375 32.71484375 C-75.81634692 30.83423863 -73.72780723 28.74283516 -71.45703125 26.265625 C-69.45703125 24.265625 -69.45703125 24.265625 -66.265625 23.37890625 C-62.30890819 22.22232749 -59.02837626 20.55001117 -55.51953125 18.453125 C-54.91052979 18.09710205 -54.30152832 17.7410791 -53.67407227 17.37426758 C-49.81033781 15.10478 -45.97783131 12.78585968 -42.203125 10.37109375 C-41.62691406 10.00628906 -41.05070312 9.64148437 -40.45703125 9.265625 C-39.71324219 8.76804687 -38.96945313 8.27046875 -38.203125 7.7578125 C-34.89804718 5.96188117 -31.72853744 5.11660069 -28.08203125 4.203125 C-22.76972933 2.88396264 -22.76972933 2.88396264 -17.5612793 1.22192383 C-11.85284657 -0.40561825 -5.88386093 -0.01913412 0 0 Z " fill="#00A3E8" transform="translate(173.45703125,18.734375)"/>
<path d="M0 0 C1.29814133 -0.00191345 2.59628265 -0.0038269 3.9337616 -0.00579834 C6.67472119 -0.00873601 9.41554986 -0.00449804 12.15649414 0.00488281 C15.64285445 0.01624267 19.12890556 0.00973144 22.6152544 -0.00226212 C25.97269323 -0.01129739 29.33005243 -0.00493794 32.6875 0 C33.92635452 -0.00404846 35.16520905 -0.00809692 36.44160461 -0.01226807 C42.60975663 0.02074505 48.34271468 0.3576364 54.3508606 1.80046082 C58.38806563 2.65715358 62.49154331 2.69706755 66.60546875 2.828125 C84.0282169 3.46143448 84.0282169 3.46143448 92.48046875 6.453125 C93.78381945 6.90374625 95.08720648 7.35426244 96.390625 7.8046875 C97.77486788 8.29130186 99.15897902 8.77829111 100.54296875 9.265625 C103.49710933 10.29900751 106.45506497 11.32013669 109.41796875 12.328125 C110.53993652 12.71013062 110.53993652 12.71013062 111.68457031 13.09985352 C117.63912996 15.07640458 123.64252656 16.58703306 129.79833984 17.79711914 C134.76996256 18.83876321 138.24312294 20.69614138 142.54296875 23.265625 C145.94024257 24.02486229 145.94024257 24.02486229 149.54296875 24.265625 C154.84283071 24.74827443 159.52285525 25.38308244 164.54296875 27.265625 C165.26613281 27.4821875 165.98929687 27.69875 166.734375 27.921875 C171.40762484 29.33847792 175.0048733 30.72752955 178.54296875 34.265625 C178.54296875 34.925625 178.54296875 35.585625 178.54296875 36.265625 C179.14109375 36.3275 179.73921875 36.389375 180.35546875 36.453125 C183.43874983 37.59834369 183.93737186 39.43977447 185.54296875 42.265625 C186.38859375 43.090625 187.23421875 43.915625 188.10546875 44.765625 C190.54296875 47.265625 190.54296875 47.265625 191.54296875 49.828125 C192.4088707 52.50908887 192.4088707 52.50908887 195.16796875 54.328125 C196.34359375 55.2871875 196.34359375 55.2871875 197.54296875 56.265625 C197.54296875 57.585625 197.54296875 58.905625 197.54296875 60.265625 C198.16171875 60.35199219 198.78046875 60.43835938 199.41796875 60.52734375 C201.54296875 61.265625 201.54296875 61.265625 202.66796875 62.97265625 C203.10109375 64.01486328 203.10109375 64.01486328 203.54296875 65.078125 C205.10916109 68.52989009 206.75651221 70.65893985 209.54296875 73.265625 C210.59189113 74.90194392 211.59203578 76.57048363 212.54296875 78.265625 C213.05859375 79.07 213.57421875 79.874375 214.10546875 80.703125 C215.66703859 83.48679298 216.53536339 86.24280891 217.54296875 89.265625 C218.25453125 90.379375 218.25453125 90.379375 218.98046875 91.515625 C220.47666921 94.14893781 221.22431904 96.36820509 222.04296875 99.265625 C223.11199079 103.02947344 224.35959741 105.99056799 226.54296875 109.265625 C227.01734375 110.235 227.49171875 111.204375 227.98046875 112.203125 C229.45882096 115.29267403 229.45882096 115.29267403 231.48046875 117.953125 C233.83293602 121.73133001 235.18981008 125.47985935 236.61328125 129.6796875 C237.46251264 132.22023455 237.46251264 132.22023455 238.6015625 134.3125 C239.66422701 136.51719814 240.06842402 138.48114441 240.48046875 140.890625 C241.10675139 144.27157267 241.88525215 147.44599647 242.98046875 150.703125 C244.86376091 156.64935711 245.658264 162.77154075 246.54077148 168.92944336 C246.77305496 172.9258326 246.77305496 172.9258326 248.54296875 176.265625 C248.64150828 177.85096045 248.67095564 179.44065841 248.67236328 181.02905273 C248.67551544 182.04358017 248.6786676 183.0581076 248.68191528 184.1033783 C248.67887894 185.75956932 248.67887894 185.75956932 248.67578125 187.44921875 C248.67721634 189.13797874 248.67721634 189.13797874 248.67868042 190.8608551 C248.67936248 193.24748795 248.67750639 195.63412264 248.67333984 198.02075195 C248.66799694 201.68379877 248.67328143 205.34672268 248.6796875 209.00976562 C248.67902663 211.32291694 248.67774527 213.63606818 248.67578125 215.94921875 C248.67780548 217.05132187 248.67982971 218.15342499 248.68191528 219.28892517 C248.67876312 220.30660477 248.67561096 221.32428436 248.67236328 222.37280273 C248.67116989 223.72063087 248.67116989 223.72063087 248.66995239 225.09568787 C248.54296875 227.265625 248.54296875 227.265625 247.54296875 229.265625 C247.3661852 231.48253136 247.24426954 233.70390311 247.1484375 235.92578125 C247.07956646 237.29105573 247.0098776 238.65628915 246.93945312 240.02148438 C246.8328628 242.16475485 246.73129578 244.30774439 246.64428711 246.4519043 C246.33416497 253.88533337 246.04044309 260.53808937 242.52124023 267.2644043 C240.51652574 271.36538875 239.91462205 275.94900397 239.03320312 280.3984375 C238.19797713 284.31730376 237.54474535 286.61512013 234.54296875 289.265625 C233.68511707 291.59105957 233.68511707 291.59105957 233.10546875 294.140625 C231.90604333 298.43753567 230.4579452 300.8509383 227.54296875 304.265625 C226.53995109 306.08601893 225.56335344 307.92108294 224.60546875 309.765625 C222.31540415 314.06817062 220.21207014 317.09234813 216.54296875 320.265625 C214.72727034 321.94682723 213.66272876 322.99188782 212.66796875 325.265625 C211.54296875 327.265625 211.54296875 327.265625 209.35546875 328.453125 C205.82266691 330.72981952 203.88375403 333.49770045 201.3828125 336.8359375 C199.56688034 339.23404749 197.6862627 341.54297697 195.73046875 343.828125 C195.16714844 344.48941406 194.60382813 345.15070313 194.0234375 345.83203125 C192.54296875 347.265625 192.54296875 347.265625 190.54296875 347.265625 C190.27484375 348.07 190.00671875 348.874375 189.73046875 349.703125 C189.33859375 350.54875 188.94671875 351.394375 188.54296875 352.265625 C187.55296875 352.595625 186.56296875 352.925625 185.54296875 353.265625 C185.39859375 353.905 185.25421875 354.544375 185.10546875 355.203125 C184.91984375 355.88375 184.73421875 356.564375 184.54296875 357.265625 C182.73046875 358.265625 182.73046875 358.265625 180.54296875 359.265625 C179.55296875 360.2865625 179.55296875 360.2865625 178.54296875 361.328125 C176.54296875 363.265625 176.54296875 363.265625 174.41796875 363.765625 C173.79921875 363.930625 173.18046875 364.095625 172.54296875 364.265625 C172.07890625 365.19375 172.07890625 365.19375 171.60546875 366.140625 C170.12955389 369.09245473 168.48866074 369.82550892 165.54296875 371.265625 C163.90328125 371.7296875 163.90328125 371.7296875 162.23046875 372.203125 C158.678135 373.22667879 155.77256349 374.56345144 152.515625 376.2578125 C149.59063386 377.75216441 146.57219944 378.9988558 143.54296875 380.265625 C142.93195313 380.54664063 142.3209375 380.82765625 141.69140625 381.1171875 C138.31613664 382.65401239 136.33227349 383.265625 132.54296875 383.265625 C132.30964844 383.89597656 132.07632812 384.52632813 131.8359375 385.17578125 C130.54296875 387.265625 130.54296875 387.265625 128.40625 388.13671875 C127.56449219 388.32363281 126.72273438 388.51054687 125.85546875 388.703125 C122.37839666 389.60954123 119.97911095 390.45206938 117.23046875 392.765625 C113.18792427 395.96517442 108.66847898 396.57658735 103.703125 397.57421875 C100.9881914 398.16821535 98.60675205 398.90717925 96.04296875 399.953125 C92.86754755 401.14390795 90.87517764 401.57801958 87.54296875 401.265625 C87.21296875 402.255625 86.88296875 403.245625 86.54296875 404.265625 C74.31558433 405.77781816 62.26354713 406.61368763 49.94140625 406.58129883 C47.38370184 406.5780819 44.8270988 406.60194083 42.26953125 406.62695312 C34.13109101 406.6583732 27.11245408 406.55442879 19.54296875 403.265625 C15.92934018 402.25544312 12.30749268 401.28596135 8.6796875 400.328125 C5.54296875 399.265625 5.54296875 399.265625 3.546875 397.7578125 C0.79151617 395.70606382 -1.87706341 395.19810647 -5.20703125 394.390625 C-6.54235972 394.05351473 -7.87697402 393.71356552 -9.2109375 393.37109375 C-9.9033252 393.19368652 -10.59571289 393.0162793 -11.30908203 392.83349609 C-14.94613152 391.87193925 -18.54702343 390.80231734 -22.14453125 389.703125 C-22.81516602 389.50541504 -23.48580078 389.30770508 -24.17675781 389.10400391 C-27.85842724 387.96649371 -30.4215297 386.57285097 -33.45703125 384.265625 C-35.5367366 383.52617421 -37.64514546 382.86474673 -39.76953125 382.265625 C-44.53257335 380.86598246 -48.95349987 379.33724944 -53.45703125 377.265625 C-55.15859375 376.5540625 -55.15859375 376.5540625 -56.89453125 375.828125 C-59.44623522 374.70895659 -61.86834906 373.54869117 -64.33203125 372.265625 C-67.21602052 370.79283048 -70.05776176 369.68085796 -73.14453125 368.703125 C-76.61245281 367.59835271 -79.38969357 366.25939449 -82.45703125 364.265625 C-83.95260115 363.42436693 -85.45308115 362.59180811 -86.95703125 361.765625 C-88.1171875 361.11980469 -88.1171875 361.11980469 -89.30078125 360.4609375 C-91.01418139 359.51111786 -92.73444972 358.57368999 -94.45703125 357.640625 C-96.45703125 356.265625 -96.45703125 356.265625 -97.45703125 353.265625 C-98.16730469 353.21664063 -98.87757812 353.16765625 -99.609375 353.1171875 C-103.46423025 351.96443243 -105.45399464 349.57978344 -108.01953125 346.640625 C-108.48810547 346.13144531 -108.95667969 345.62226563 -109.43945312 345.09765625 C-112.74533697 341.40801246 -115.11808777 337.63132246 -117.45703125 333.265625 C-117.96105469 332.33878906 -118.46507812 331.41195313 -118.984375 330.45703125 C-119.92281266 328.70753389 -120.86031627 326.95753518 -121.796875 325.20703125 C-123.0914249 322.91339344 -124.43640213 320.7149336 -125.85546875 318.5 C-128.60544737 314.13026282 -130.92478751 309.61142724 -133.14453125 304.953125 C-133.54244873 304.11861816 -133.94036621 303.28411133 -134.3503418 302.42431641 C-136.77526354 297.17482217 -138.38065836 292.37624685 -139.07421875 286.60546875 C-139.61785926 283.28260484 -140.98579801 280.5464222 -142.4453125 277.53515625 C-143.90361036 274.26383943 -144.81450589 270.88204251 -145.74609375 267.4296875 C-146.43399819 265.01059914 -146.43399819 265.01059914 -148.45703125 262.265625 C-148.91186523 260.35205078 -148.91186523 260.35205078 -149.203125 258.2109375 C-149.31849609 257.43105469 -149.43386719 256.65117187 -149.55273438 255.84765625 C-149.77945897 254.21783034 -150.0034459 252.5876211 -150.22460938 250.95703125 C-150.91718991 246.31176732 -151.90231458 243.27049914 -154.45703125 239.265625 C-155.15234375 236.35546875 -155.15234375 236.35546875 -155.58203125 233.203125 C-155.72898438 232.18089844 -155.8759375 231.15867188 -156.02734375 230.10546875 C-157.16759582 219.91576164 -157.6172039 209.83797155 -157.58740234 199.59082031 C-157.58198817 197.37297901 -157.58741054 195.15533563 -157.59375 192.9375 C-157.59308997 191.50781206 -157.59181036 190.07812424 -157.58984375 188.6484375 C-157.58871582 187.37371582 -157.58758789 186.09899414 -157.58642578 184.78564453 C-157.46612592 181.51303444 -157.03841256 178.48228158 -156.45703125 175.265625 C-156.36706729 173.27842098 -156.27841671 171.29102669 -156.21704102 169.30273438 C-155.97185359 161.99169108 -155.05657541 155.79487649 -152.42578125 148.8984375 C-151.52859172 146.46010788 -150.98149683 144.19031962 -150.51953125 141.640625 C-149.65174091 137.40731732 -147.90176011 134.01630685 -145.890625 130.21484375 C-144.11374395 126.55940726 -142.68109667 122.82432788 -141.26953125 119.015625 C-141.01977539 118.34200928 -140.77001953 117.66839355 -140.51269531 116.97436523 C-139.41828953 113.98838024 -138.37205258 110.99900047 -137.40625 107.96875 C-136.24774581 104.6696352 -134.39214813 102.16830032 -132.45703125 99.265625 C-132.12703125 98.255 -131.79703125 97.244375 -131.45703125 96.203125 C-130.31847409 92.85861334 -128.67176455 91.00147202 -126.45703125 88.265625 C-125.39660781 86.24804033 -124.42533603 84.20858062 -123.484375 82.1328125 C-122.38108471 80.12759289 -121.09758523 78.84393574 -119.45703125 77.265625 C-119.12703125 76.585 -118.79703125 75.904375 -118.45703125 75.203125 C-117.45703125 73.265625 -117.45703125 73.265625 -114.45703125 71.265625 C-114.16828125 70.5025 -113.87953125 69.739375 -113.58203125 68.953125 C-112.1698043 65.57947174 -110.06069281 63.80578262 -107.45703125 61.265625 C-107.00328125 60.5025 -106.54953125 59.739375 -106.08203125 58.953125 C-103.70107917 55.01539656 -100.76010875 51.47319182 -97.45703125 48.265625 C-96.79703125 48.265625 -96.13703125 48.265625 -95.45703125 48.265625 C-95.12703125 47.275625 -94.79703125 46.285625 -94.45703125 45.265625 C-93.87953125 44.9975 -93.30203125 44.729375 -92.70703125 44.453125 C-90.0694417 43.06106385 -88.82396164 41.22110763 -87.0078125 38.91015625 C-84.56317424 36.31773129 -81.60399328 34.61326233 -78.609375 32.71484375 C-75.81634692 30.83423863 -73.72780723 28.74283516 -71.45703125 26.265625 C-69.45703125 24.265625 -69.45703125 24.265625 -66.265625 23.37890625 C-62.30890819 22.22232749 -59.02837626 20.55001117 -55.51953125 18.453125 C-54.91052979 18.09710205 -54.30152832 17.7410791 -53.67407227 17.37426758 C-49.81033781 15.10478 -45.97783131 12.78585968 -42.203125 10.37109375 C-41.62691406 10.00628906 -41.05070312 9.64148437 -40.45703125 9.265625 C-39.71324219 8.76804687 -38.96945313 8.27046875 -38.203125 7.7578125 C-34.89804718 5.96188117 -31.72853744 5.11660069 -28.08203125 4.203125 C-22.76972933 2.88396264 -22.76972933 2.88396264 -17.5612793 1.22192383 C-11.85284657 -0.40561825 -5.88386093 -0.01913412 0 0 Z M-44.45703125 17.265625 C-46.15722703 18.29995463 -47.86583424 19.3205679 -49.58203125 20.328125 C-52.69029609 22.18234893 -55.73928467 24.09965256 -58.76953125 26.078125 C-61.08957403 27.55493938 -62.40229879 28.25544222 -65.14453125 28.765625 C-68.6021447 29.5132171 -70.08697052 31.71780972 -72.45703125 34.265625 C-74.67054717 36.12963841 -76.9030835 37.88729047 -79.29296875 39.51953125 C-79.92460938 39.95136719 -80.55625 40.38320313 -81.20703125 40.828125 C-81.8 41.22128906 -82.39296875 41.61445312 -83.00390625 42.01953125 C-84.75622928 43.30604252 -84.75622928 43.30604252 -85.45703125 46.265625 C-86.32328125 46.6575 -87.18953125 47.049375 -88.08203125 47.453125 C-91.99070851 49.55222945 -94.06131917 51.9688278 -96.85546875 55.34765625 C-98.45703125 57.265625 -98.45703125 57.265625 -100.70703125 59.390625 C-102.66318373 61.30898967 -102.66318373 61.30898967 -104.01953125 64.390625 C-105.45703125 67.265625 -105.45703125 67.265625 -108.45703125 69.265625 C-108.64265625 70.44125 -108.64265625 70.44125 -108.83203125 71.640625 C-109.68149933 75.20839095 -111.58895516 76.11456793 -114.45703125 78.265625 C-114.95203125 79.750625 -114.95203125 79.750625 -115.45703125 81.265625 C-116.22015625 81.9875 -116.98328125 82.709375 -117.76953125 83.453125 C-120.54307925 86.35567523 -121.93973358 88.88457528 -123.5625 92.49609375 C-124.45703125 94.265625 -124.45703125 94.265625 -126.45703125 96.265625 C-127.26317187 98.21555675 -127.91216924 100.19363977 -128.578125 102.1953125 C-129.45703125 104.265625 -129.45703125 104.265625 -130.90625 106.0859375 C-132.96517947 108.97984844 -133.78040858 111.87784728 -134.83203125 115.265625 C-140.6404772 133.44907095 -140.6404772 133.44907095 -144.45703125 137.265625 C-145.19695334 140.05767477 -145.85703535 142.8187693 -146.45703125 145.640625 C-148.21208931 153.81261411 -148.21208931 153.81261411 -149.546875 156.28125 C-151.05127802 159.56123598 -150.89436283 163.08706306 -151.01953125 166.640625 C-151.08020328 168.12773517 -151.14395093 169.61472339 -151.2109375 171.1015625 C-151.24682983 172.08455322 -151.24682983 172.08455322 -151.28344727 173.08740234 C-151.45703125 175.265625 -151.45703125 175.265625 -151.96191406 178.07983398 C-152.50330969 181.56339984 -152.60352963 184.87727785 -152.625 188.40234375 C-152.62914413 189.07555161 -152.63328827 189.74875946 -152.63755798 190.44236755 C-152.64718438 192.6126763 -152.64722359 194.7827983 -152.64453125 196.953125 C-152.64459167 197.69117371 -152.6446521 198.42922241 -152.64471436 199.18963623 C-153.00320915 221.86750482 -153.00320915 221.86750482 -146.95703125 243.390625 C-145.43715903 246.74795468 -144.99836509 249.99640289 -144.51953125 253.640625 C-143.82856427 258.70384524 -142.65086303 262.72212445 -140.3984375 267.28515625 C-139.02709815 270.17009007 -138.29590232 273.1897644 -137.45703125 276.265625 C-136.96583644 277.5191112 -136.46530401 278.76896594 -135.95703125 280.015625 C-134.74183082 283.12179586 -134.18991861 285.96187489 -133.76953125 289.265625 C-132.57150422 296.65001573 -128.92362011 302.9430113 -125.41064453 309.45556641 C-124.51766271 311.1505401 -123.70101716 312.88511653 -122.890625 314.62109375 C-121.58779479 317.51581833 -121.58779479 317.51581833 -118.45703125 319.265625 C-117.4296875 321.47265625 -117.4296875 321.47265625 -116.51953125 324.078125 C-114.99120126 328.12849003 -113.3550039 331.00540576 -110.45703125 334.265625 C-109.85890625 335.19375 -109.26078125 336.121875 -108.64453125 337.078125 C-104.35200725 343.33294568 -100.51163751 348.1484734 -93.45703125 351.265625 C-92.79703125 352.255625 -92.13703125 353.245625 -91.45703125 354.265625 C-89.65154458 355.28236561 -89.65154458 355.28236561 -87.51953125 356.078125 C-83.87411031 357.60289241 -80.46168955 359.32452153 -77.01953125 361.265625 C-72.64892454 363.69918862 -68.26192141 365.62627011 -63.58984375 367.3984375 C-61.45703125 368.265625 -61.45703125 368.265625 -58.95703125 369.828125 C-55.79157874 371.6482602 -52.57983036 372.45671812 -49.078125 373.4453125 C-45.75931773 374.48398542 -42.69454144 375.8973206 -39.546875 377.36328125 C-37.24736903 378.41317392 -37.24736903 378.41317392 -33.83203125 379.265625 C-30.45703125 380.265625 -30.45703125 380.265625 -27.6171875 382.078125 C-22.04684553 385.33680446 -15.70745998 386.61979668 -9.51953125 388.265625 C-1.70305759 390.35110416 5.39579003 392.46792228 12.54296875 396.265625 C15.1218535 397.04782103 15.1218535 397.04782103 17.41796875 397.390625 C21.3370864 398.05974265 21.3370864 398.05974265 23.54296875 400.265625 C27.94554749 401.55609789 32.450269 401.42707826 37 401.43359375 C38.23093636 401.43858635 38.23093636 401.43858635 39.48674011 401.44367981 C41.22577355 401.44873427 42.96481665 401.45108859 44.70385742 401.45092773 C47.3086044 401.45308617 49.91290758 401.47117883 52.51757812 401.49023438 C70.2723818 402.30557146 70.2723818 402.30557146 86.54296875 397.265625 C88.31988405 396.71549642 90.11425671 396.22025927 91.91796875 395.765625 C94.73386877 395.05195337 97.38861321 394.32888937 100.078125 393.2265625 C102.6137534 392.23802908 104.92071278 391.79728046 107.60546875 391.390625 C111.95145529 390.5789481 113.50817042 389.49621677 116.54296875 386.265625 C118.80973213 385.39058766 121.0775519 384.71070445 123.421875 384.07421875 C125.60542508 383.40977138 125.60542508 383.40977138 127.0234375 381.765625 C128.98552033 379.82876175 130.63433347 379.49278382 133.29296875 378.828125 C136.51521763 377.93745997 139.25797193 377.01946965 142.10546875 375.265625 C145.559902 373.25577293 148.70851766 372.14909812 152.52734375 371.07421875 C154.62264898 370.38784405 154.62264898 370.38784405 156.0703125 368.73046875 C158.20183155 366.61025749 160.64336302 366.54814747 163.4921875 365.91796875 C166.85593846 364.84797559 168.99755598 362.64503259 171.54296875 360.265625 C176.89949049 355.57866848 176.89949049 355.57866848 179.85546875 354.140625 C181.91067218 353.32356943 181.91067218 353.32356943 182.54296875 350.265625 C183.85091206 348.90737618 185.19197772 347.58106363 186.54296875 346.265625 C188.25515412 344.35353982 189.9347147 342.41482881 191.6171875 340.4765625 C193.59688453 338.20372575 195.59847642 335.9518774 197.60546875 333.703125 C200.453631 330.5044197 203.26197885 327.27661453 206.04296875 324.01953125 C213.77480801 314.97891712 213.77480801 314.97891712 217.16796875 311.828125 C219.84860486 308.93585973 221.51915483 306.0042527 223.34765625 302.53125 C224.41013796 300.51739577 225.54800966 298.58511328 226.73046875 296.640625 C228.57026227 293.21480258 229.48842208 289.99168989 230.54296875 286.265625 C231.02636719 285.71390625 231.50976562 285.1621875 232.0078125 284.59375 C234.62182746 280.62949321 234.72911427 276.01053661 235.359375 271.37695312 C235.99337957 267.19762414 236.539849 265.14102475 239.54296875 262.265625 C240.68805162 258.83037639 240.83735654 255.87989703 241.04296875 252.26171875 C241.08357422 251.58262955 241.12417969 250.90354034 241.16601562 250.20387268 C241.33949709 247.30170703 241.50355036 244.39902904 241.66796875 241.49633789 C241.78942896 239.37624052 241.91604002 237.25649461 242.04296875 235.13671875 C242.11515625 233.86755615 242.18734375 232.59839355 242.26171875 231.29077148 C242.54296875 228.265625 242.54296875 228.265625 243.54296875 226.265625 C243.64264176 224.79139036 243.68127383 223.31278893 243.68823242 221.83520508 C243.69461227 220.91697464 243.70099213 219.9987442 243.70756531 219.0526886 C243.70867813 218.05690292 243.70979095 217.06111725 243.7109375 216.03515625 C243.7142659 215.01137375 243.7175943 213.98759125 243.72102356 212.93278503 C243.72609434 210.76142832 243.72843184 208.5900638 243.72827148 206.41870117 C243.73044839 203.10907961 243.74857609 199.79979649 243.76757812 196.49023438 C243.77051399 194.38020947 243.77249749 192.27018299 243.7734375 190.16015625 C243.78421577 188.68165947 243.78421577 188.68165947 243.79521179 187.17329407 C243.77742962 181.77505137 243.25565642 177.38188343 241.54296875 172.265625 C241.21008317 169.91693231 240.91950479 167.56191701 240.66796875 165.203125 C239.86453219 158.71778507 238.41592764 152.73085318 236.4453125 146.484375 C235.54296875 143.265625 235.54296875 143.265625 235.04296875 139.546875 C234.43863959 135.58096492 232.79756401 133.54503629 230.54296875 130.265625 C229.8236958 127.94796771 229.15197945 125.61466626 228.54296875 123.265625 C227.28647815 120.0733239 227.28647815 120.0733239 224.54296875 118.265625 C223.578125 116.15625 223.578125 116.15625 222.60546875 113.515625 C221.54087213 110.72401607 220.56653527 108.30333143 218.98046875 105.765625 C217.12821641 102.54431658 216.31461245 99.25251048 215.38671875 95.66796875 C214.47441015 93.07042344 213.21276016 91.43418528 211.54296875 89.265625 C210.6640625 87.16015625 210.6640625 87.16015625 209.98046875 85.078125 C209.34011017 83.01609587 209.34011017 83.01609587 208.54296875 81.265625 C207.88296875 80.935625 207.22296875 80.605625 206.54296875 80.265625 C206.06859375 79.46125 205.59421875 78.656875 205.10546875 77.828125 C203.6463283 75.0300278 203.6463283 75.0300278 200.54296875 73.265625 C199.41442225 71.27407235 198.52899897 69.23396015 197.60546875 67.140625 C196.54556608 64.94204741 196.54556608 64.94204741 193.54296875 63.265625 C192.87630208 61.59895833 192.20963542 59.93229167 191.54296875 58.265625 C190.55296875 57.605625 189.56296875 56.945625 188.54296875 56.265625 C187.54296875 54.265625 186.54296875 52.265625 185.54296875 50.265625 C182.47122345 46.30469027 179.12987899 42.76056318 175.54296875 39.265625 C174.70765625 38.21375 174.70765625 38.21375 173.85546875 37.140625 C170.2232319 34.19556809 166.01097552 33.42967669 161.54296875 32.265625 C160.42921875 31.915 159.31546875 31.564375 158.16796875 31.203125 C154.92909424 30.36548504 151.78081364 29.78929596 148.48046875 29.265625 C142.93106636 28.37772062 138.27081273 27.41752099 133.54296875 24.265625 C132.06845316 23.78042486 130.57406327 23.35391104 129.0703125 22.96875 C128.17916748 22.73518799 127.28802246 22.50162598 126.36987305 22.26098633 C124.93961792 21.89203247 124.93961792 21.89203247 123.48046875 21.515625 C114.73207556 19.19887959 106.14364489 16.59939525 97.5859375 13.66015625 C96.9264209 13.43408691 96.2669043 13.20801758 95.58740234 12.97509766 C94.15970849 12.47965004 92.73579987 11.97321865 91.31494141 11.45849609 C82.13049425 8.21634894 73.05384909 8.0344129 63.40820312 7.74804688 C62.52583984 7.71388672 61.64347656 7.67972656 60.734375 7.64453125 C59.56177124 7.60694702 59.56177124 7.60694702 58.36547852 7.56860352 C55.95800567 7.31017658 53.86731071 6.85947907 51.53173828 6.26733398 C45.56128862 4.8959988 39.63416643 4.90351925 33.53125 4.859375 C32.2865947 4.84797485 31.04193939 4.83657471 29.75956726 4.8248291 C27.12807575 4.80599653 24.49653778 4.79288804 21.86499023 4.78515625 C17.91257943 4.77218019 13.96168863 4.70385972 10.00976562 4.640625 C-9.11771568 4.48184455 -28.43904134 5.71707422 -44.45703125 17.265625 Z " fill="#000000" transform="translate(173.45703125,18.734375)"/>
</svg>
